<svg id="Calque_1" data-name="Calque 1" xmlns="http://www.w3.org/2000/svg" xmlns:xlink="http://www.w3.org/1999/xlink" viewBox="0 0 104.75 104.88"><defs><style>.cls-1,.cls-8,.cls-9{fill:none;}.cls-1,.cls-2{clip-rule:evenodd;}.cls-2,.cls-5,.cls-7{fill:#00aced;}.cls-2,.cls-8,.cls-9{stroke:#00aced;stroke-miterlimit:10;stroke-width:0.5px;}.cls-3{clip-path:url(#clip-path);}.cls-4{clip-path:url(#clip-path-2);}.cls-5,.cls-9{fill-rule:evenodd;}.cls-6{clip-path:url(#clip-path-3);}.cls-10{fill:#00afea;}</style><clipPath id="clip-path"><path class="cls-1" d="M-529,32.44a20,20,0,0,0-20,20,20,20,0,0,0,20,20,20,20,0,0,0,20-20,20,20,0,0,0-20-20m0,36.9a17,17,0,0,1-16.89-16.92A17,17,0,0,1-529,35.54a17,17,0,0,1,16.9,16.91A16.94,16.94,0,0,1-529,69.34"/></clipPath><clipPath id="clip-path-2"><path class="cls-1" d="M-518,45.74a1.37,1.37,0,0,0-1.36-1.38h-4.11a4.87,4.87,0,0,0-.66,0A6.13,6.13,0,0,0-529,46.68a6.12,6.12,0,0,0-4.83-2.36,5.07,5.07,0,0,0-.66,0h-4.11a1.37,1.37,0,0,0-1.36,1.38v4.15c0,.23,0,.45,0,.67a6.21,6.21,0,0,0,6.17,6.24,6.12,6.12,0,0,0,3.45-1.06v8.2A1.37,1.37,0,0,0-529,65.32a1.38,1.38,0,0,0,1.37-1.38V55.71a6.06,6.06,0,0,0,3.48,1.09A6.21,6.21,0,0,0-518,50.56a5.12,5.12,0,0,0,0-.67ZM-533.79,54a3.46,3.46,0,0,1-3.43-3.2,1.33,1.33,0,0,0,0-.28V47.12h3.4a1.27,1.27,0,0,0,.28,0,3.46,3.46,0,0,1,3.16,3.47A3.46,3.46,0,0,1-533.79,54Zm9.66,0a3.46,3.46,0,0,1-3.44-3.48,3.47,3.47,0,0,1,3.17-3.47,1.24,1.24,0,0,0,.27,0h3.41v3.44a1.32,1.32,0,0,0,0,.28A3.46,3.46,0,0,1-524.13,54Z"/></clipPath><clipPath id="clip-path-3"><path class="cls-2" d="M-652,80.62h-14.11a1.28,1.28,0,0,1-1.08-.61,1.42,1.42,0,0,1-.13-1.28l14.11-35.92a1.29,1.29,0,0,1,1.46-.82,1.34,1.34,0,0,1,1.05,1.34V79.25A1.33,1.33,0,0,1-652,80.62Zm-12.17-2.74h10.87V50.23Z"/></clipPath></defs><title>Plan de travail 19 copie 7</title><path class="cls-5" d="M-652,80.62h-14.11a1.28,1.28,0,0,1-1.08-.61,1.42,1.42,0,0,1-.13-1.28l14.11-35.92a1.29,1.29,0,0,1,1.46-.82,1.34,1.34,0,0,1,1.05,1.34V79.25A1.33,1.33,0,0,1-652,80.62Zm-12.17-2.74h10.87V50.23Z"/><g class="cls-6"><rect class="cls-7" x="-1248.26" y="-1105.15" width="1504.41" height="2769.58"/><rect class="cls-8" x="-1248.26" y="-1105.15" width="1504.41" height="2769.58"/></g><path class="cls-9" d="M-652,80.62h-14.11a1.28,1.28,0,0,1-1.08-.61,1.42,1.42,0,0,1-.13-1.28l14.11-35.92a1.29,1.29,0,0,1,1.46-.82,1.34,1.34,0,0,1,1.05,1.34V79.25A1.33,1.33,0,0,1-652,80.62Zm-12.17-2.74h10.87V50.23Z"/><path class="cls-10" d="M22.06,30.51a5.59,5.59,0,1,0-5.59-5.59A5.6,5.6,0,0,0,22.06,30.51Zm0-8.18a2.59,2.59,0,1,1-2.59,2.59A2.59,2.59,0,0,1,22.06,22.33Z"/><path class="cls-10" d="M78.26,39.21a5.59,5.59,0,1,0-5.59-5.59A5.6,5.6,0,0,0,78.26,39.21Zm-2.59-5.59a2.59,2.59,0,1,1,2.59,2.59A2.59,2.59,0,0,1,75.67,33.62Z"/><path class="cls-10" d="M43.26,74.37A5.59,5.59,0,1,0,48.85,80,5.6,5.6,0,0,0,43.26,74.37ZM45.85,80a2.59,2.59,0,1,1-2.59-2.59A2.59,2.59,0,0,1,45.85,80Z"/><path class="cls-10" d="M73.6,40.87l-4.36,0A20.86,20.86,0,0,0,27.6,42a15.27,15.27,0,0,0,4.51,29.4v.06H50.83a15.27,15.27,0,0,0,23,0,15.28,15.28,0,0,0-.24-30.52ZM85.28,56.14A12.25,12.25,0,0,1,73.5,68.4l-1.09,0-.71.83a12.28,12.28,0,0,1-18.74,0l-.75-.88H33.43l-.71,0A12.27,12.27,0,0,1,29,44.65l1.6-.6,0-1.71a17.86,17.86,0,0,1,35.68-.84l.14,2.35h6.67A12.32,12.32,0,0,1,85.28,56.14Z"/><path class="cls-10" d="M56,38.75a6.92,6.92,0,0,0-6.91,6.91v6.89a6.91,6.91,0,0,0,13.82,0V45.66A6.92,6.92,0,0,0,56,38.75Zm0,17.7a3.91,3.91,0,0,1-3.91-3.9V45.66a3.91,3.91,0,0,1,7.82,0v6.89A3.91,3.91,0,0,1,56,56.45Z"/><path class="cls-10" d="M40.81,41.75a3.91,3.91,0,0,1,3.9,3.91,1.5,1.5,0,0,0,3,0,6.91,6.91,0,1,0-13.81,0v6.89a6.91,6.91,0,0,0,13.81,0,1.5,1.5,0,0,0-3,0,3.91,3.91,0,0,1-7.81,0V45.66A3.92,3.92,0,0,1,40.81,41.75Z"/><path class="cls-10" d="M69.66,59.58l-2.08,0,2-2.08a3.5,3.5,0,0,0,1-2.32,3.27,3.27,0,0,0-3.32-3.29,3.32,3.32,0,0,0-3.34,3.29v.21a1.41,1.41,0,1,0,2.81,0v-.28c0-.34.34-.42.6-.42a.44.44,0,0,1,.46.48,1.18,1.18,0,0,1-.24.52L64,59.32a1,1,0,0,0-.26.69v1.57a.76.76,0,0,0,.76.77h5.15l0,0a1.38,1.38,0,0,0-.06-2.72Z"/></svg>