<svg id="Calque_1" data-name="Calque 1" xmlns="http://www.w3.org/2000/svg" xmlns:xlink="http://www.w3.org/1999/xlink" viewBox="0 0 104.75 104.88"><defs><style>.cls-1,.cls-10,.cls-3,.cls-4{fill:none;}.cls-1,.cls-2,.cls-3{clip-rule:evenodd;}.cls-14,.cls-2,.cls-7,.cls-9{fill:#00aced;}.cls-10,.cls-14,.cls-2,.cls-3,.cls-4{stroke:#00aced;stroke-miterlimit:10;stroke-width:0.5px;}.cls-5{clip-path:url(#clip-path);}.cls-6{clip-path:url(#clip-path-2);}.cls-10,.cls-7{fill-rule:evenodd;}.cls-8{clip-path:url(#clip-path-3);}.cls-11{isolation:isolate;}.cls-12{clip-path:url(#clip-path-4);}.cls-13{clip-path:url(#clip-path-5);}</style><clipPath id="clip-path"><path class="cls-1" d="M283.71,32.44a20,20,0,1,0,20,20,20,20,0,0,0-20-20m0,36.9a16.9,16.9,0,1,1,16.92-16.89,16.94,16.94,0,0,1-16.92,16.89"/></clipPath><clipPath id="clip-path-2"><path class="cls-1" d="M294.67,45.74a1.37,1.37,0,0,0-1.36-1.38H289.2a5.07,5.07,0,0,0-.66,0,6.12,6.12,0,0,0-4.83,2.36,6.13,6.13,0,0,0-4.83-2.36,4.87,4.87,0,0,0-.66,0h-4.11a1.37,1.37,0,0,0-1.36,1.38v4.15a5.12,5.12,0,0,0,0,.67,6.21,6.21,0,0,0,6.17,6.24,6.09,6.09,0,0,0,3.44-1.06v8.2a1.37,1.37,0,1,0,2.73,0V55.71a6.1,6.1,0,0,0,3.49,1.09,6.21,6.21,0,0,0,6.17-6.24c0-.22,0-.44,0-.67ZM278.88,54a3.46,3.46,0,0,1-3.43-3.2,1.32,1.32,0,0,0,0-.28V47.12h3.41a1.24,1.24,0,0,0,.27,0,3.48,3.48,0,0,1-.27,6.95Zm9.66,0a3.48,3.48,0,0,1-.28-6.95,1.27,1.27,0,0,0,.28,0h3.4v3.44a1.33,1.33,0,0,0,0,.28A3.46,3.46,0,0,1,288.54,54Z"/></clipPath><clipPath id="clip-path-3"><path class="cls-2" d="M160.68,80.62h-14.1a1.29,1.29,0,0,1-1.09-.61,1.41,1.41,0,0,1-.12-1.28l14.11-35.92a1.29,1.29,0,0,1,1.46-.82A1.34,1.34,0,0,1,162,43.33V79.25A1.34,1.34,0,0,1,160.68,80.62Zm-12.16-2.74h10.86V50.23Z"/></clipPath><clipPath id="clip-path-4"><path class="cls-3" d="M26.31,80.39A2.35,2.35,0,0,1,24,78.74a3.23,3.23,0,0,1,0-1.69q1.82-6.9,3.67-13.8c.12-.47.26-.93.34-1.42a3.54,3.54,0,0,1,1.09-2L63.83,25.74a3.93,3.93,0,0,1,2.42-1.23,3.33,3.33,0,0,1,2.69.91c1,1,2.09,2,3.13,3,2.52,2.47,5.06,4.93,7.56,7.42a3.59,3.59,0,0,1,1.11,3.6,3.84,3.84,0,0,1-1.11,1.81l-17,16.79L45.05,75.35a3.88,3.88,0,0,1-2.62,1.21.29.29,0,0,0-.13,0,7.14,7.14,0,0,1-2.44.75q-6.27,1.49-12.54,2.93c-.33.08-.67.09-1,.14M54.69,38.15l-.19.21L38.92,53.7q-4.08,4-8.15,8a1.31,1.31,0,0,0-.31.58,1.22,1.22,0,0,0,.44,1.2L41.2,73.67a2,2,0,0,0,.36.29,1.34,1.34,0,0,0,1.72-.35l23.51-23.1.2-.2A5.09,5.09,0,0,1,65.31,49l-9.15-9a6.31,6.31,0,0,1-1.47-1.8m23.58.34a1,1,0,0,0-.39-.79L67.38,27.36l-.13-.13a1,1,0,0,0-1.48.05l-4.69,4.66c-.61.61-.61,1.05,0,1.66l4.06,4,6.44,6.33a1,1,0,0,0,1.58,0l4.77-4.69a1,1,0,0,0,.33-.8M39,75l-9.39-9.28a1.55,1.55,0,0,0,0,.15l-2,7.46a.33.33,0,0,0,.1.38q1.53,1.52,3,3a.36.36,0,0,0,.39.11l5.85-1.38L39,75M70.8,46.33c-.4-.35-.8-.67-1.15-1l-9.41-9.26c-.55-.55-1.08-1.11-1.63-1.67h0L57.2,35.76a1.09,1.09,0,0,0,0,1.79L67.62,47.81l.15.14a1,1,0,0,0,1.43,0c.55-.54,1.08-1.1,1.6-1.62"/></clipPath><clipPath id="clip-path-5"><rect class="cls-4" x="23.89" y="24.49" width="58.04" height="56.97"/></clipPath></defs><title>Plan de travail 19</title><path class="cls-7" d="M160.68,80.62h-14.1a1.29,1.29,0,0,1-1.09-.61,1.41,1.41,0,0,1-.12-1.28l14.11-35.92a1.29,1.29,0,0,1,1.46-.82A1.34,1.34,0,0,1,162,43.33V79.25A1.34,1.34,0,0,1,160.68,80.62Zm-12.16-2.74h10.86V50.23Z"/><g class="cls-8"><rect class="cls-9" x="-435.6" y="-1105.15" width="1504.41" height="2769.58"/><rect class="cls-4" x="-435.6" y="-1105.15" width="1504.41" height="2769.58"/></g><path class="cls-10" d="M160.68,80.62h-14.1a1.29,1.29,0,0,1-1.09-.61,1.41,1.41,0,0,1-.12-1.28l14.11-35.92a1.29,1.29,0,0,1,1.46-.82A1.34,1.34,0,0,1,162,43.33V79.25A1.34,1.34,0,0,1,160.68,80.62Zm-12.16-2.74h10.86V50.23Z"/><g class="cls-11"><g class="cls-12"><g class="cls-13"><rect class="cls-14" x="22.4" y="17.33" width="67.72" height="66.64"/></g><rect class="cls-4" x="23.89" y="24.49" width="58.04" height="56.97"/></g><path class="cls-10" d="M26.31,80.39A2.35,2.35,0,0,1,24,78.74a3.23,3.23,0,0,1,0-1.69q1.82-6.9,3.67-13.8c.12-.47.26-.93.34-1.42a3.54,3.54,0,0,1,1.09-2L63.83,25.74a3.93,3.93,0,0,1,2.42-1.23,3.33,3.33,0,0,1,2.69.91c1,1,2.09,2,3.13,3,2.52,2.47,5.06,4.93,7.56,7.42a3.59,3.59,0,0,1,1.11,3.6,3.84,3.84,0,0,1-1.11,1.81l-17,16.79L45.05,75.35a3.88,3.88,0,0,1-2.62,1.21.29.29,0,0,0-.13,0,7.14,7.14,0,0,1-2.44.75q-6.27,1.49-12.54,2.93c-.33.08-.67.09-1,.14M54.69,38.15l-.19.21L38.92,53.7q-4.08,4-8.15,8a1.31,1.31,0,0,0-.31.58,1.22,1.22,0,0,0,.44,1.2L41.2,73.67a2,2,0,0,0,.36.29,1.34,1.34,0,0,0,1.72-.35l23.51-23.1.2-.2A5.09,5.09,0,0,1,65.31,49l-9.15-9a6.31,6.31,0,0,1-1.47-1.8m23.58.34a1,1,0,0,0-.39-.79L67.38,27.36l-.13-.13a1,1,0,0,0-1.48.05l-4.69,4.66c-.61.61-.61,1.05,0,1.66l4.06,4,6.44,6.33a1,1,0,0,0,1.58,0l4.77-4.69a1,1,0,0,0,.33-.8M39,75l-9.39-9.28a1.55,1.55,0,0,0,0,.15l-2,7.46a.33.33,0,0,0,.1.38q1.53,1.52,3,3a.36.36,0,0,0,.39.11l5.85-1.38L39,75M70.8,46.33c-.4-.35-.8-.67-1.15-1l-9.41-9.26c-.55-.55-1.08-1.11-1.63-1.67h0L57.2,35.76a1.09,1.09,0,0,0,0,1.79L67.62,47.81l.15.14a1,1,0,0,0,1.43,0c.55-.54,1.08-1.1,1.6-1.62"/></g></svg>