<?xml version="1.0" encoding="utf-8"?>
<!-- Generator: Adobe Illustrator 23.1.1, SVG Export Plug-In . SVG Version: 6.00 Build 0)  -->
<svg version="1.1" id="Calque_1" xmlns="http://www.w3.org/2000/svg" xmlns:xlink="http://www.w3.org/1999/xlink" x="0px" y="0px"
	 viewBox="0 0 32 35" style="enable-background:new 0 0 32 35;" xml:space="preserve">
<style type="text/css">
	.st0{fill:#00AFEA;}
</style>
<path class="st0" d="M23.7,0c-0.1,0-0.1,0.1-0.2,0.1L0.1,26.4c0,0-0.1,0.1-0.1,0.2c0,0.1,0,0.1,0,0.2v7.9c0,0.1,0,0.2,0.1,0.3
	C0.2,35,0.3,35,0.4,35h7c0.1,0,0.2-0.1,0.3-0.1L31.1,8.6c0.1-0.1,0.1-0.2,0.1-0.3c0-0.1,0-0.2-0.1-0.3l-2.9-3.3c0,0-0.1-0.1-0.1-0.1
	s-0.1,0-0.2,0c-0.1,0-0.1,0-0.2,0c-0.1,0-0.1,0.1-0.1,0.1c0,0-0.1,0.1-0.1,0.1c0,0.1,0,0.1,0,0.2c0,0.1,0,0.1,0,0.2
	c0,0.1,0.1,0.1,0.1,0.2l2.6,2.9l-3.9,4.4l-6.4-7.2l3.9-4.4l0.9,1.1c0,0,0.1,0.1,0.1,0.1c0,0,0.1,0,0.2,0c0.1,0,0.1,0,0.2,0
	c0.1,0,0.1-0.1,0.1-0.1c0,0,0.1-0.1,0.1-0.1c0-0.1,0-0.1,0-0.2c0-0.1,0-0.1,0-0.2c0-0.1-0.1-0.1-0.1-0.2l-1.2-1.4
	C24,0.1,24,0,23.9,0C23.8,0,23.8,0,23.7,0L23.7,0z M19.3,6.2l6.4,7.2L7.2,34.1H0.8v-7.2L19.3,6.2L19.3,6.2z"/>
</svg>
