<svg id="Calque_1" data-name="Calque 1" xmlns="http://www.w3.org/2000/svg" xmlns:xlink="http://www.w3.org/1999/xlink" viewBox="0 0 104.75 104.88"><defs><style>.cls-1,.cls-8,.cls-9{fill:none;}.cls-1,.cls-2{clip-rule:evenodd;}.cls-2,.cls-5,.cls-7{fill:#00aced;}.cls-2,.cls-8,.cls-9{stroke:#00aced;stroke-miterlimit:10;stroke-width:0.5px;}.cls-3{clip-path:url(#clip-path);}.cls-4{clip-path:url(#clip-path-2);}.cls-5,.cls-9{fill-rule:evenodd;}.cls-6{clip-path:url(#clip-path-3);}</style><clipPath id="clip-path"><path class="cls-1" d="M-179.63,32.44a20,20,0,0,0-20,20,20,20,0,0,0,20,20,20,20,0,0,0,20-20,20,20,0,0,0-20-20m0,36.9a17,17,0,0,1-16.89-16.92,17,17,0,0,1,16.9-16.88,17,17,0,0,1,16.91,16.91,17,17,0,0,1-16.92,16.89"/></clipPath><clipPath id="clip-path-2"><path class="cls-1" d="M-168.66,45.74A1.37,1.37,0,0,0-170,44.36h-4.11a4.87,4.87,0,0,0-.66,0,6.15,6.15,0,0,0-4.83,2.36,6.12,6.12,0,0,0-4.83-2.36,4.82,4.82,0,0,0-.65,0h-4.11a1.37,1.37,0,0,0-1.37,1.38v4.15c0,.23,0,.45,0,.67a6.21,6.21,0,0,0,6.17,6.24A6.09,6.09,0,0,0-181,55.74v8.2a1.37,1.37,0,0,0,1.36,1.38,1.37,1.37,0,0,0,1.37-1.38V55.71a6.06,6.06,0,0,0,3.48,1.09,6.21,6.21,0,0,0,6.17-6.24c0-.22,0-.44,0-.67Zm-15.8,8.3a3.46,3.46,0,0,1-3.43-3.2,1.33,1.33,0,0,0,0-.28V47.12h3.4a1.27,1.27,0,0,0,.28,0A3.47,3.47,0,0,1-181,50.56,3.47,3.47,0,0,1-184.46,54Zm9.66,0a3.47,3.47,0,0,1-3.44-3.48,3.47,3.47,0,0,1,3.17-3.47l.27,0h3.41v3.44a1.33,1.33,0,0,0,0,.28A3.46,3.46,0,0,1-174.8,54Z"/></clipPath><clipPath id="clip-path-3"><path class="cls-2" d="M-302.65,80.62h-14.11a1.29,1.29,0,0,1-1.08-.61,1.41,1.41,0,0,1-.12-1.28l14.11-35.92A1.27,1.27,0,0,1-302.4,42a1.34,1.34,0,0,1,1,1.34V79.25A1.33,1.33,0,0,1-302.65,80.62Zm-12.16-2.74h10.86V50.23Z"/></clipPath></defs><title>Plan de travail 19 copie 4</title><path class="cls-5" d="M-302.65,80.62h-14.11a1.29,1.29,0,0,1-1.08-.61,1.41,1.41,0,0,1-.12-1.28l14.11-35.92A1.27,1.27,0,0,1-302.4,42a1.34,1.34,0,0,1,1,1.34V79.25A1.33,1.33,0,0,1-302.65,80.62Zm-12.16-2.74h10.86V50.23Z"/><g class="cls-6"><rect class="cls-7" x="-898.93" y="-1105.15" width="1504.41" height="2769.58"/><rect class="cls-8" x="-898.93" y="-1105.15" width="1504.41" height="2769.58"/></g><path class="cls-9" d="M-302.65,80.62h-14.11a1.29,1.29,0,0,1-1.08-.61,1.41,1.41,0,0,1-.12-1.28l14.11-35.92A1.27,1.27,0,0,1-302.4,42a1.34,1.34,0,0,1,1,1.34V79.25A1.33,1.33,0,0,1-302.65,80.62Zm-12.16-2.74h10.86V50.23Z"/><path class="cls-7" d="M85.55,78.45H72.73l5-20.26,0-.2a1.46,1.46,0,0,0-.65-1.4L69,52V39.5a1.38,1.38,0,0,0-1.4-1.41H64V31.65a1.38,1.38,0,0,0-1.41-1.4H53.78v-5.1a1.37,1.37,0,0,0-1.4-1.4A1.45,1.45,0,0,0,51,25.15v5.1h-8.8a1.37,1.37,0,0,0-1.4,1.4v6.44H37.13a1.38,1.38,0,0,0-1.4,1.41V52l-8,4.45A1.33,1.33,0,0,0,27,58.08l5,20.25H19.2a1.4,1.4,0,0,0,0,2.8H85.55a1.37,1.37,0,0,0,1.4-1.4A1.27,1.27,0,0,0,85.55,78.45Zm-42-40.36v-5H61.29v5ZM34.87,78.33,29.92,58.52,51,46.76V78.33Zm17-35.3L38.42,50.5V40.9h27.8v9.6L52.82,43Zm2,35.42V46.76l21,11.76-5,19.93Z"/></svg>