<svg id="Calque_1" data-name="Calque 1" xmlns="http://www.w3.org/2000/svg" xmlns:xlink="http://www.w3.org/1999/xlink" viewBox="0 0 104.75 104.88"><defs><style>.cls-1,.cls-8,.cls-9{fill:none;}.cls-1,.cls-2{clip-rule:evenodd;}.cls-2,.cls-5,.cls-7{fill:#00aced;}.cls-2,.cls-8,.cls-9{stroke:#00aced;stroke-miterlimit:10;stroke-width:0.5px;}.cls-3{clip-path:url(#clip-path);}.cls-4{clip-path:url(#clip-path-2);}.cls-5,.cls-9{fill-rule:evenodd;}.cls-6{clip-path:url(#clip-path-3);}.cls-10{fill:#00afea;}</style><clipPath id="clip-path"><path class="cls-1" d="M-412,32.44a20,20,0,0,0-20,20,20,20,0,0,0,20,20,20,20,0,0,0,20-20,20,20,0,0,0-20-20m0,36.9a17,17,0,0,1-16.89-16.92A17,17,0,0,1-412,35.54a17,17,0,0,1,16.9,16.91A16.94,16.94,0,0,1-412,69.34"/></clipPath><clipPath id="clip-path-2"><path class="cls-1" d="M-401,45.74a1.37,1.37,0,0,0-1.36-1.38h-4.11a4.87,4.87,0,0,0-.66,0A6.13,6.13,0,0,0-412,46.68a6.12,6.12,0,0,0-4.83-2.36,5.07,5.07,0,0,0-.66,0h-4.11a1.37,1.37,0,0,0-1.36,1.38v4.15c0,.23,0,.45,0,.67a6.21,6.21,0,0,0,6.17,6.24,6.12,6.12,0,0,0,3.45-1.06v8.2A1.37,1.37,0,0,0-412,65.32a1.38,1.38,0,0,0,1.37-1.38V55.71a6.06,6.06,0,0,0,3.48,1.09A6.21,6.21,0,0,0-401,50.56a5.12,5.12,0,0,0,0-.67ZM-416.79,54a3.46,3.46,0,0,1-3.43-3.2,1.33,1.33,0,0,0,0-.28V47.12h3.4a1.27,1.27,0,0,0,.28,0,3.46,3.46,0,0,1,3.16,3.47A3.46,3.46,0,0,1-416.79,54Zm9.66,0a3.46,3.46,0,0,1-3.44-3.48,3.47,3.47,0,0,1,3.17-3.47,1.24,1.24,0,0,0,.27,0h3.41v3.44a1.32,1.32,0,0,0,0,.28A3.46,3.46,0,0,1-407.13,54Z"/></clipPath><clipPath id="clip-path-3"><path class="cls-2" d="M-535,80.62h-14.11a1.28,1.28,0,0,1-1.08-.61,1.42,1.42,0,0,1-.13-1.28l14.11-35.92a1.29,1.29,0,0,1,1.46-.82,1.34,1.34,0,0,1,1.05,1.34V79.25A1.33,1.33,0,0,1-535,80.62Zm-12.17-2.74h10.87V50.23Z"/></clipPath></defs><title>Plan de travail 19 copie 6</title><path class="cls-5" d="M-535,80.62h-14.11a1.28,1.28,0,0,1-1.08-.61,1.42,1.42,0,0,1-.13-1.28l14.11-35.92a1.29,1.29,0,0,1,1.46-.82,1.34,1.34,0,0,1,1.05,1.34V79.25A1.33,1.33,0,0,1-535,80.62Zm-12.17-2.74h10.87V50.23Z"/><g class="cls-6"><rect class="cls-7" x="-1131.26" y="-1105.15" width="1504.41" height="2769.58"/><rect class="cls-8" x="-1131.26" y="-1105.15" width="1504.41" height="2769.58"/></g><path class="cls-9" d="M-535,80.62h-14.11a1.28,1.28,0,0,1-1.08-.61,1.42,1.42,0,0,1-.13-1.28l14.11-35.92a1.29,1.29,0,0,1,1.46-.82,1.34,1.34,0,0,1,1.05,1.34V79.25A1.33,1.33,0,0,1-535,80.62Zm-12.17-2.74h10.87V50.23Z"/><path class="cls-10" d="M81.48,48.65H73.94a20.3,20.3,0,0,0-3.62-8.36l5.29-5.06a3.64,3.64,0,0,0,0-5.31,4,4,0,0,0-5.46,0L64.91,35a23.13,23.13,0,0,0-8.79-3.5v-7.1a3.84,3.84,0,0,0-7.67,0V31.6a23.11,23.11,0,0,0-8.77,3.5l-5.26-5.18a4,4,0,0,0-5.45,0,3.64,3.64,0,0,0,0,5.32l5.31,5.08a20.91,20.91,0,0,0-3.63,8.35H23.1a3.75,3.75,0,1,0,0,7.5h7.54a20.23,20.23,0,0,0,3.62,8.36l-5.29,5a3.65,3.65,0,0,0,0,5.32,3.94,3.94,0,0,0,5.45,0l5.35-5.11a22.82,22.82,0,0,0,8.79,3.5v7.19a3.84,3.84,0,0,0,7.67,0V73.28A23,23,0,0,0,65,69.77l5.34,5.11a4,4,0,0,0,5.45,0,3.65,3.65,0,0,0,0-5.33L70.48,64.5a20.91,20.91,0,0,0,3.63-8.35h7.54a3.8,3.8,0,0,0,3.84-3.75A3.94,3.94,0,0,0,81.48,48.65ZM71.39,55a18.93,18.93,0,0,1-3.62,8.47l0,.08a1.88,1.88,0,0,0,.22,2.32l5.83,5.56a1.11,1.11,0,0,1,0,1.58,1.25,1.25,0,0,1-.88.36A1.07,1.07,0,0,1,72,73l-5.83-5.57a1.79,1.79,0,0,0-1.27-.5,2.4,2.4,0,0,0-1,.26l-.12.07A20,20,0,0,1,55,70.81a1.84,1.84,0,0,0-1.56,1.76v7.9a1.14,1.14,0,0,1-1.14,1.06,1.1,1.1,0,0,1-1.15-1.06v-7.9a1.77,1.77,0,0,0-1.58-1.76A18.85,18.85,0,0,1,40.8,67.3a1.64,1.64,0,0,0-1.13-.36,1.8,1.8,0,0,0-1.26.48L32.56,73a1.25,1.25,0,0,1-.88.36,1.19,1.19,0,0,1-.87-.36,1.12,1.12,0,0,1-.34-.79,1.07,1.07,0,0,1,.33-.77l5.85-5.6a1.76,1.76,0,0,0,.15-2.39A17.17,17.17,0,0,1,33.19,55a1.84,1.84,0,0,0-1.85-1.55H23.1A1.1,1.1,0,0,1,22,52.4a1.15,1.15,0,0,1,1.15-1.06h8.24a1.84,1.84,0,0,0,1.85-1.56,18.81,18.81,0,0,1,3.62-8.47l0-.08a1.85,1.85,0,0,0-.23-2.31l-5.82-5.57a1.08,1.08,0,0,1,0-1.57,1.24,1.24,0,0,1,.87-.36,1.2,1.2,0,0,1,.89.37l5.82,5.57a1.82,1.82,0,0,0,1.28.5,2.48,2.48,0,0,0,1-.26l.12-.08A20.26,20.26,0,0,1,49.59,34a1.82,1.82,0,0,0,1.55-1.76V24.41a1.15,1.15,0,0,1,2.29,0v7.9A1.78,1.78,0,0,0,55,34.07a18.85,18.85,0,0,1,8.76,3.51,1.63,1.63,0,0,0,1.13.36,1.82,1.82,0,0,0,1.26-.48L72,31.86a1.29,1.29,0,0,1,.87-.35,1.1,1.1,0,0,1,.88.35,1.25,1.25,0,0,1,.36.79.93.93,0,0,1-.34.77l-5.86,5.51a1.75,1.75,0,0,0-.15,2.39,17.25,17.25,0,0,1,3.61,8.47,1.84,1.84,0,0,0,1.85,1.55h8.24a1.06,1.06,0,1,1,0,2.12H73.24A1.84,1.84,0,0,0,71.39,55Z"/><path class="cls-10" d="M52.37,36.66c-9,0-16.34,7.08-16.34,15.78s7.33,15.78,16.34,15.78,16.35-7.08,16.35-15.78S61.39,36.66,52.37,36.66Zm0,2.57c7.64,0,13.85,5.93,13.85,13.21S60,65.65,52.37,65.65,38.53,59.72,38.53,52.44,44.74,39.23,52.37,39.23Z"/><path class="cls-10" d="M61.7,50.84H56.47l3.68-3.46-.46-.5h0l.48.48a1.62,1.62,0,0,0,0-2.3l-.48.48,0,0,.41-.54a1.67,1.67,0,0,0-2.3.06l-3.7,3.55V43.53a1.66,1.66,0,0,0-3.31,0v5L47,45,47,44.93a1.68,1.68,0,0,0-2.32.07,1.63,1.63,0,0,0,0,2.32l3.78,3.62H43.05a1.61,1.61,0,1,0,0,3.21h5.21l-3.73,3.42a1.63,1.63,0,0,0,0,2.31l.09.07a1.68,1.68,0,0,0,2.3-.06l3.75-3.59v5.05a1.66,1.66,0,0,0,3.31,0V56.3l3.74,3.59.08.07a1.69,1.69,0,0,0,2.32-.08,1.65,1.65,0,0,0,0-2.32L56.44,54H61.7a1.6,1.6,0,1,0,0-3.2Z"/></svg>