<svg id="Calque_1" data-name="Calque 1" xmlns="http://www.w3.org/2000/svg" xmlns:xlink="http://www.w3.org/1999/xlink" viewBox="0 0 104.75 104.88"><defs><style>.cls-1,.cls-8,.cls-9{fill:none;}.cls-1,.cls-2{clip-rule:evenodd;}.cls-2,.cls-5,.cls-7{fill:#00aced;}.cls-2,.cls-8,.cls-9{stroke:#00aced;stroke-miterlimit:10;stroke-width:0.5px;}.cls-3{clip-path:url(#clip-path);}.cls-4{clip-path:url(#clip-path-2);}.cls-5,.cls-9{fill-rule:evenodd;}.cls-6{clip-path:url(#clip-path-3);}</style><clipPath id="clip-path"><path class="cls-1" d="M-63,32.44a20,20,0,0,0-20,20,20,20,0,0,0,20,20,20,20,0,0,0,20-20,20,20,0,0,0-20-20m0,36.9A17,17,0,0,1-79.86,52.42,17,17,0,0,1-63,35.54a17,17,0,0,1,16.9,16.91A16.94,16.94,0,0,1-63,69.34"/></clipPath><clipPath id="clip-path-2"><path class="cls-1" d="M-52,45.74a1.37,1.37,0,0,0-1.36-1.38h-4.11a4.87,4.87,0,0,0-.66,0A6.13,6.13,0,0,0-63,46.68a6.12,6.12,0,0,0-4.83-2.36,5.07,5.07,0,0,0-.66,0h-4.11a1.37,1.37,0,0,0-1.36,1.38v4.15c0,.23,0,.45,0,.67a6.21,6.21,0,0,0,6.17,6.24,6.12,6.12,0,0,0,3.45-1.06v8.2A1.37,1.37,0,0,0-63,65.32a1.38,1.38,0,0,0,1.37-1.38V55.71a6.06,6.06,0,0,0,3.48,1.09A6.21,6.21,0,0,0-52,50.56a5.12,5.12,0,0,0,0-.67ZM-67.79,54a3.46,3.46,0,0,1-3.43-3.2,1.33,1.33,0,0,0,0-.28V47.12h3.4a1.27,1.27,0,0,0,.28,0,3.46,3.46,0,0,1,3.16,3.47A3.46,3.46,0,0,1-67.79,54Zm9.66,0a3.46,3.46,0,0,1-3.44-3.48,3.47,3.47,0,0,1,3.17-3.47l.27,0h3.41v3.44a1.32,1.32,0,0,0,0,.28A3.46,3.46,0,0,1-58.13,54Z"/></clipPath><clipPath id="clip-path-3"><path class="cls-2" d="M-186,80.62h-14.11a1.28,1.28,0,0,1-1.08-.61,1.42,1.42,0,0,1-.13-1.28l14.11-35.92a1.29,1.29,0,0,1,1.46-.82,1.34,1.34,0,0,1,1,1.34V79.25A1.33,1.33,0,0,1-186,80.62Zm-12.17-2.74h10.87V50.23Z"/></clipPath></defs><title>Plan de travail 19 copie 3</title><path class="cls-5" d="M-186,80.62h-14.11a1.28,1.28,0,0,1-1.08-.61,1.42,1.42,0,0,1-.13-1.28l14.11-35.92a1.29,1.29,0,0,1,1.46-.82,1.34,1.34,0,0,1,1,1.34V79.25A1.33,1.33,0,0,1-186,80.62Zm-12.17-2.74h10.87V50.23Z"/><g class="cls-6"><rect class="cls-7" x="-782.26" y="-1105.15" width="1504.41" height="2769.58"/><rect class="cls-8" x="-782.26" y="-1105.15" width="1504.41" height="2769.58"/></g><path class="cls-9" d="M-186,80.62h-14.11a1.28,1.28,0,0,1-1.08-.61,1.42,1.42,0,0,1-.13-1.28l14.11-35.92a1.29,1.29,0,0,1,1.46-.82,1.34,1.34,0,0,1,1,1.34V79.25A1.33,1.33,0,0,1-186,80.62Zm-12.17-2.74h10.87V50.23Z"/><path class="cls-7" d="M72.59,74.83a2.07,2.07,0,0,0,1.3-.37l3.88-3.86a1.38,1.38,0,0,0,.41-1,1.28,1.28,0,0,0-.35-.92l-3.22-4a24.2,24.2,0,0,0,3.93-9.31l5.1-.48a1.44,1.44,0,0,0,1.4-1.4V48.21a1.35,1.35,0,0,0-1.33-1.4h0l-5.15-.41a23.6,23.6,0,0,0-3.94-9.29l3.31-4L78,33a1.76,1.76,0,0,0,0-1.49l-4-4a1.42,1.42,0,0,0-1-.42,1.28,1.28,0,0,0-.9.35l-4,3.25a26.36,26.36,0,0,0-9.5-3.87L58,21.88a1.44,1.44,0,0,0-1.4-1.4H51.14a1.38,1.38,0,0,0-1,.41,1.23,1.23,0,0,0-.38.9l-.49,5.07a24.92,24.92,0,0,0-9.49,3.88L35.6,27.47l-.14-.08a1.69,1.69,0,0,0-1.49,0l-4,3.95a1.37,1.37,0,0,0-.41,1,1.31,1.31,0,0,0,.35.92l3.3,4a23,23,0,0,0-3.84,9.29l-5.18.4a1.44,1.44,0,0,0-1.4,1.41v5.34A1.35,1.35,0,0,0,24.08,55h0l5.16.48a24.38,24.38,0,0,0,3.87,9.31L29.86,68.9l-.09.15a1.74,1.74,0,0,0,0,1.48l3.95,4a1.45,1.45,0,0,0,1,.42,1.21,1.21,0,0,0,.88-.35l4.06-3.25a26.12,26.12,0,0,0,9.49,3.86l.48,5a1.44,1.44,0,0,0,1.4,1.4h5.53a1.38,1.38,0,0,0,1-.41,1.28,1.28,0,0,0,.39-.9l.48-5.07A24.92,24.92,0,0,0,68,71.38l4.31,3.45ZM36.14,65.74l.11-.18a1.56,1.56,0,0,0,0-1.41L36.16,64a21.71,21.71,0,0,1-4.23-9.91,1.34,1.34,0,0,0-1.31-1.23h0l-4.94-.47V49.62l4.85-.47a1.53,1.53,0,0,0,1.32-.92l.08-.26a21,21,0,0,1,4.24-10l.09-.14a1.56,1.56,0,0,0,0-1.44L33,32.53l2-1.94,3.88,3.09.14.09a1.55,1.55,0,0,0,1.42,0l.12-.07a22.65,22.65,0,0,1,10.1-4.15,1.33,1.33,0,0,0,1.23-1.31l.47-4.85h2.89l.46,4.76a1.53,1.53,0,0,0,.94,1.32l.26.08a21.3,21.3,0,0,1,10.15,4.15l.13.08a1.53,1.53,0,0,0,1.44,0l4-3.15,2,1.94L71.48,36.3l-.1.16a1.55,1.55,0,0,0,0,1.42l.08.13a21.71,21.71,0,0,1,4.23,9.91A1.3,1.3,0,0,0,77,49.15H77l4.95.47V52.4l-4.67.39a1.52,1.52,0,0,0-1.32.93l-.08.24a21,21,0,0,1-4.24,10l-.08.14a1.5,1.5,0,0,0,0,1.44l3.21,3.88-2,1.95-3.89-3.1-.14-.08a1.43,1.43,0,0,0-1.11-.09,1.13,1.13,0,0,0-.52.34,23,23,0,0,1-10,4.07,1.34,1.34,0,0,0-1.23,1.29l-.54,4.78H52.46L52,73.8a1.52,1.52,0,0,0-.93-1.32l-.25-.08a22.55,22.55,0,0,1-10.17-4.15l-.13-.08a1.56,1.56,0,0,0-1.44,0L35,71.44,33,69.5Z"/><path class="cls-7" d="M38.26,79.94H24.1V66.16a1.4,1.4,0,1,0-2.8,0V81.34a1.37,1.37,0,0,0,1.4,1.41H38.26a1.41,1.41,0,0,0,0-2.81Z"/><path class="cls-7" d="M69.37,21.9H83.52V35.69a1.41,1.41,0,0,0,2.81,0V20.5a1.37,1.37,0,0,0-1.4-1.4H69.37A1.37,1.37,0,0,0,68,20.5,1.44,1.44,0,0,0,69.37,21.9Z"/><path class="cls-7" d="M85,82.77a1.31,1.31,0,0,0,.78-.26,1.46,1.46,0,0,0,.6-1.17V66.16a1.4,1.4,0,1,0-2.8,0V79.94H69.37a1.41,1.41,0,0,0,0,2.81H84.8Z"/><path class="cls-7" d="M22.7,37.09a1.37,1.37,0,0,0,1.4-1.4V21.9H38.26a1.4,1.4,0,0,0,0-2.8H22.54l-.26.09a1.57,1.57,0,0,0-1,1.31V35.69A1.37,1.37,0,0,0,22.7,37.09Z"/><path class="cls-7" d="M91.65,53a1.38,1.38,0,0,0-1.41,1.4v7.09a1.41,1.41,0,1,0,2.81,0v-7A1.45,1.45,0,0,0,91.65,53Z"/><path class="cls-7" d="M91.65,64.37a1.38,1.38,0,0,0-1.41,1.41v2.3a1.41,1.41,0,0,0,2.81,0v-2.3A1.44,1.44,0,0,0,91.65,64.37Z"/><path class="cls-7" d="M15.52,49.43A1.38,1.38,0,0,0,16.92,48V40.93a1.4,1.4,0,0,0-2.8,0V48A1.38,1.38,0,0,0,15.52,49.43Z"/><path class="cls-7" d="M15.52,56a1.37,1.37,0,0,0,1.4-1.4V52.24a1.4,1.4,0,0,0-2.8,0v2.31A1.37,1.37,0,0,0,15.52,56Z"/><path class="cls-7" d="M32.37,85.1a3.25,3.25,0,1,0,0,6.49,3.24,3.24,0,0,0,2.31-1,3.13,3.13,0,0,0,.93-2.23,3,3,0,0,0-.82-2.24A3.31,3.31,0,0,0,32.37,85.1Zm.43,3.24a.45.45,0,0,1-.87,0c0-.28.24-.34.44-.34S32.8,88.13,32.8,88.34Z"/><path class="cls-7" d="M60.17,19.23A3.25,3.25,0,1,0,56.92,16,3.21,3.21,0,0,0,60.17,19.23Zm-.45-3.36a.1.1,0,0,1,0-.09.6.6,0,0,1,.42-.14.4.4,0,0,1,.43.35c0,.28-.23.34-.43.34a.43.43,0,0,1-.45-.44Z"/><path class="cls-7" d="M86.24,86.87a1.38,1.38,0,0,0-1.4-1.41H76.09a1.41,1.41,0,0,0,0,2.81h8.75A1.37,1.37,0,0,0,86.24,86.87Z"/><path class="cls-7" d="M91.46,85.46H88.61a1.41,1.41,0,0,0,0,2.81h2.85a1.38,1.38,0,0,0,1.41-1.4A1.45,1.45,0,0,0,91.46,85.46Z"/><path class="cls-7" d="M91.46,89.33H85.39a1.41,1.41,0,1,0,0,2.81h6.07a1.38,1.38,0,0,0,1.41-1.4A1.45,1.45,0,0,0,91.46,89.33Z"/><path class="cls-7" d="M81.8,89.33H79.87a1.41,1.41,0,1,0,0,2.81H81.8a1.41,1.41,0,0,0,0-2.81Z"/><path class="cls-7" d="M42.4,58.33l10.84,6.09a1.14,1.14,0,0,0,.85.29,1.2,1.2,0,0,0,.8-.25l10.92-6.15.19-.14a1.5,1.5,0,0,0,.54-1V44.22L66,44l-11.3-6.47a1.38,1.38,0,0,0-1.51,0l-11,6.17-.25.22a1.09,1.09,0,0,0-.37.85V57.14A1.27,1.27,0,0,0,42.4,58.33Zm3.41-13.62,8.1-4.54L62,44.71l-8.1,4.53Zm9.5,16.17V51.8l8.15-4.56v9.15Zm-11-4.48.07-9.16,8.07,4.56V61Z"/><path class="cls-7" d="M53.9,70.13A19.21,19.21,0,1,0,34.3,51,19.37,19.37,0,0,0,53.9,70.13ZM37,51A16.93,16.93,0,1,1,53.9,67.45,16.77,16.77,0,0,1,37,51Z"/><path class="cls-7" d="M61.77,85.11a1.48,1.48,0,0,0-2.52-1L58,85.37l-1.3-1.3a1.47,1.47,0,0,0-1-.43h0a1.48,1.48,0,0,0-1,2.52l1.3,1.3-1.3,1.3a1.48,1.48,0,0,0,2.09,2.09l1.3-1.3,1.3,1.3a1.48,1.48,0,0,0,2.09,0,1.49,1.49,0,0,0,0-2.09L60,87.46l1.3-1.3A1.47,1.47,0,0,0,61.77,85.11Z"/><path class="cls-7" d="M19.34,72.12a1.44,1.44,0,0,0-.43-1,1.47,1.47,0,0,0-1-.44h0a1.48,1.48,0,0,0-1.05.44l-1.3,1.3-1.3-1.3a1.48,1.48,0,0,0-1.05-.44h0a1.47,1.47,0,0,0-1,.44,1.44,1.44,0,0,0-.43,1,1.48,1.48,0,0,0,.43,1l1.3,1.3-1.3,1.3a1.48,1.48,0,0,0,2.09,2.09l1.3-1.31,1.3,1.31a1.48,1.48,0,1,0,2.09-2.09l-1.3-1.3,1.3-1.3A1.48,1.48,0,0,0,19.34,72.12Z"/></svg>