<?xml version="1.0" encoding="utf-8"?>
<!-- Generator: Adobe Illustrator 23.1.1, SVG Export Plug-In . SVG Version: 6.00 Build 0)  -->
<svg version="1.1" id="Calque_1" xmlns="http://www.w3.org/2000/svg" xmlns:xlink="http://www.w3.org/1999/xlink" x="0px" y="0px"
	 viewBox="0 0 25 24" style="enable-background:new 0 0 25 24;" xml:space="preserve">
<style type="text/css">
	.st0{fill:#00AFEA;}
</style>
<path class="st0" d="M16.4,8c1.6,0,3.1,0.6,4.2,1.8c1.1,1.1,1.8,2.7,1.8,4.2v7h-4v-7c0-0.5-0.2-1-0.6-1.4C17.5,12.2,17,12,16.4,12
	c-0.5,0-1,0.2-1.4,0.6c-0.4,0.4-0.6,0.9-0.6,1.4v7h-4v-7c0-1.6,0.6-3.1,1.8-4.2C13.3,8.6,14.8,8,16.4,8z"/>
<path class="st0" d="M6.4,9h-4v12h4V9z"/>
<path class="st0" d="M4.4,6c1.1,0,2-0.9,2-2s-0.9-2-2-2s-2,0.9-2,2S3.3,6,4.4,6z"/>
</svg>
