<?xml version="1.0" encoding="utf-8"?>
<!-- Generator: Adobe Illustrator 23.1.1, SVG Export Plug-In . SVG Version: 6.00 Build 0)  -->
<svg version="1.1" id="Calque_1" xmlns="http://www.w3.org/2000/svg" xmlns:xlink="http://www.w3.org/1999/xlink" x="0px" y="0px"
	 viewBox="0 0 61 51" style="enable-background:new 0 0 61 51;" xml:space="preserve">
<style type="text/css">
	.st0{fill:#00AFEA;}
</style>
<path class="st0" d="M57,0.8C51.7,1,46.5,3.5,42.9,8.2c-4.1,5.4-5.3,12.3-3.7,18.5c-1.9,4.4-3.2,8.8-3.3,12.6
	c-0.4,0.1-1.7,0.6-1.7,0.6l-11.5-2.8c0.7-0.3,1.6-0.5,2.5-0.7c1.9-0.4,4.2-0.6,6.5-0.6c1.9,0,3.4-1.5,3.4-3.3c0-1.8-1.5-3.3-3.4-3.3
	h-12c-2.9,0-4.6,0.9-5.8,1.7c-1,0.7-1.7,1.3-2.7,1.5v-4.1c0-0.2-0.1-0.4-0.3-0.6c-0.2-0.2-0.4-0.2-0.6-0.2H1.6c-0.1,0-0.1,0-0.2,0
	c-0.2,0-0.4,0.1-0.5,0.3c-0.1,0.2-0.2,0.3-0.2,0.5V50c0,0.2,0.1,0.4,0.3,0.6c0.2,0.2,0.4,0.2,0.6,0.2h8.6c0.2,0,0.4-0.1,0.6-0.2
	c0.2-0.2,0.3-0.4,0.3-0.6v-4.1c1,0.2,1.7,0.8,2.7,1.5c1.2,0.8,2.9,1.7,5.8,1.7H35c0.1,0,0.2,0,0.3-0.1l16.5-6.4c0.1,0,0.1,0,0.2-0.1
	c1.2-0.7,1.9-2,1.9-3.5c0-2.3-1.9-4.2-4.3-4.2c-0.5,0-0.9,0.1-1.4,0.2c-0.1,0-1,0.4-2.3,0.8s-3.1,1-4.9,1.6
	c-1.7,0.6-2.1,0.7-3.4,1.1c0.2-3.3,1.4-7.3,3.1-11.3c5.8,0.2,11.7-2.3,15.6-7.4c4.1-5.4,5.3-12.3,3.7-18.5c0-0.2-0.1-0.3-0.3-0.4
	s-0.3-0.2-0.5-0.2C58.5,0.8,57.8,0.8,57,0.8z M57.5,2.5c0.3,0,0.7,0,1,0C59.7,8.2,58.7,14.3,55,19c-3.5,4.5-8.4,6.7-13.5,6.7
	c0.6-1.2,1.2-2.4,1.8-3.6c3.4-6,7.9-11.4,11.9-14c0.2-0.1,0.3-0.2,0.3-0.4c0.1-0.2,0.1-0.4,0-0.5c-0.1-0.2-0.2-0.3-0.3-0.4
	c-0.2-0.1-0.3-0.2-0.5-0.2c-0.2,0-0.3,0.1-0.5,0.2c-4.4,2.8-8.9,8.4-12.4,14.6c-0.5,0.9-1,1.8-1.4,2.7c-0.7-5.1,0.5-10.6,3.8-14.8
	C47.7,4.8,52.5,2.6,57.5,2.5z M2.5,29.1h6.9v20H2.5V29.1z M19.6,30.8h12c1,0,1.7,0.7,1.7,1.7c0,0.9-0.8,1.7-1.7,1.7
	c-2.4,0-4.8,0.2-6.9,0.7c-2.1,0.4-3.8,1-4.9,2.1c-0.1,0.1-0.2,0.2-0.2,0.4c0,0.1,0,0.3,0,0.4c0,0.1,0.1,0.3,0.2,0.4
	c0.1,0.1,0.2,0.2,0.4,0.2L34,41.6c0.2,0,0.3,0,0.5,0c0,0,3.5-1.2,7.1-2.4c1.8-0.6,3.6-1.2,4.9-1.6s2.3-0.8,2.3-0.8
	c0.3-0.1,0.5-0.1,0.8-0.1c1.4,0,2.6,1.1,2.6,2.5c0,0.9-0.5,1.6-1.1,2l-16.2,6.3H19.6c-2.6,0-3.7-0.7-4.9-1.5c-1-0.7-2.1-1.5-3.7-1.8
	V34c1.6-0.3,2.7-1.1,3.7-1.8C15.9,31.5,17,30.8,19.6,30.8z"/>
</svg>
