<?xml version="1.0" encoding="utf-8"?>
<!-- Generator: Adobe Illustrator 23.1.1, SVG Export Plug-In . SVG Version: 6.00 Build 0)  -->
<svg version="1.1" id="Calque_1" xmlns="http://www.w3.org/2000/svg" xmlns:xlink="http://www.w3.org/1999/xlink" x="0px" y="0px"
	 viewBox="0 0 75 90" style="enable-background:new 0 0 75 90;" xml:space="preserve">
<style type="text/css">
	.st0{fill:#FFFFFF;filter:url(#Adobe_OpacityMaskFilter);}
	.st1{mask:url(#path-1-inside-1_1_);fill:none;stroke:#00AFEA;}
	.st2{fill:none;stroke:#00AFEA;stroke-width:0.5;}
</style>
<defs>
	<filter id="Adobe_OpacityMaskFilter" filterUnits="userSpaceOnUse" x="-0.5" y="-0.5" width="76" height="73">
		<feColorMatrix  type="matrix" values="1 0 0 0 0  0 1 0 0 0  0 0 1 0 0  0 0 0 1 0"/>
	</filter>
</defs>
<mask maskUnits="userSpaceOnUse" x="-0.5" y="-0.5" width="76" height="73" id="path-1-inside-1_1_">
	<path class="st0" d="M71.5,32.6h-9.6c-0.6-4-2.2-7.7-4.7-10.8l6.8-6.5c1.4-1.3,1.4-3.5,0-4.8c-0.7-0.7-1.6-1-2.5-1
		c-0.9,0-1.8,0.3-2.5,1L52.3,17c-3.2-2.3-7.1-3.9-11.3-4.5V3.4C41,1.5,39.4,0,37.5,0S34,1.5,34,3.4v9.2c-4.2,0.6-8,2.2-11.3,4.5
		L16,10.5c-0.7-0.7-1.6-1-2.5-1s-1.8,0.3-2.5,1c-1.4,1.3-1.4,3.5,0,4.8l6.8,6.5c-2.4,3.1-4.1,6.8-4.7,10.8H3.5C1.6,32.6,0,34.1,0,36
		s1.6,3.4,3.5,3.4h9.6c0.6,4,2.2,7.7,4.7,10.8L11,56.7c-1.4,1.3-1.4,3.5,0,4.8c0.7,0.7,1.6,1,2.5,1c0.9,0,1.8-0.3,2.5-1l6.8-6.5
		c3.2,2.3,7.1,3.9,11.3,4.5v9.2c0,1.9,1.6,3.4,3.5,3.4s3.5-1.5,3.5-3.4v-9.2c4.2-0.6,8-2.2,11.3-4.5l6.8,6.5c0.7,0.7,1.6,1,2.5,1
		s1.8-0.3,2.5-1c1.4-1.3,1.4-3.5,0-4.8l-6.8-6.5c2.4-3.1,4.1-6.8,4.7-10.8h9.6c1.9,0,3.5-1.5,3.5-3.4S73.4,32.6,71.5,32.6z
		 M71.5,38.2h-9.6c-0.6,0-1.1,0.4-1.2,1c-0.6,3.7-2.1,7.3-4.4,10.3C56,50,56,50.6,56.4,51l6.8,6.5c0.9,0.9,0.9,2.3,0,3.2
		c-0.4,0.4-1,0.7-1.7,0.7s-1.2-0.2-1.7-0.7l-6.8-6.5c-0.2-0.2-0.5-0.3-0.8-0.3c-0.2,0-0.5,0.1-0.7,0.2c-3.1,2.3-6.9,3.7-10.7,4.3
		c-0.6,0.1-1,0.6-1,1.1v9.2c0,1.2-1.1,2.2-2.3,2.2c-1.3,0-2.3-1-2.3-2.2v-9.2c0-0.6-0.4-1-1-1.1c-3.9-0.5-7.6-2-10.7-4.3
		c-0.2-0.2-0.5-0.2-0.7-0.2c-0.3,0-0.6,0.1-0.8,0.3l-6.8,6.5c-0.4,0.4-1,0.7-1.7,0.7c-0.6,0-1.2-0.2-1.7-0.7c-0.9-0.9-0.9-2.3,0-3.2
		l6.8-6.5c0.4-0.4,0.5-1,0.1-1.5c-2.4-3-3.9-6.6-4.4-10.3c-0.1-0.6-0.6-1-1.2-1H3.5c-1.3,0-2.3-1-2.3-2.2c0-1.2,1.1-2.2,2.3-2.2h9.6
		c0.6,0,1.1-0.4,1.2-1c0.6-3.7,2.1-7.3,4.4-10.3C19,22,19,21.4,18.6,21l-6.8-6.5c-0.9-0.9-0.9-2.3,0-3.2c0.4-0.4,1-0.7,1.7-0.7
		c0.6,0,1.2,0.2,1.7,0.7l6.8,6.5c0.2,0.2,0.5,0.3,0.8,0.3c0.2,0,0.5-0.1,0.7-0.2c3.1-2.3,6.9-3.7,10.7-4.3c0.6-0.1,1-0.6,1-1.1V3.4
		c0-1.2,1.1-2.2,2.3-2.2s2.3,1,2.3,2.2v9.2c0,0.6,0.4,1,1,1.1c3.9,0.5,7.6,2,10.7,4.3c0.2,0.2,0.5,0.2,0.7,0.2
		c0.3,0,0.6-0.1,0.8-0.3l6.8-6.5c0.4-0.4,1-0.7,1.7-0.7s1.2,0.2,1.7,0.7c0.4,0.4,0.7,1,0.7,1.6c0,0.6-0.2,1.2-0.7,1.6L56.4,21
		c-0.4,0.4-0.5,1-0.1,1.5c2.4,3,3.9,6.6,4.4,10.3c0.1,0.6,0.6,1,1.2,1h9.6c1.3,0,2.3,1,2.3,2.2C73.8,37.2,72.8,38.2,71.5,38.2z"/>
</mask>
<path class="st1" d="M71.5,32.6h-9.6c-0.6-4-2.2-7.7-4.7-10.8l6.8-6.5c1.4-1.3,1.4-3.5,0-4.8c-0.7-0.7-1.6-1-2.5-1
	c-0.9,0-1.8,0.3-2.5,1L52.3,17c-3.2-2.3-7.1-3.9-11.3-4.5V3.4C41,1.5,39.4,0,37.5,0S34,1.5,34,3.4v9.2c-4.2,0.6-8,2.2-11.3,4.5
	L16,10.5c-0.7-0.7-1.6-1-2.5-1s-1.8,0.3-2.5,1c-1.4,1.3-1.4,3.5,0,4.8l6.8,6.5c-2.4,3.1-4.1,6.8-4.7,10.8H3.5C1.6,32.6,0,34.1,0,36
	s1.6,3.4,3.5,3.4h9.6c0.6,4,2.2,7.7,4.7,10.8L11,56.7c-1.4,1.3-1.4,3.5,0,4.8c0.7,0.7,1.6,1,2.5,1c0.9,0,1.8-0.3,2.5-1l6.8-6.5
	c3.2,2.3,7.1,3.9,11.3,4.5v9.2c0,1.9,1.6,3.4,3.5,3.4s3.5-1.5,3.5-3.4v-9.2c4.2-0.6,8-2.2,11.3-4.5l6.8,6.5c0.7,0.7,1.6,1,2.5,1
	s1.8-0.3,2.5-1c1.4-1.3,1.4-3.5,0-4.8l-6.8-6.5c2.4-3.1,4.1-6.8,4.7-10.8h9.6c1.9,0,3.5-1.5,3.5-3.4S73.4,32.6,71.5,32.6z
	 M71.5,38.2h-9.6c-0.6,0-1.1,0.4-1.2,1c-0.6,3.7-2.1,7.3-4.4,10.3C56,50,56,50.6,56.4,51l6.8,6.5c0.9,0.9,0.9,2.3,0,3.2
	c-0.4,0.4-1,0.7-1.7,0.7s-1.2-0.2-1.7-0.7l-6.8-6.5c-0.2-0.2-0.5-0.3-0.8-0.3c-0.2,0-0.5,0.1-0.7,0.2c-3.1,2.3-6.9,3.7-10.7,4.3
	c-0.6,0.1-1,0.6-1,1.1v9.2c0,1.2-1.1,2.2-2.3,2.2c-1.3,0-2.3-1-2.3-2.2v-9.2c0-0.6-0.4-1-1-1.1c-3.9-0.5-7.6-2-10.7-4.3
	c-0.2-0.2-0.5-0.2-0.7-0.2c-0.3,0-0.6,0.1-0.8,0.3l-6.8,6.5c-0.4,0.4-1,0.7-1.7,0.7c-0.6,0-1.2-0.2-1.7-0.7c-0.9-0.9-0.9-2.3,0-3.2
	l6.8-6.5c0.4-0.4,0.5-1,0.1-1.5c-2.4-3-3.9-6.6-4.4-10.3c-0.1-0.6-0.6-1-1.2-1H3.5c-1.3,0-2.3-1-2.3-2.2c0-1.2,1.1-2.2,2.3-2.2h9.6
	c0.6,0,1.1-0.4,1.2-1c0.6-3.7,2.1-7.3,4.4-10.3C19,22,19,21.4,18.6,21l-6.8-6.5c-0.9-0.9-0.9-2.3,0-3.2c0.4-0.4,1-0.7,1.7-0.7
	c0.6,0,1.2,0.2,1.7,0.7l6.8,6.5c0.2,0.2,0.5,0.3,0.8,0.3c0.2,0,0.5-0.1,0.7-0.2c3.1-2.3,6.9-3.7,10.7-4.3c0.6-0.1,1-0.6,1-1.1V3.4
	c0-1.2,1.1-2.2,2.3-2.2s2.3,1,2.3,2.2v9.2c0,0.6,0.4,1,1,1.1c3.9,0.5,7.6,2,10.7,4.3c0.2,0.2,0.5,0.2,0.7,0.2c0.3,0,0.6-0.1,0.8-0.3
	l6.8-6.5c0.4-0.4,1-0.7,1.7-0.7s1.2,0.2,1.7,0.7c0.4,0.4,0.7,1,0.7,1.6c0,0.6-0.2,1.2-0.7,1.6L56.4,21c-0.4,0.4-0.5,1-0.1,1.5
	c2.4,3,3.9,6.6,4.4,10.3c0.1,0.6,0.6,1,1.2,1h9.6c1.3,0,2.3,1,2.3,2.2C73.8,37.2,72.8,38.2,71.5,38.2z"/>
<path class="st2" d="M15.9,36c0-11.4,9.7-20.8,21.6-20.8S59.1,24.6,59.1,36c0,11.4-9.7,20.8-21.6,20.8S15.9,47.4,15.9,36z M16.5,36
	c0,11.1,9.4,20.1,21,20.1c11.6,0,21-9,21-20.1c0-11.1-9.4-20.1-21-20.1C25.9,15.9,16.5,24.9,16.5,36z"/>
<path class="st2" d="M39.1,31.7v0.6l0.4-0.4l9.6-9.2c0.3-0.3,0.7-0.5,1.2-0.5c0.4,0,0.8,0.2,1.2,0.5l0.2-0.2l-0.2,0.2
	c0.6,0.6,0.6,1.6,0,2.2l0.2,0.2l-0.2-0.2L41.8,34l-0.4,0.4H42h13.6c0.9,0,1.6,0.7,1.6,1.5c0,0.8-0.7,1.5-1.6,1.5H42h-0.6l0.4,0.4
	l9.6,9.2c0.6,0.6,0.6,1.6,0,2.2c-0.3,0.3-0.7,0.5-1.2,0.5c-0.4,0-0.8-0.2-1.2-0.5l-9.6-9.2l-0.4-0.4v0.6v13c0,0.8-0.7,1.5-1.6,1.5
	c-0.9,0-1.6-0.7-1.6-1.5v-13v-0.6l-0.4,0.4l-9.6,9.2c-0.3,0.3-0.7,0.5-1.2,0.5c-0.4,0-0.8-0.2-1.2-0.5c-0.6-0.6-0.6-1.6,0-2.2
	L23.4,47l0.2,0.2l9.6-9.2l0.4-0.4H33H19.4c-0.9,0-1.6-0.7-1.6-1.5s0.7-1.5,1.6-1.5H33h0.6L33.2,34l-9.6-9.2c0,0,0,0,0,0
	c-0.6-0.6-0.6-1.6,0-2.2c0.3-0.3,0.7-0.5,1.2-0.5c0.4,0,0.8,0.2,1.2,0.5l9.6,9.2l0.4,0.4v-0.6v-13c0-0.8,0.7-1.5,1.6-1.5
	c0.9,0,1.6,0.7,1.6,1.5V31.7z M41.4,33.6L41.4,33.6l9.6-9.2c0.4-0.4,0.4-1,0-1.3c-0.2-0.2-0.4-0.3-0.7-0.3s-0.5,0.1-0.7,0.3L40,32.3
	c-0.2,0.2-0.4,0.3-0.7,0.3c-0.1,0-0.2,0-0.4-0.1c-0.3-0.1-0.6-0.5-0.6-0.8v-13c0-0.5-0.4-0.9-1-0.9c-0.5,0-1,0.4-1,0.9v13
	c0,0.3-0.2,0.7-0.6,0.8c-0.1,0-0.2,0.1-0.4,0.1c-0.2,0-0.5-0.1-0.7-0.3v0l-9.6-9.2c0,0,0,0,0,0c-0.2-0.2-0.4-0.3-0.7-0.3
	c-0.2,0-0.5,0.1-0.7,0.3c-0.4,0.4-0.4,1,0,1.3l0.1-0.2L24,24.4l9.6,9.2c0.3,0.3,0.3,0.6,0.2,0.9c-0.1,0.3-0.5,0.5-0.9,0.5H19.4
	c-0.5,0-1,0.4-1,0.9c0,0.5,0.4,0.9,1,0.9H33c0.4,0,0.7,0.2,0.9,0.5c0.1,0.3,0.1,0.7-0.2,0.9L24,47.6c-0.4,0.4-0.4,1,0,1.3
	c0.2,0.2,0.4,0.3,0.7,0.3c0.2,0,0.5-0.1,0.7-0.3l9.6-9.2c0.2-0.2,0.4-0.3,0.7-0.3c0.1,0,0.2,0,0.4,0.1c0.3,0.1,0.6,0.5,0.6,0.8v13
	c0,0.5,0.4,0.9,1,0.9c0.5,0,1-0.4,1-0.9v-13c0-0.3,0.2-0.7,0.6-0.8c0.1,0,0.2-0.1,0.4-0.1c0.2,0,0.5,0.1,0.7,0.3l9.6,9.2
	c0,0,0,0,0,0c0.2,0.2,0.4,0.3,0.7,0.3s0.5-0.1,0.7-0.3c0.2-0.2,0.3-0.4,0.3-0.7s-0.1-0.5-0.3-0.7l-9.6-9.2h0
	c-0.3-0.3-0.3-0.6-0.2-0.9c0.1-0.3,0.5-0.5,0.9-0.5h13.6c0.5,0,1-0.4,1-0.9s-0.4-0.9-1-0.9H42c-0.4,0-0.7-0.2-0.9-0.5
	C41,34.2,41.1,33.8,41.4,33.6z"/>
</svg>
