<svg id="Calque_1" data-name="Calque 1" xmlns="http://www.w3.org/2000/svg" xmlns:xlink="http://www.w3.org/1999/xlink" viewBox="0 0 104.75 104.88"><defs><style>.cls-1,.cls-8,.cls-9{fill:none;}.cls-1,.cls-2{clip-rule:evenodd;}.cls-2,.cls-5,.cls-7{fill:#00aced;}.cls-2,.cls-8,.cls-9{stroke:#00aced;stroke-miterlimit:10;stroke-width:0.5px;}.cls-3{clip-path:url(#clip-path);}.cls-4{clip-path:url(#clip-path-2);}.cls-5,.cls-9{fill-rule:evenodd;}.cls-6{clip-path:url(#clip-path-3);}.cls-10{fill:#00afea;}</style><clipPath id="clip-path"><path class="cls-1" d="M-295,32.44a20,20,0,0,0-20,20,20,20,0,0,0,20,20,20,20,0,0,0,20-20,20,20,0,0,0-20-20m0,36.9a17,17,0,0,1-16.89-16.92A17,17,0,0,1-295,35.54a17,17,0,0,1,16.9,16.91A16.94,16.94,0,0,1-295,69.34"/></clipPath><clipPath id="clip-path-2"><path class="cls-1" d="M-284,45.74a1.37,1.37,0,0,0-1.36-1.38h-4.11a4.87,4.87,0,0,0-.66,0A6.13,6.13,0,0,0-295,46.68a6.12,6.12,0,0,0-4.83-2.36,5.07,5.07,0,0,0-.66,0h-4.11a1.37,1.37,0,0,0-1.36,1.38v4.15c0,.23,0,.45,0,.67a6.21,6.21,0,0,0,6.17,6.24,6.12,6.12,0,0,0,3.45-1.06v8.2A1.37,1.37,0,0,0-295,65.32a1.38,1.38,0,0,0,1.37-1.38V55.71a6.06,6.06,0,0,0,3.48,1.09A6.21,6.21,0,0,0-284,50.56a5.12,5.12,0,0,0,0-.67ZM-299.79,54a3.46,3.46,0,0,1-3.43-3.2,1.33,1.33,0,0,0,0-.28V47.12h3.4a1.27,1.27,0,0,0,.28,0,3.46,3.46,0,0,1,3.16,3.47A3.46,3.46,0,0,1-299.79,54Zm9.66,0a3.46,3.46,0,0,1-3.44-3.48,3.47,3.47,0,0,1,3.17-3.47,1.24,1.24,0,0,0,.27,0h3.41v3.44a1.32,1.32,0,0,0,0,.28A3.46,3.46,0,0,1-290.13,54Z"/></clipPath><clipPath id="clip-path-3"><path class="cls-2" d="M-418,80.62h-14.11a1.28,1.28,0,0,1-1.08-.61,1.42,1.42,0,0,1-.13-1.28l14.11-35.92a1.29,1.29,0,0,1,1.46-.82,1.34,1.34,0,0,1,1.05,1.34V79.25A1.33,1.33,0,0,1-418,80.62Zm-12.17-2.74h10.87V50.23Z"/></clipPath></defs><title>Plan de travail 19 copie 5</title><path class="cls-5" d="M-418,80.62h-14.11a1.28,1.28,0,0,1-1.08-.61,1.42,1.42,0,0,1-.13-1.28l14.11-35.92a1.29,1.29,0,0,1,1.46-.82,1.34,1.34,0,0,1,1.05,1.34V79.25A1.33,1.33,0,0,1-418,80.62Zm-12.17-2.74h10.87V50.23Z"/><g class="cls-6"><rect class="cls-7" x="-1014.26" y="-1105.15" width="1504.41" height="2769.58"/><rect class="cls-8" x="-1014.26" y="-1105.15" width="1504.41" height="2769.58"/></g><path class="cls-9" d="M-418,80.62h-14.11a1.28,1.28,0,0,1-1.08-.61,1.42,1.42,0,0,1-.13-1.28l14.11-35.92a1.29,1.29,0,0,1,1.46-.82,1.34,1.34,0,0,1,1.05,1.34V79.25A1.33,1.33,0,0,1-418,80.62Zm-12.17-2.74h10.87V50.23Z"/><path class="cls-10" d="M81.07,37.06a7.12,7.12,0,0,0-4-2.87,8.17,8.17,0,0,0-5.13.38,6.82,6.82,0,0,0-3.49,3.51,5.75,5.75,0,0,0-.08,4.32L56.37,58.51a7.07,7.07,0,0,0-2.51-.91V36.33a7.13,7.13,0,0,0,3.93-2.1,5.91,5.91,0,0,0,1.7-4.53,6.31,6.31,0,0,0-2.24-4.3,7.4,7.4,0,0,0-4.85-1.75,7.18,7.18,0,0,0-4.77,1.75,6.14,6.14,0,0,0-2.23,4.3,5.94,5.94,0,0,0,1.69,4.53A7.57,7.57,0,0,0,51,36.33V57.61a7.53,7.53,0,0,0-2.5.92l-12-16.28a5.63,5.63,0,0,0-.08-4.34,6.92,6.92,0,0,0-3.5-3.51A7.68,7.68,0,0,0,27.78,34a7.13,7.13,0,0,0-4.05,2.86A5.64,5.64,0,0,0,23,41.63a6.33,6.33,0,0,0,2.95,3.79,7.65,7.65,0,0,0,8.83-.83L46.38,60.3a7.54,7.54,0,0,0-.49.83l-6.21-2.47a6,6,0,0,0-1.93-4,7.62,7.62,0,0,0-4.66-2,7.19,7.19,0,0,0-5,1.38,6.08,6.08,0,0,0-2.52,4.1,5.6,5.6,0,0,0,1.3,4.62,7,7,0,0,0,4.34,2.5,8,8,0,0,0,5-.83,6.87,6.87,0,0,0,2.79-3l6.17,2.46V64a8,8,0,0,0,.65,3,7.4,7.4,0,0,0,1.06,1.58A11.56,11.56,0,0,0,42.56,72a9.28,9.28,0,0,0-2.05,6v3.2H63.88V78a10.17,10.17,0,0,0-2.05-6,10.81,10.81,0,0,0-4.36-3.39,6.71,6.71,0,0,0,1.72-3.53l6.28-3.5a6.25,6.25,0,0,0,2.91,2.86,7.48,7.48,0,0,0,5,.64,7.2,7.2,0,0,0,4.22-2.57,5.85,5.85,0,0,0,1.14-4.62,6,6,0,0,0-2.68-4,7.16,7.16,0,0,0-5-1.3,8,8,0,0,0-4.57,2,6.33,6.33,0,0,0-1.86,4.14L59,61.93a4.06,4.06,0,0,0-.68-1.47L70,44.75a7.45,7.45,0,0,0,3.8,1.77,8,8,0,0,0,5-.93,6,6,0,0,0,2.2-8.53Zm-13.13,22a3.57,3.57,0,0,1,1.17-2.62,4.39,4.39,0,0,1,3-1.06,4.51,4.51,0,0,1,2.37.64A3.93,3.93,0,0,1,76,57.73a2.79,2.79,0,0,1,.19,2.11,3.37,3.37,0,0,1-1.1,1.84,4.41,4.41,0,0,1-4.58.86,4.23,4.23,0,0,1-1.92-1.42A3.21,3.21,0,0,1,67.94,59.07ZM32.77,42.74a4.53,4.53,0,0,1-2.92,1.12,4.4,4.4,0,0,1-2.34-.64A4,4,0,0,1,26,41.52a2.78,2.78,0,0,1-.18-2.11,3.41,3.41,0,0,1,1.09-1.84A4.68,4.68,0,0,1,29,36.5a5.31,5.31,0,0,1,.87-.08,4.32,4.32,0,0,1,1.59.29,4.23,4.23,0,0,1,1.92,1.42,3.21,3.21,0,0,1,.68,2A3.53,3.53,0,0,1,32.77,42.74ZM48.82,28a4.23,4.23,0,0,1,1.92-1.42,4.8,4.8,0,0,1,1.64-.29,4.54,4.54,0,0,1,.82.07,3.72,3.72,0,0,1,2.12,1.07,3.61,3.61,0,0,1,1.19,1.93,3.87,3.87,0,0,1-.19,2.11,4,4,0,0,1-1.55,1.7,4.51,4.51,0,0,1-2.37.64,4.18,4.18,0,0,1-1.62-.27,4.44,4.44,0,0,1-1.4-.89,3,3,0,0,1-.88-1.23,3.81,3.81,0,0,1-.36-1.37A3.26,3.26,0,0,1,48.82,28Zm3.5,32.16a4.53,4.53,0,0,1,3,1.14A3.58,3.58,0,0,1,56.49,64a3.74,3.74,0,0,1-1,2.83,4.2,4.2,0,0,1-3.07,1.3A4.27,4.27,0,0,1,48.14,64a3.56,3.56,0,0,1,1.18-2.62A4.53,4.53,0,0,1,52.32,60.19Zm9,18.38H43.5V78a7.26,7.26,0,0,1,1.81-4.82A9.25,9.25,0,0,1,50,70.41a7.25,7.25,0,0,0,4.69,0,9.34,9.34,0,0,1,4.68,2.81,7.45,7.45,0,0,1,2,4.83Zm14.51-34.7a4.67,4.67,0,0,1-2.46-.21,4.38,4.38,0,0,1-1.92-1.43,3.26,3.26,0,0,1-.68-2,3.56,3.56,0,0,1,1.18-2.62,4.44,4.44,0,0,1,3-1.05,4.53,4.53,0,0,1,2.37.64,4,4,0,0,1,1.55,1.69A2.84,2.84,0,0,1,79,41a3.49,3.49,0,0,1-1.1,1.84A4.65,4.65,0,0,1,75.81,43.87Zm-47,16.54a2.79,2.79,0,0,1-.19-2.11,3.49,3.49,0,0,1,1.1-1.84,4.65,4.65,0,0,1,2.13-1.08,5.1,5.1,0,0,1,.87-.07A4.35,4.35,0,0,1,36.19,57a3.26,3.26,0,0,1,.67,2,3.49,3.49,0,0,1-1.28,2.56,4.44,4.44,0,0,1-5.26.47A4,4,0,0,1,28.77,60.41Z"/></svg>