<svg id="Calque_1" data-name="Calque 1" xmlns="http://www.w3.org/2000/svg" xmlns:xlink="http://www.w3.org/1999/xlink" viewBox="0 0 104.75 104.88"><defs><style>.cls-1,.cls-2,.cls-4{fill:#00aced;}.cls-1,.cls-5,.cls-6{stroke:#00aced;stroke-miterlimit:10;stroke-width:0.5px;}.cls-1{clip-rule:evenodd;}.cls-2,.cls-6{fill-rule:evenodd;}.cls-3{clip-path:url(#clip-path);}.cls-5,.cls-6{fill:none;}.cls-7{fill:#00afea;}</style><clipPath id="clip-path"><path class="cls-1" d="M-888,80.62h-14.11a1.28,1.28,0,0,1-1.08-.61,1.42,1.42,0,0,1-.13-1.28l14.11-35.92a1.29,1.29,0,0,1,1.46-.82,1.34,1.34,0,0,1,1.05,1.34V79.25A1.33,1.33,0,0,1-888,80.62Zm-12.17-2.74h10.87V50.23Z"/></clipPath></defs><title>Plan de travail 19 copie 9</title><path class="cls-2" d="M-888,80.62h-14.11a1.28,1.28,0,0,1-1.08-.61,1.42,1.42,0,0,1-.13-1.28l14.11-35.92a1.29,1.29,0,0,1,1.46-.82,1.34,1.34,0,0,1,1.05,1.34V79.25A1.33,1.33,0,0,1-888,80.62Zm-12.17-2.74h10.87V50.23Z"/><g class="cls-3"><rect class="cls-4" x="-1484.26" y="-1105.15" width="1504.41" height="2769.58"/><rect class="cls-5" x="-1484.26" y="-1105.15" width="1504.41" height="2769.58"/></g><path class="cls-6" d="M-888,80.62h-14.11a1.28,1.28,0,0,1-1.08-.61,1.42,1.42,0,0,1-.13-1.28l14.11-35.92a1.29,1.29,0,0,1,1.46-.82,1.34,1.34,0,0,1,1.05,1.34V79.25A1.33,1.33,0,0,1-888,80.62Zm-12.17-2.74h10.87V50.23Z"/><path class="cls-7" d="M67.3,76.32H30a.9.9,0,0,1-.6-.15c-.14-.15-.29-.15-.44-.3s-.3-.3-.3-.45a.9.9,0,0,1-.15-.6V37.55a.9.9,0,0,1,.15-.6c.15-.15.15-.3.3-.45s.3-.29.44-.29a.9.9,0,0,1,.6-.15H67.3a.86.86,0,0,1,.59.15c.15.14.3.14.45.29s.3.3.3.45a.9.9,0,0,1,.15.6V74.82a.9.9,0,0,1-.15.6c-.15.15-.15.3-.3.45s-.3.3-.45.3A.86.86,0,0,1,67.3,76.32Zm-35.79-3h34.3V39H31.51Z"/><circle class="cls-7" cx="38.68" cy="30.37" r="1.8"/><circle class="cls-7" cx="45.83" cy="30.37" r="1.8"/><circle class="cls-7" cx="52.98" cy="30.37" r="1.8"/><circle class="cls-7" cx="60.13" cy="30.37" r="1.8"/><circle class="cls-7" cx="67.27" cy="30.37" r="1.8"/><circle class="cls-7" cx="74.42" cy="30.37" r="1.8"/><circle class="cls-7" cx="74.42" cy="37.51" r="1.8"/><circle class="cls-7" cx="74.42" cy="44.66" r="1.8"/><circle class="cls-7" cx="74.42" cy="51.81" r="1.8"/><circle class="cls-7" cx="74.42" cy="58.95" r="1.8"/><circle class="cls-7" cx="74.42" cy="66.1" r="1.8"/><circle class="cls-7" cx="60.13" cy="66.1" r="1.8"/><circle class="cls-7" cx="52.98" cy="66.1" r="1.8"/><circle class="cls-7" cx="45.83" cy="66.1" r="1.8"/><circle class="cls-7" cx="38.68" cy="66.1" r="1.8"/><circle class="cls-7" cx="38.68" cy="58.95" r="1.8"/><circle class="cls-7" cx="38.68" cy="51.81" r="1.8"/><circle class="cls-7" cx="38.68" cy="44.66" r="1.8"/></svg>