<svg id="Calque_1" data-name="Calque 1" xmlns="http://www.w3.org/2000/svg" xmlns:xlink="http://www.w3.org/1999/xlink" viewBox="0 0 104.75 104.88"><defs><style>.cls-1,.cls-2,.cls-4{fill:#00aced;}.cls-1,.cls-5,.cls-6{stroke:#00aced;stroke-miterlimit:10;stroke-width:0.5px;}.cls-1{clip-rule:evenodd;}.cls-2,.cls-6{fill-rule:evenodd;}.cls-3{clip-path:url(#clip-path);}.cls-5,.cls-6{fill:none;}.cls-7{fill:#00afea;}</style><clipPath id="clip-path"><path class="cls-1" d="M-771,80.62h-14.11a1.28,1.28,0,0,1-1.08-.61,1.42,1.42,0,0,1-.13-1.28l14.11-35.92a1.29,1.29,0,0,1,1.46-.82,1.34,1.34,0,0,1,1.05,1.34V79.25A1.33,1.33,0,0,1-771,80.62Zm-12.17-2.74h10.87V50.23Z"/></clipPath></defs><title>Plan de travail 19 copie 8</title><path class="cls-2" d="M-771,80.62h-14.11a1.28,1.28,0,0,1-1.08-.61,1.42,1.42,0,0,1-.13-1.28l14.11-35.92a1.29,1.29,0,0,1,1.46-.82,1.34,1.34,0,0,1,1.05,1.34V79.25A1.33,1.33,0,0,1-771,80.62Zm-12.17-2.74h10.87V50.23Z"/><g class="cls-3"><rect class="cls-4" x="-1367.26" y="-1105.15" width="1504.41" height="2769.58"/><rect class="cls-5" x="-1367.26" y="-1105.15" width="1504.41" height="2769.58"/></g><path class="cls-6" d="M-771,80.62h-14.11a1.28,1.28,0,0,1-1.08-.61,1.42,1.42,0,0,1-.13-1.28l14.11-35.92a1.29,1.29,0,0,1,1.46-.82,1.34,1.34,0,0,1,1.05,1.34V79.25A1.33,1.33,0,0,1-771,80.62Zm-12.17-2.74h10.87V50.23Z"/><path class="cls-7" d="M76.21,53.33a4.32,4.32,0,0,0-3.64,2l-9-1.09v-.68a13.92,13.92,0,0,0-4.32-10L69.39,28.7a4.85,4.85,0,0,0,1.33.19,5.37,5.37,0,1,0-5.37-5.36,5.31,5.31,0,0,0,1.22,3.38l-10,14.67A13.82,13.82,0,0,0,42,42.36l-4.78-4.77a7.08,7.08,0,1,0-2.4,2.3l5,4.86a13.71,13.71,0,0,0,.66,18.72l-4.15,4.66a5.13,5.13,0,0,0-2.18-.49,5.3,5.3,0,1,0,5.3,5.3,5.16,5.16,0,0,0-.63-2.48l4.37-4.95A13.29,13.29,0,0,0,53,67L56.4,77.14a5.28,5.28,0,1,0,3.37-1L56.14,65.75a13.89,13.89,0,0,0,7-8.32L72,58.65a4.32,4.32,0,1,0,4.2-5.32Zm0,5.65a1.33,1.33,0,1,1,0-2.65,1.33,1.33,0,0,1,0,2.65ZM34.11,75.24a2.3,2.3,0,1,1,2.3-2.3A2.3,2.3,0,0,1,34.11,75.24ZM31.28,29.72a4.07,4.07,0,1,1-4.06,4.07A4.08,4.08,0,0,1,31.28,29.72Zm39.44-8.56a2.37,2.37,0,1,1-2.37,2.37A2.37,2.37,0,0,1,70.72,21.16ZM60.34,53.57A10.42,10.42,0,1,1,49.92,43.15,10.44,10.44,0,0,1,60.34,53.57Zm-.83,30.15a2.29,2.29,0,0,1-1.54-4l.75-.46a2.27,2.27,0,0,1,3.09,2.16A2.3,2.3,0,0,1,59.51,83.72Z"/></svg>