<?xml version="1.0" encoding="utf-8"?>
<!-- Generator: Adobe Illustrator 23.1.1, SVG Export Plug-In . SVG Version: 6.00 Build 0)  -->
<svg version="1.1" id="Calque_1" xmlns="http://www.w3.org/2000/svg" xmlns:xlink="http://www.w3.org/1999/xlink" x="0px" y="0px"
	 viewBox="0 0 80 100" style="enable-background:new 0 0 80 100;" xml:space="preserve">
<style type="text/css">
	.st0{fill:none;stroke:#00AFEA;}
</style>
<path class="st0" d="M55.8,30v0.5h0.5h4.4c3.6,0.1,7.1,1.4,9.8,3.8c2.7,2.4,4.5,5.7,4.9,9.3c0.5,3.6-0.3,7.2-2.3,10.3
	c-2,3-5,5.3-8.4,6.3l-0.1,0l-0.1,0.1c-1.4,1.7-3.2,3-5.2,3.9c-2,0.9-4.1,1.4-6.3,1.5c-2.2,0.1-4.4-0.3-6.4-1.2
	c-2-0.8-3.9-2.1-5.4-3.7L41,60.8h-0.2H19.4h0c-3.6,0-7-1.2-9.7-3.5C6.9,55,5,51.9,4.4,48.4c-0.6-3.5,0-7.1,1.7-10.2
	c1.7-3.1,4.5-5.5,7.9-6.7l0.3-0.1V31v0v0v0v0v0v0v0v0v0v0v0v0v0v0v0v0v0v0v0v0v0v0v0v0v0v0v0v0v0v0v0v0v0v0v0v0v0v0v0v0v0v0v0v0v0v0
	v0v0v0v0v0v0v0v0v0v0v0v0v0v0v0v0v0v0v0v0v0v0v0v0v0v0v0v0v0v0v0v0v0v0v0v0v0v0v0v0v0v0v0v0v0v0v0v0v0v0v0v0v0v0v0v0v0v0v0v0v0v0v0
	v0v0v0v0v0v0v0v0v0v0v0v0v0v0v0v0v0v0v0v0v0v0v0v0v0v0v0v0v0v0v0v0v0v0v0v0v0v0v0v0v0v0v0v0v0v0v0v0v0v0v0v0v0v0v0v0v0v0v0v0v0v0v0
	v0v0v0v0v0v0v0v0v0v0v0v0v0v0v0v0v0v0v0v0v0v0v0v0v0v0v0v0v0v0v0v0v0v0v0v0v0v0v0v0v0v0v0v0v0v0v0v0v0v0v0v0v0v0v0v0v0v0v0v0v0v0v0
	v0v0v0v0v0v0v0v0v0v0v0v0v0v0v0v0v0v0v0v0v0v0v0v0v0v0v0v0v0v0v0v0v0v0v0v0v0v0v0v0v0v0v0v0v0v0v0v0v0v0v0v0v0v0v0v0v0v0v0v0v0v0v0
	v0v0v0v0v0v0v0v0v0v0v0v0v0v0v0v0v0v0v0v0v0v0v0v0v0v0v0v0v0v0v0v0v0v0v0v0v0v0v0v0v0v0v0v0v0v0v0v0v0v0v0v0v0v0v0v0v0v0v0v0v0v0v0
	v0v0v0v0v0v0v0v0v0v0v0v0v0v0v0v0v0v0v0v0v0v0v0v0v0v0v0v0v0v0v0v0v0v0v0v0v0v0v0v0v0v0v0v0v0v0v0v0v0v0v0v0v0v0v0v0v0v0v0v0v0v0v0
	v0v0v0v0v0v0v0v0v0v0v0v0v0v0v0v0v0v0v0v0v0v0v0v0v0v0v0v0v0v0v0v0v0v0v0v0v0v0v0v0v0v0v0v0v0v0v0v0v0v0v0v0v0v0v0v0v0v0v0v0v0v0v0
	v0v0v0v0v0v0v0v0v0v0v0v0v0v0v0v0v0v0v0v0v0v0v0v0v0c0-5.5,2.2-10.8,6.1-14.7c3.9-3.9,9.2-6.1,14.7-6.1c5.5,0,10.8,2.2,14.7,6.1
	C53.6,19.2,55.8,24.5,55.8,30z M64,58.8c3.1-0.9,5.8-2.8,7.6-5.5c1.8-2.7,2.6-5.9,2.2-9.2c-0.4-3.2-1.9-6.2-4.3-8.4
	c-2.4-2.2-5.5-3.5-8.7-3.6l0,0h0H55h0c-0.1,0-0.2,0-0.3-0.1c-0.1,0-0.2-0.1-0.3-0.2c-0.1-0.1-0.1-0.2-0.2-0.3c0-0.1,0-0.2,0-0.3l0,0
	v0V31v0v0v0v0v0v0v0v0v0v0v0v0v0v0v0v0v0v0v0v0v0v0v0v0v0v0v0v0v0v0v0v0v0v0v0v0v0v0v0v0v0v0v0v0v0v0v0v0v0v0v0v0v0v0v0v0v0v0v0v0v0
	v0v0v0v0v0v0v0v0v0v0v0v0v0v0v0v0v0v0v0v0v0v0v0v0v0v0v0v0v0v0v0v0v0v0v0v0v0v0v0v0v0v0v0v0v0v0v0v0v0v0v0v0v0v0v0v0v0v0v0v0v0v0v0
	v0v0v0v0v0v0v0v0v0v0v0v0v0v0v0v0v0v0v0v0v0v0v0v0v0v0v0v0v0v0v0v0v0v0v0v0v0v0v0v0v0v0v0v0v0v0v0v0v0v0v0v0v0v0v0v0v0v0v0v0v0v0v0
	v0v0v0v0v0v0v0v0v0v0v0v0v0v0v0v0v0v0v0v0v0v0v0v0v0v0v0v0v0v0v0v0v0v0v0v0v0v0v0v0v0v0v0v0v0v0v0v0v0v0v0v0v0v0v0v0v0v0v0v0v0v0v0
	v0v0v0v0v0v0v0v0v0v0v0v0v0v0v0v0v0v0v0v0v0v0v0v0v0v0v0v0v0v0v0v0v0v0v0v0v0v0v0v0v0v0v0v0v0v0v0v0v0v0v0v0v0v0v0v0v0v0v0v0v0v0v0
	v0v0v0v0v0v0v0v0v0v0v0v0v0v0v0v0v0v0v0v0v0v0v0v0v0v0v0v0v0v0v0v0v0v0v0v0v0v0v0v0v0v0v0v0v0v0v0v0v0v0v0v0v0v0v0v0v0v0v0v0v0v0v0
	v0v0v0v0v0v0v0v0v0v0v0v0v0v0v0v0v0v0v0v0v0v0v0v0v0v0v0v0v0v0v0v0v0v0v0v0v0v0v0v0v0v0v0v0v0v0v0v0v0v0v0v0v0v0v0v0v0v0v0v0v0v0v0
	v0v0v0v0v0v0v0v0v0v0v0v0v0v0v0v0v0v0v0v0v0v0v0v0v0v0v0v0v0v0v0v0v0v0v0v0v0v0v0v0v0v0v0v0v0v0v0v0v0v0v0v0v0v0v0v0v0v0v0v0v0v0v0
	v0v0v0v0v0v0v0v0v0v0c0-5.1-2-10-5.6-13.6s-8.5-5.6-13.6-5.6s-10,2-13.6,5.6s-5.6,8.5-5.6,13.6c0,0.3,0,0.6,0.1,0.8c0,0,0,0,0,0.1
	c0,0.3,0.1,0.6,0.1,0.9v0l0,0c0,0.2,0,0.3-0.1,0.5c-0.1,0.1-0.2,0.2-0.4,0.3l0,0c-3.1,1-5.7,3-7.4,5.8c-1.7,2.8-2.4,6-1.9,9.2
	c0.5,3.2,2.1,6.1,4.5,8.2c2.4,2.1,5.6,3.3,8.8,3.3h0h22.1c0.2,0,0.4,0.1,0.5,0.2c1.4,1.5,3,2.7,4.9,3.5c1.9,0.8,3.9,1.2,5.9,1.2
	c2,0,4-0.5,5.9-1.4c1.8-0.9,3.4-2.1,4.7-3.6L64,58.8z"/>
<path class="st0" d="M67.5,26.2C66.8,26.7,65.9,27,65,27c-1.2,0-2.3-0.5-3.2-1.3c-0.8-0.8-1.3-2-1.3-3.2c0-0.9,0.3-1.8,0.8-2.5
	c0.5-0.7,1.2-1.3,2-1.7c0.8-0.3,1.7-0.4,2.6-0.3c0.9,0.2,1.7,0.6,2.3,1.2c0.6,0.6,1.1,1.4,1.2,2.3c0.2,0.9,0.1,1.8-0.3,2.6
	C68.8,25,68.2,25.7,67.5,26.2z M66.7,20c-0.5-0.3-1.1-0.5-1.7-0.5c-0.8,0-1.6,0.3-2.1,0.9c-0.6,0.6-0.9,1.3-0.9,2.1
	c0,0.6,0.2,1.2,0.5,1.7c0.3,0.5,0.8,0.9,1.3,1.1c0.5,0.2,1.2,0.3,1.7,0.2c0.6-0.1,1.1-0.4,1.5-0.8c0.4-0.4,0.7-1,0.8-1.5
	c0.1-0.6,0.1-1.2-0.2-1.7C67.5,20.8,67.2,20.3,66.7,20z"/>
<path class="st0" d="M11.3,17.5c-0.7,0.5-1.6,0.8-2.5,0.8c-1.2,0-2.3-0.5-3.2-1.3c-0.8-0.8-1.3-2-1.3-3.2c0-0.9,0.3-1.8,0.8-2.5
	c0.5-0.7,1.2-1.3,2-1.7c0.8-0.3,1.7-0.4,2.6-0.3c0.9,0.2,1.7,0.6,2.3,1.2c0.6,0.6,1.1,1.4,1.2,2.3c0.2,0.9,0.1,1.8-0.3,2.6
	C12.6,16.3,12,17,11.3,17.5z M10.4,11.3c-0.5-0.3-1.1-0.5-1.7-0.5c-0.8,0-1.6,0.3-2.1,0.9S5.8,13,5.8,13.8c0,0.6,0.2,1.2,0.5,1.7
	c0.3,0.5,0.8,0.9,1.3,1.1c0.5,0.2,1.2,0.3,1.7,0.2c0.6-0.1,1.1-0.4,1.5-0.8c0.4-0.4,0.7-1,0.8-1.5c0.1-0.6,0.1-1.2-0.2-1.7
	C11.3,12.1,10.9,11.6,10.4,11.3z"/>
<path class="st0" d="M32.5,72.5c-0.7,0.5-1.6,0.8-2.5,0.8c-1.2,0-2.3-0.5-3.2-1.3c-0.8-0.8-1.3-2-1.3-3.2c0-0.9,0.3-1.8,0.8-2.5
	c0.5-0.7,1.2-1.3,2-1.7c0.8-0.3,1.7-0.4,2.6-0.3c0.9,0.2,1.7,0.6,2.3,1.2c0.6,0.6,1.1,1.4,1.2,2.3c0.2,0.9,0.1,1.8-0.3,2.6
	C33.8,71.3,33.2,72,32.5,72.5z M31.7,66.3c-0.5-0.3-1.1-0.5-1.7-0.5c-0.8,0-1.6,0.3-2.1,0.9C27.3,67.2,27,68,27,68.8
	c0,0.6,0.2,1.2,0.5,1.7c0.3,0.5,0.8,0.9,1.3,1.1c0.5,0.2,1.2,0.3,1.7,0.2c0.6-0.1,1.1-0.4,1.5-0.8c0.4-0.4,0.7-1,0.8-1.5
	c0.1-0.6,0.1-1.2-0.2-1.7C32.5,67.1,32.2,66.6,31.7,66.3z"/>
<path class="st0" d="M38.4,32.2c1.1-1.1,2.5-1.7,4.1-1.7s3,0.6,4.1,1.7c1.1,1.1,1.7,2.5,1.7,4.1v6.2c0,1.5-0.6,3-1.7,4.1
	c-1.1,1.1-2.5,1.7-4.1,1.7s-3-0.6-4.1-1.7c-1.1-1.1-1.7-2.5-1.7-4.1v-6.2C36.8,34.7,37.4,33.3,38.4,32.2z M45.5,45.5
	c0.8-0.8,1.2-1.9,1.2-3v-6.2c0-1.1-0.4-2.2-1.2-3s-1.9-1.2-3-1.2s-2.2,0.4-3,1.2s-1.2,1.9-1.2,3v6.2c0,1.1,0.4,2.2,1.2,3
	s1.9,1.2,3,1.2S44.7,46.3,45.5,45.5z"/>
<path class="st0" d="M31.8,33.2c-0.8-0.8-1.9-1.2-3-1.2s-2.2,0.4-3,1.2c-0.8,0.8-1.2,1.9-1.2,3v6.2c0,1.1,0.4,2.2,1.2,3
	c0.8,0.8,1.9,1.2,3,1.2s2.2-0.4,3-1.2c0.8-0.8,1.2-1.9,1.2-3c0-0.2,0.1-0.4,0.2-0.5c0.1-0.1,0.3-0.2,0.5-0.2s0.4,0.1,0.5,0.2
	c0.1,0.1,0.2,0.3,0.2,0.5c0,1.5-0.6,3-1.7,4.1c-1.1,1.1-2.5,1.7-4.1,1.7s-3-0.6-4.1-1.7C23.6,45.5,23,44,23,42.5v-6.2
	c0-1.5,0.6-3,1.7-4.1c1.1-1.1,2.5-1.7,4.1-1.7s3,0.6,4.1,1.7c1.1,1.1,1.7,2.5,1.7,4.1c0,0.2-0.1,0.4-0.2,0.5
	c-0.1,0.1-0.3,0.2-0.5,0.2s-0.4-0.1-0.5-0.2c-0.1-0.1-0.2-0.3-0.2-0.5C33,35.1,32.6,34,31.8,33.2z"/>
<path class="st0" d="M53.9,48.4L53,49.2h1.2h4.5c0.2,0,0.4,0.1,0.5,0.2c0.1,0.1,0.2,0.3,0.2,0.5s-0.1,0.4-0.2,0.5
	c-0.1,0.1-0.3,0.2-0.5,0.2h-7.5c-0.1,0-0.3,0-0.4-0.1c-0.1-0.1-0.2-0.2-0.3-0.3c-0.1-0.1-0.1-0.3,0-0.4c0-0.1,0.1-0.3,0.2-0.4
	l2.7-2.7l0,0c0.5-0.5,1-1,1.3-1.4c0.4-0.5,0.7-1,0.7-1.5c0-0.5-0.2-0.9-0.5-1.2S54.2,42,53.8,42h0l0,0c-0.4,0.1-0.8,0.3-1.1,0.6
	c-0.3,0.3-0.5,0.7-0.6,1.1l0,0v0c0,0.2-0.1,0.4-0.2,0.5c-0.1,0.1-0.3,0.2-0.5,0.2s-0.4-0.1-0.5-0.2c-0.1-0.1-0.2-0.3-0.2-0.5
	c0.1-0.8,0.4-1.6,1-2.2c0.6-0.6,1.4-1,2.2-1c0.9,0,1.7,0.3,2.3,1c0.6,0.6,1,1.4,1,2.3c0,0.8-0.3,1.5-0.8,2.1
	c-0.4,0.6-0.9,1.1-1.5,1.7c-0.1,0.1-0.1,0.1-0.2,0.2L53.9,48.4z"/>
</svg>
