<svg id="Calque_1" data-name="Calque 1" xmlns="http://www.w3.org/2000/svg" xmlns:xlink="http://www.w3.org/1999/xlink" viewBox="0 0 104.75 104.88"><defs><style>.cls-1,.cls-14,.cls-15,.cls-2{fill:none;}.cls-1,.cls-3{clip-rule:evenodd;}.cls-12,.cls-3,.cls-7{fill:#00aced;}.cls-14,.cls-15,.cls-3{stroke:#00aced;stroke-miterlimit:10;stroke-width:0.5px;}.cls-4{isolation:isolate;}.cls-5{clip-path:url(#clip-path);}.cls-6{clip-path:url(#clip-path-2);}.cls-8{clip-path:url(#clip-path-3);}.cls-9{clip-path:url(#clip-path-4);}.cls-10{clip-path:url(#clip-path-5);}.cls-11{clip-path:url(#clip-path-6);}.cls-12,.cls-15{fill-rule:evenodd;}.cls-13{clip-path:url(#clip-path-7);}</style><clipPath id="clip-path"><path class="cls-1" d="M83.84,46.69A1.52,1.52,0,0,0,82.13,45c-1.71,0-3.42,0-5.13,0a.33.33,0,0,1-.39-.28A23.15,23.15,0,0,0,75,40.86c-.11-.2-.07-.3.08-.45l3.66-3.62a1.52,1.52,0,0,0,0-2.37l-8.23-8.19a1.53,1.53,0,0,0-2.38,0l-3.67,3.65A.3.3,0,0,1,64,30a23.52,23.52,0,0,0-3.89-1.59c-.22-.07-.27-.17-.27-.39,0-1.71,0-3.42,0-5.13a1.65,1.65,0,0,0-1.74-1.74c-3.85,0-7.71,0-11.56,0a1.56,1.56,0,0,0-1.73,1.73q0,2.55,0,5.1c0,.23-.08.31-.29.39-1.29.51-2.57,1-3.84,1.58a.36.36,0,0,1-.48-.09c-1.21-1.22-2.43-2.42-3.64-3.63a1.53,1.53,0,0,0-2.36,0L26,34.37a1.55,1.55,0,0,0,0,2.43c1.2,1.19,2.41,2.39,3.62,3.57a.38.38,0,0,1,.09.51c-.54,1.26-1.07,2.52-1.58,3.79-.09.22-.17.31-.42.3H22.58a1.52,1.52,0,0,0-1.68,1.68v11.5a1.57,1.57,0,0,0,1.78,1.77h5.07a.35.35,0,0,1,.4.28c.5,1.27,1,2.52,1.56,3.77.11.25.12.38-.09.58-1.23,1.2-2.46,2.42-3.68,3.64a1.52,1.52,0,0,0,0,2.22l8.38,8.35a1.53,1.53,0,0,0,2.28,0q1.86-1.84,3.71-3.7a.32.32,0,0,1,.44-.07,23.22,23.22,0,0,0,3.89,1.6c.2.06.25.16.25.36q0,2.61,0,5.22a1.52,1.52,0,0,0,1.64,1.63H58.22a1.52,1.52,0,0,0,1.66-1.66c0-1.73,0-3.46,0-5.19a.3.3,0,0,1,.26-.35A23.93,23.93,0,0,0,64,75a.33.33,0,0,1,.46.08c1.21,1.23,2.46,2.42,3.65,3.67a1.66,1.66,0,0,0,2.36,0c2.73-2.75,5.48-5.47,8.23-8.2a1.54,1.54,0,0,0,0-2.42c-1.22-1.2-2.43-2.42-3.66-3.62-.15-.14-.15-.24-.07-.43.55-1.27,1.08-2.56,1.6-3.84a.36.36,0,0,1,.41-.28c1.71,0,3.42,0,5.13,0a1.55,1.55,0,0,0,1.7-1.69Zm-3,10.21-.36,0H75.82a1.56,1.56,0,0,0-1.74,1.29,23.06,23.06,0,0,1-2.23,5.39,1.55,1.55,0,0,0,.31,2.22q1.62,1.62,3.25,3.23a2.05,2.05,0,0,0,.27.25l-6.34,6.33-.23-.22-3.34-3.34a1.56,1.56,0,0,0-2.12-.29,23.62,23.62,0,0,1-5.53,2.28,1.51,1.51,0,0,0-1.25,1.63v5.08H47.92v-5A1.58,1.58,0,0,0,46.59,74a23.26,23.26,0,0,1-5.48-2.28,1.52,1.52,0,0,0-2,.28l-3.37,3.35-.22.21L29.1,69.29l3.63-3.59a1.51,1.51,0,0,0,.47-1.58,2.15,2.15,0,0,0-.22-.46,23.19,23.19,0,0,1-2.27-5.44,1.57,1.57,0,0,0-1.77-1.32H24V48h5.11a1.54,1.54,0,0,0,1.64-1.22A22.31,22.31,0,0,1,33,41.22a1.45,1.45,0,0,0,.17-1.35,2.4,2.4,0,0,0-.49-.73c-1.12-1.13-2.25-2.24-3.38-3.35l-.16-.18,6.32-6.31.22.21,3.37,3.36a1.52,1.52,0,0,0,2,.28,23,23,0,0,1,5.57-2.31,1.53,1.53,0,0,0,1.25-1.64v-5h8.95v5a1.56,1.56,0,0,0,1.33,1.73,22.88,22.88,0,0,1,5.44,2.25,1.56,1.56,0,0,0,2.12-.27q1.67-1.65,3.32-3.32a1.77,1.77,0,0,0,.19-.23c2.14,2.13,4.24,4.22,6.35,6.34l-.17.18L72,39.22a1.46,1.46,0,0,0-.28,1.94,23,23,0,0,1,2.36,5.69A1.5,1.5,0,0,0,75.68,48h5.17Z"/></clipPath><clipPath id="clip-path-2"><rect class="cls-2" x="20.9" y="21.09" width="63" height="63"/></clipPath><clipPath id="clip-path-3"><path class="cls-1" d="M52.37,32.44a20,20,0,1,0,20,20,20,20,0,0,0-20-20m0,36.9A16.9,16.9,0,1,1,69.28,52.45,16.95,16.95,0,0,1,52.36,69.34"/></clipPath><clipPath id="clip-path-4"><rect class="cls-2" x="-749.1" y="-1009.69" width="1440" height="2651"/></clipPath><clipPath id="clip-path-5"><path class="cls-1" d="M63.34,45.74A1.37,1.37,0,0,0,62,44.36H57.86a4.87,4.87,0,0,0-.66,0,6.15,6.15,0,0,0-4.83,2.36,6.12,6.12,0,0,0-4.83-2.36,4.82,4.82,0,0,0-.65,0H42.78a1.37,1.37,0,0,0-1.37,1.38v4.15c0,.23,0,.45,0,.67a6.21,6.21,0,0,0,6.17,6.24A6.09,6.09,0,0,0,51,55.74v8.2a1.37,1.37,0,1,0,2.73,0V55.71A6.06,6.06,0,0,0,57.2,56.8a6.21,6.21,0,0,0,6.17-6.24c0-.22,0-.44,0-.67ZM47.54,54a3.46,3.46,0,0,1-3.43-3.2,1.33,1.33,0,0,0,0-.28V47.12h3.4a1.27,1.27,0,0,0,.28,0A3.48,3.48,0,0,1,47.54,54Zm9.66,0a3.48,3.48,0,0,1-.27-6.95l.27,0h3.41v3.44a1.33,1.33,0,0,0,0,.28A3.46,3.46,0,0,1,57.2,54Z"/></clipPath><clipPath id="clip-path-6"><rect class="cls-2" x="-750.1" y="-1007.82" width="1440" height="2651"/></clipPath><clipPath id="clip-path-7"><path class="cls-3" d="M-70.65,80.62H-84.76A1.29,1.29,0,0,1-85.84,80,1.41,1.41,0,0,1-86,78.73l14.11-35.92A1.27,1.27,0,0,1-70.4,42a1.34,1.34,0,0,1,1.05,1.34V79.25A1.33,1.33,0,0,1-70.65,80.62Zm-12.16-2.74h10.86V50.23Z"/></clipPath></defs><title>Plan de travail 19 copie 2</title><g class="cls-4"><g class="cls-5"><g class="cls-6"><rect class="cls-7" x="15.9" y="16.1" width="72.94" height="72.68"/></g></g></g><g class="cls-8"><g class="cls-9"><rect class="cls-7" x="27.37" y="27.44" width="50" height="50"/></g></g><g class="cls-10"><g class="cls-11"><rect class="cls-7" x="36.37" y="39.32" width="32" height="31"/></g></g><path class="cls-12" d="M-70.65,80.62H-84.76A1.29,1.29,0,0,1-85.84,80,1.41,1.41,0,0,1-86,78.73l14.11-35.92A1.27,1.27,0,0,1-70.4,42a1.34,1.34,0,0,1,1.05,1.34V79.25A1.33,1.33,0,0,1-70.65,80.62Zm-12.16-2.74h10.86V50.23Z"/><g class="cls-13"><rect class="cls-7" x="-666.93" y="-1105.15" width="1504.41" height="2769.58"/><rect class="cls-14" x="-666.93" y="-1105.15" width="1504.41" height="2769.58"/></g><path class="cls-15" d="M-70.65,80.62H-84.76A1.29,1.29,0,0,1-85.84,80,1.41,1.41,0,0,1-86,78.73l14.11-35.92A1.27,1.27,0,0,1-70.4,42a1.34,1.34,0,0,1,1.05,1.34V79.25A1.33,1.33,0,0,1-70.65,80.62Zm-12.16-2.74h10.86V50.23Z"/></svg>