<svg id="Calque_1" data-name="Calque 1" xmlns="http://www.w3.org/2000/svg" xmlns:xlink="http://www.w3.org/1999/xlink" viewBox="0 0 104.75 104.88"><defs><style>.cls-1,.cls-11,.cls-12{fill:none;}.cls-1,.cls-2{clip-rule:evenodd;}.cls-2,.cls-3,.cls-7,.cls-9{fill:#00aced;}.cls-11,.cls-12,.cls-2,.cls-3{stroke:#00aced;stroke-miterlimit:10;stroke-width:0.5px;}.cls-4{clip-path:url(#clip-path);}.cls-5{clip-path:url(#clip-path-2);}.cls-6{isolation:isolate;}.cls-12,.cls-7{fill-rule:evenodd;}.cls-8{clip-path:url(#clip-path-3);}.cls-10{clip-path:url(#clip-path-4);}.cls-13{clip-path:url(#clip-path-5);}</style><clipPath id="clip-path"><path class="cls-1" d="M168.37,32.44a20,20,0,1,0,20,20,20,20,0,0,0-20-20m0,36.9a16.9,16.9,0,1,1,16.92-16.89,16.95,16.95,0,0,1-16.92,16.89"/></clipPath><clipPath id="clip-path-2"><path class="cls-1" d="M179.34,45.74A1.37,1.37,0,0,0,178,44.36h-4.11a4.87,4.87,0,0,0-.66,0,6.15,6.15,0,0,0-4.83,2.36,6.12,6.12,0,0,0-4.83-2.36,4.82,4.82,0,0,0-.65,0h-4.11a1.37,1.37,0,0,0-1.37,1.38v4.15c0,.23,0,.45,0,.67a6.21,6.21,0,0,0,6.17,6.24A6.09,6.09,0,0,0,167,55.74v8.2a1.37,1.37,0,1,0,2.73,0V55.71a6.06,6.06,0,0,0,3.48,1.09,6.21,6.21,0,0,0,6.17-6.24c0-.22,0-.44,0-.67ZM163.54,54a3.46,3.46,0,0,1-3.43-3.2,1.33,1.33,0,0,0,0-.28V47.12h3.4a1.27,1.27,0,0,0,.28,0,3.48,3.48,0,0,1-.28,6.95Zm9.66,0a3.48,3.48,0,0,1-.27-6.95l.27,0h3.41v3.44a1.33,1.33,0,0,0,0,.28A3.46,3.46,0,0,1,173.2,54Z"/></clipPath><clipPath id="clip-path-3"><path class="cls-2" d="M73.52,80.49H52.19a1.32,1.32,0,0,1-1.29-1.34V25.6a1.32,1.32,0,0,1,1-1.31,1.29,1.29,0,0,1,1.45.8L74.71,78.65a1.35,1.35,0,0,1-.12,1.25A1.27,1.27,0,0,1,73.52,80.49Zm-20-2.67H71.59L53.48,32.35Z"/></clipPath><clipPath id="clip-path-4"><rect class="cls-3" x="50.83" y="24.16" width="24.03" height="56.42"/></clipPath><clipPath id="clip-path-5"><path class="cls-2" d="M45.35,80.62H31.24A1.29,1.29,0,0,1,30.16,80,1.41,1.41,0,0,1,30,78.73L44.15,42.81A1.27,1.27,0,0,1,45.6,42a1.34,1.34,0,0,1,1,1.34V79.25A1.33,1.33,0,0,1,45.35,80.62ZM33.19,77.88H44.05V50.23Z"/></clipPath></defs><title>Plan de travail 19 copie</title><g class="cls-6"><path class="cls-7" d="M73.52,80.49H52.19a1.32,1.32,0,0,1-1.29-1.34V25.6a1.32,1.32,0,0,1,1-1.31,1.29,1.29,0,0,1,1.45.8L74.71,78.65a1.35,1.35,0,0,1-.12,1.25A1.27,1.27,0,0,1,73.52,80.49Zm-20-2.67H71.59L53.48,32.35Z"/><g class="cls-8"><rect class="cls-9" x="50.83" y="24.16" width="24.03" height="56.42"/><g class="cls-10"><polygon class="cls-3" points="45.68 18.04 80.03 19.04 80.03 85.71 45.68 84.71 45.68 18.04"/></g><rect class="cls-11" x="50.83" y="24.16" width="24.03" height="56.42"/></g><path class="cls-12" d="M73.52,80.49H52.19a1.32,1.32,0,0,1-1.29-1.34V25.6a1.32,1.32,0,0,1,1-1.31,1.29,1.29,0,0,1,1.45.8L74.71,78.65a1.35,1.35,0,0,1-.12,1.25A1.27,1.27,0,0,1,73.52,80.49Zm-20-2.67H71.59L53.48,32.35Z"/></g><path class="cls-7" d="M45.35,80.62H31.24A1.29,1.29,0,0,1,30.16,80,1.41,1.41,0,0,1,30,78.73L44.15,42.81A1.27,1.27,0,0,1,45.6,42a1.34,1.34,0,0,1,1,1.34V79.25A1.33,1.33,0,0,1,45.35,80.62ZM33.19,77.88H44.05V50.23Z"/><g class="cls-13"><rect class="cls-9" x="-550.93" y="-1105.15" width="1504.41" height="2769.58"/><rect class="cls-11" x="-550.93" y="-1105.15" width="1504.41" height="2769.58"/></g><path class="cls-12" d="M45.35,80.62H31.24A1.29,1.29,0,0,1,30.16,80,1.41,1.41,0,0,1,30,78.73L44.15,42.81A1.27,1.27,0,0,1,45.6,42a1.34,1.34,0,0,1,1,1.34V79.25A1.33,1.33,0,0,1,45.35,80.62ZM33.19,77.88H44.05V50.23Z"/></svg>