<svg version="1.1" id="Calque_1" xmlns="http://www.w3.org/2000/svg" xmlns:xlink="http://www.w3.org/1999/xlink" x="0px" y="0px"
	 viewBox="0 0 160 100" style="enable-background:new 0 0 160 100;" xml:space="preserve">
<style type="text/css">
	.st0{fill:#FFFFFF;}
</style>
<path class="st0" d="M93.9,7.1v41.7c3.6-5.6,5.6-13.7,5.6-20.8V0L93.9,7.1z"/>
<path class="st0" d="M63.2,65.7c1.9,0,3.8-0.2,5.6-0.4v-6.6L63.2,65.7z"/>
<path class="st0" d="M70.8,64.8c1.9-0.4,3.8-1,5.6-1.7V44L70.8,51V64.8z"/>
<path class="st0" d="M78.5,62.3c2-0.9,3.9-2,5.6-3.3V29.3l-5.6,7.1V62.3z"/>
<path class="st0" d="M86.2,57.4c2.1-1.7,4-3.7,5.6-5.8V14.6l-5.6,7.1V57.4z"/>
<path class="st0" d="M41.6,93.7h-1v4.9h1V93.7z"/>
<path class="st0" d="M45.8,96.8c0-0.2-0.1-0.4-0.2-0.5c-0.1-0.1-0.3-0.3-0.4-0.3c-0.2-0.1-0.4-0.1-0.5,0c-0.2,0-0.3,0.1-0.5,0.3
	c-0.1,0.1-0.2,0.3-0.2,0.5c0,0.2,0,0.4,0.1,0.5c0.1,0.2,0.2,0.3,0.4,0.4c0.2,0.1,0.3,0.2,0.5,0.2c0.1,0,0.3,0,0.4-0.1
	c0.1-0.1,0.2-0.1,0.3-0.2c0.1-0.1,0.2-0.2,0.2-0.3C45.8,97.1,45.8,97,45.8,96.8z M42.9,96.8c0-0.4,0.1-0.7,0.3-1.1s0.5-0.6,0.9-0.7
	c0.3-0.1,0.7-0.2,1.1-0.1c0.4,0.1,0.7,0.3,1,0.5c0.3,0.3,0.4,0.6,0.5,1c0.1,0.4,0,0.8-0.1,1.1c-0.1,0.3-0.4,0.6-0.7,0.9
	s-0.7,0.3-1.1,0.3c-0.3,0-0.5,0-0.7-0.1c-0.2-0.1-0.5-0.2-0.6-0.4s-0.3-0.4-0.4-0.6C42.9,97.3,42.9,97.1,42.9,96.8"/>
<path class="st0" d="M50.3,96.7l-0.6,2h-1L47.6,95h1l0.6,2.3l0.6-2.3h1l0.6,2.3L52,95h1l-1.2,3.7h-1L50.3,96.7z"/>
<path class="st0" d="M64.5,96.8c0-0.2-0.1-0.4-0.2-0.5S64,96.1,63.9,96c-0.2-0.1-0.4-0.1-0.5,0c-0.2,0-0.3,0.1-0.5,0.3
	s-0.2,0.3-0.2,0.5c0,0.2,0,0.4,0.1,0.5c0.1,0.2,0.2,0.3,0.4,0.4c0.2,0.1,0.3,0.2,0.5,0.2c0.1,0,0.3,0,0.4-0.1
	c0.1-0.1,0.2-0.1,0.3-0.2c0.1-0.1,0.2-0.2,0.2-0.3C64.5,97.1,64.5,97,64.5,96.8z M61.6,96.8c0-0.3,0-0.5,0.1-0.7
	c0.1-0.2,0.2-0.5,0.4-0.6c0.2-0.2,0.4-0.3,0.6-0.4c0.2-0.1,0.5-0.1,0.7-0.1c0.3,0,0.7,0.1,1,0.3V95h1v3.7h-1v-0.2
	c-0.3,0.2-0.6,0.3-1,0.3c-0.3,0-0.5,0-0.7-0.1c-0.2-0.1-0.5-0.2-0.6-0.4s-0.3-0.4-0.4-0.6C61.7,97.3,61.6,97.1,61.6,96.8"/>
<path class="st0" d="M73.1,96.8c0-0.2-0.1-0.4-0.2-0.5c-0.1-0.1-0.3-0.3-0.4-0.3c-0.2-0.1-0.4-0.1-0.5,0c-0.2,0-0.3,0.1-0.5,0.3
	s-0.2,0.3-0.2,0.5c0,0.2,0,0.4,0.1,0.5c0.1,0.2,0.2,0.3,0.4,0.4c0.2,0.1,0.3,0.2,0.5,0.2c0.1,0,0.3,0,0.4-0.1
	c0.1-0.1,0.2-0.1,0.3-0.2c0.1-0.1,0.2-0.2,0.2-0.3C73.1,97.1,73.2,97,73.1,96.8L73.1,96.8z M70.3,93.7h1v1.5c0.3-0.2,0.6-0.3,1-0.3
	c0.5,0,1,0.2,1.3,0.6c0.3,0.4,0.5,0.8,0.5,1.3s-0.2,1-0.5,1.3c-0.3,0.4-0.8,0.6-1.3,0.6c-0.3,0-0.7-0.1-1-0.3v0.2h-1V93.7z"/>
<path class="st0" d="M78.2,96.8c0-0.2-0.1-0.4-0.2-0.5c-0.1-0.1-0.3-0.3-0.4-0.3c-0.2-0.1-0.4-0.1-0.5,0c-0.2,0-0.3,0.1-0.5,0.3
	c-0.1,0.1-0.2,0.3-0.2,0.5c0,0.2,0,0.4,0.1,0.5c0.1,0.2,0.2,0.3,0.4,0.4c0.2,0.1,0.3,0.2,0.5,0.2c0.1,0,0.3,0,0.4-0.1
	c0.1-0.1,0.2-0.1,0.3-0.2c0.1-0.1,0.2-0.2,0.2-0.3C78.2,97.1,78.2,97,78.2,96.8L78.2,96.8z M75.3,96.8c0-0.4,0.1-0.7,0.3-1.1
	c0.2-0.3,0.5-0.6,0.9-0.7c0.3-0.1,0.7-0.2,1.1-0.1c0.4,0.1,0.7,0.3,1,0.5c0.3,0.3,0.4,0.6,0.5,1c0.1,0.4,0,0.8-0.1,1.1
	c-0.1,0.3-0.4,0.6-0.7,0.9c-0.3,0.2-0.7,0.3-1.1,0.3c-0.3,0-0.5,0-0.7-0.1c-0.2-0.1-0.5-0.2-0.6-0.4s-0.3-0.4-0.4-0.6
	C75.4,97.3,75.3,97.1,75.3,96.8"/>
<path class="st0" d="M80.5,95h1v0.2c0.2-0.2,0.5-0.3,0.8-0.3c0.2,0,0.4,0,0.6,0.1c0.2,0.1,0.4,0.2,0.5,0.3c0.1,0.1,0.2,0.3,0.3,0.5
	c0.1,0.2,0.1,0.4,0.1,0.6v2.2h-1v-2.2c0-0.2-0.1-0.3-0.2-0.5c-0.1-0.1-0.3-0.2-0.5-0.2s-0.3,0.1-0.5,0.2c-0.1,0.1-0.2,0.3-0.2,0.5
	v2.2h-1L80.5,95z"/>
<path class="st0" d="M90,97.6c0,0.7-0.5,1.1-1.3,1.1c-0.7,0-1.3-0.5-1.3-1.2h0.9c0,0,0,0.1,0,0.1c0,0,0,0.1,0.1,0.1
	c0,0,0.1,0.1,0.1,0.1c0,0,0.1,0,0.1,0c0.2,0,0.3-0.1,0.3-0.3c0-0.6-1.5-0.2-1.5-1.6c0-0.2,0-0.3,0.1-0.4c0.1-0.1,0.1-0.3,0.3-0.4
	c0.1-0.1,0.2-0.2,0.4-0.2c0.1-0.1,0.3-0.1,0.4-0.1c0.7,0,1.3,0.5,1.3,1.2h-1c0,0,0-0.1,0-0.1c0,0,0-0.1-0.1-0.1c0,0-0.1-0.1-0.1-0.1
	c0,0-0.1,0-0.1,0c-0.2,0-0.3,0.1-0.3,0.3C88.4,96.6,90,96.2,90,97.6"/>
<path class="st0" d="M91.4,93.7h1v1.4c0.2-0.2,0.5-0.2,0.8-0.2c0.2,0,0.4,0,0.6,0.1c0.2,0.1,0.4,0.2,0.5,0.3
	c0.1,0.1,0.2,0.3,0.3,0.5c0.1,0.2,0.1,0.4,0.1,0.6v2.2h-1v-2.2c0-0.2-0.1-0.3-0.2-0.5c-0.1-0.1-0.3-0.2-0.5-0.2s-0.3,0.1-0.5,0.2
	c-0.1,0.1-0.2,0.3-0.2,0.5v2.2h-1L91.4,93.7z"/>
<path class="st0" d="M96,98.7h1V95h-1V98.7z M96,94.6h1v-0.9h-1V94.6z"/>
<path class="st0" d="M99.3,96.8c0,0.2,0.1,0.4,0.2,0.5c0.1,0.1,0.3,0.3,0.4,0.3c0.2,0.1,0.4,0.1,0.5,0c0.2,0,0.3-0.1,0.5-0.3
	s0.2-0.3,0.2-0.5c0-0.2,0-0.4-0.1-0.5c-0.1-0.2-0.2-0.3-0.4-0.4c-0.2-0.1-0.3-0.2-0.5-0.2c-0.1,0-0.3,0-0.4,0.1
	c-0.1,0.1-0.2,0.1-0.3,0.2c-0.1,0.1-0.2,0.2-0.2,0.3C99.3,96.6,99.3,96.7,99.3,96.8L99.3,96.8z M99.3,95v0.2c0.3-0.2,0.6-0.3,1-0.3
	c0.5,0,1,0.2,1.3,0.6c0.4,0.4,0.6,0.8,0.6,1.3s-0.2,1-0.6,1.3c-0.4,0.4-0.8,0.6-1.3,0.6c-0.3,0-0.7-0.1-1-0.3v1.5h-1V95H99.3z"/>
<path class="st0" d="M104.3,96.8c0,0.2,0.1,0.4,0.2,0.5c0.1,0.1,0.3,0.3,0.4,0.3c0.2,0.1,0.4,0.1,0.5,0c0.2,0,0.3-0.1,0.5-0.3
	c0.1-0.1,0.2-0.3,0.2-0.5c0-0.2,0-0.4-0.1-0.5c-0.1-0.2-0.2-0.3-0.4-0.4c-0.2-0.1-0.3-0.2-0.5-0.2c-0.1,0-0.3,0-0.4,0.1
	c-0.1,0.1-0.2,0.1-0.3,0.2c-0.1,0.1-0.2,0.2-0.2,0.3C104.3,96.6,104.3,96.7,104.3,96.8L104.3,96.8z M104.3,95v0.2
	c0.3-0.2,0.6-0.3,1-0.3c0.5,0,1,0.2,1.3,0.6c0.4,0.4,0.6,0.8,0.6,1.3s-0.2,1-0.6,1.3c-0.4,0.4-0.8,0.6-1.3,0.6c-0.3,0-0.7-0.1-1-0.3
	v1.5h-1V95H104.3z"/>
<path class="st0" d="M108.3,98.7h1V95h-1V98.7z M108.3,94.6h1v-0.9h-1V94.6z"/>
<path class="st0" d="M110.7,95h1v0.2c0.2-0.2,0.5-0.3,0.8-0.3c0.2,0,0.4,0,0.6,0.1c0.2,0.1,0.4,0.2,0.5,0.3c0.1,0.1,0.2,0.3,0.3,0.5
	c0.1,0.2,0.1,0.4,0.1,0.6v2.2h-1v-2.2c0-0.2-0.1-0.3-0.2-0.5c-0.1-0.1-0.3-0.2-0.5-0.2c-0.2,0-0.3,0.1-0.5,0.2
	c-0.1,0.1-0.2,0.3-0.2,0.5v2.2h-1L110.7,95z"/>
<path class="st0" d="M118.1,96.7c0-0.2,0-0.4-0.1-0.5c-0.1-0.2-0.2-0.3-0.4-0.4c-0.2-0.1-0.4-0.1-0.6-0.1c-0.2,0-0.4,0.1-0.5,0.2
	c-0.1,0.1-0.2,0.3-0.3,0.5c0,0.2,0,0.4,0,0.6c0.1,0.2,0.2,0.3,0.3,0.4c0.2,0.1,0.3,0.2,0.5,0.2c0.1,0,0.2,0,0.4,0
	c0.1,0,0.2-0.1,0.3-0.2c0.1-0.1,0.2-0.2,0.2-0.3C118.1,96.9,118.1,96.8,118.1,96.7L118.1,96.7z M117.2,99.1c0.1,0,0.3,0,0.4-0.1
	c0.1,0,0.2-0.1,0.3-0.2c0.1-0.1,0.2-0.2,0.2-0.3c0-0.1,0.1-0.2,0.1-0.4c-0.3,0.2-0.6,0.3-1,0.3c-1.1,0-1.9-0.7-1.9-1.8
	c0-1,0.8-1.8,1.9-1.8c0.3,0,0.7,0.1,1,0.3V95h1v3.1c0,0.3,0,0.5-0.1,0.7c-0.1,0.2-0.2,0.5-0.4,0.6c-0.2,0.2-0.4,0.3-0.6,0.4
	c-0.2,0.1-0.5,0.1-0.7,0.1c-1,0-1.8-0.6-1.8-1.5h1c0,0.2,0.1,0.4,0.3,0.5C116.8,99.1,117,99.1,117.2,99.1"/>
<path class="st0" d="M59.3,97.3c-0.1,0.2-0.2,0.3-0.3,0.4s-0.3,0.2-0.5,0.1c-0.3,0-0.5-0.1-0.7-0.3c-0.2-0.2-0.3-0.4-0.3-0.7
	c0-0.3,0.1-0.5,0.3-0.7c0.2-0.2,0.4-0.3,0.7-0.3c0.2,0,0.4,0,0.5,0.1c0.2,0.1,0.3,0.2,0.3,0.4h1c-0.1-0.5-0.4-0.8-0.8-1.1
	c-0.4-0.3-0.9-0.4-1.3-0.3c-0.5,0.1-0.9,0.3-1.2,0.6c-0.3,0.3-0.5,0.8-0.5,1.3c0,0.5,0.2,0.9,0.5,1.3c0.3,0.3,0.7,0.6,1.2,0.6
	c0.5,0.1,0.9-0.1,1.3-0.3c0.4-0.3,0.7-0.7,0.8-1.1H59.3z"/>
<path class="st0" d="M68.9,95h-1.1h-0.9v0.9v2.7h0.9v-2.7h1.1V95z"/>
<path class="st0" d="M0,70v3.1h7.4L0,83.5v3.1h11.4v-3.1H4l7.4-10.4V70H0z"/>
<path class="st0" d="M25.1,81.6h-9.4c0.2,0.7,0.5,1.3,1.1,1.7c0.6,0.4,1.3,0.7,2,0.6c1,0,1.9-0.2,2.5-1.1h3.6c-0.6,2.5-3.2,4-6,4
	c-3.8,0-6.5-2.7-6.5-6.5c0-3.8,2.7-6.5,6.5-6.5s6.5,2.7,6.5,6.5C25.2,80.8,25.1,81.2,25.1,81.6L25.1,81.6z M15.7,78.9h6
	c-0.2-0.6-0.6-1.2-1.2-1.5c-0.5-0.4-1.2-0.6-1.8-0.6c-0.7,0-1.3,0.2-1.8,0.6C16.3,77.8,15.9,78.3,15.7,78.9z"/>
<path class="st0" d="M29.6,74.2V75c0.9-0.7,2.1-1,3.2-1c3.8,0,6.5,2.7,6.5,6.5s-2.7,6.5-6.5,6.5c-1.2,0-2.3-0.3-3.2-1v5h-3.2V74.2
	H29.6z M29.6,80.4c0,2.1,1.3,3.5,3.2,3.5c2,0,3.2-1.4,3.2-3.5c0-2.1-1.3-3.5-3.2-3.5S29.6,78.3,29.6,80.4"/>
<path class="st0" d="M40.5,70h3.2v4.8c0.8-0.5,1.8-0.8,2.8-0.8c2.9,0,5,2.2,5,5.2v7.5h-3.2v-7.5c0-0.3,0-0.6-0.2-0.9
	c-0.1-0.3-0.3-0.5-0.5-0.7c-0.2-0.2-0.5-0.4-0.8-0.5c-0.3-0.1-0.6-0.2-0.9-0.1c-1.4,0-2.3,0.9-2.3,2.2v7.5h-3.2V70z"/>
<path class="st0" d="M58.3,90.8h-3.5l1.7-4.3l-4.9-12.3h3.5l3.1,8.2l3.1-8.2h3.5L58.3,90.8z"/>
<path class="st0" d="M103.5,70c3.3,0,5.6,1.7,5.6,4.2c0,0.6-0.1,1.3-0.4,1.8c-0.3,0.6-0.7,1.1-1.2,1.4c0.7,0.4,1.2,1.1,1.6,1.8
	c0.4,0.7,0.6,1.5,0.5,2.3c0,3-2.3,5.1-5.6,5.1h-7.2V70H103.5z M100.1,73.1v3.4h3.4c1.4,0,2.2-0.6,2.2-1.7c0-1.1-0.9-1.7-2.2-1.7
	H100.1z M100.1,79.6v3.9h3.9c1.4,0,2.2-0.7,2.2-2s-0.9-2-2.2-2H100.1z"/>
<path class="st0" d="M110.8,80.4c0-3.8,2.7-6.5,6.5-6.5c3.8,0,6.5,2.7,6.5,6.5c0,3.8-2.7,6.5-6.5,6.5
	C113.5,86.9,110.8,84.2,110.8,80.4z M120.5,80.4c0-2.1-1.3-3.5-3.2-3.5c-2,0-3.2,1.4-3.2,3.5c0,2.1,1.3,3.5,3.2,3.5
	C119.2,83.9,120.5,82.5,120.5,80.4z"/>
<path class="st0" d="M145.6,81.6h-9.4c0.2,0.7,0.6,1.3,1.1,1.7c0.6,0.4,1.3,0.7,2,0.6c1,0,1.9-0.2,2.5-1.1h3.6c-0.6,2.5-3.2,4-6,4
	c-3.8,0-6.5-2.7-6.5-6.5c0-3.8,2.7-6.5,6.5-6.5s6.5,2.7,6.5,6.5C145.7,80.8,145.6,81.2,145.6,81.6L145.6,81.6z M136.2,78.9h6
	c-0.2-0.6-0.6-1.2-1.2-1.5c-0.5-0.4-1.2-0.6-1.8-0.6s-1.3,0.2-1.8,0.6C136.8,77.8,136.4,78.3,136.2,78.9"/>
<path class="st0" d="M159.8,81.6h-9.4c0.2,0.7,0.5,1.3,1.1,1.7c0.6,0.4,1.3,0.7,2,0.6c1,0,1.9-0.2,2.5-1.1h3.6c-0.6,2.5-3.2,4-6,4
	c-3.8,0-6.5-2.7-6.5-6.5c0-3.8,2.7-6.5,6.5-6.5c3.8,0,6.5,2.7,6.5,6.5C160,80.8,159.9,81.2,159.8,81.6L159.8,81.6z M150.5,78.9h6
	c-0.2-0.6-0.6-1.2-1.2-1.5c-0.5-0.4-1.2-0.6-1.8-0.6c-0.7,0-1.3,0.2-1.8,0.6S150.7,78.3,150.5,78.9"/>
<path class="st0" d="M18.9,69.5l3.7-1.6v3.4l-3.7,1.5"/>
<path class="st0" d="M139.4,69.5l3.7-1.6v3.4l-3.7,1.5"/>
<path class="st0" d="M132.1,74.2v3.3l-3.7,0v9.1h-3.2V74.2H132.1z"/>
<path class="st0" d="M73.1,74.2v3.3l-3.7,0v9.1h-3.2V74.2H73.1z"/>
<path class="st0" d="M83.2,75.4c-0.2,0-0.5-0.1-0.6-0.2s-0.3-0.3-0.4-0.5C82,74.4,82,74.2,82.1,74c0-0.2,0.2-0.4,0.3-0.6
	c0.2-0.2,0.4-0.3,0.6-0.3s0.5,0,0.7,0.1c0.2,0.1,0.4,0.2,0.5,0.4s0.2,0.4,0.2,0.6c0,0.3-0.1,0.6-0.3,0.8
	C83.8,75.2,83.5,75.4,83.2,75.4L83.2,75.4z M82.1,83.8c-0.3,0-0.6-0.1-0.9-0.3c-0.3-0.2-0.5-0.4-0.6-0.7c-0.1-0.3-0.2-0.6-0.1-0.9
	c0.1-0.3,0.2-0.6,0.4-0.8c0.2-0.2,0.5-0.4,0.8-0.4c0.3-0.1,0.6,0,0.9,0.1c0.3,0.1,0.5,0.3,0.7,0.6c0.2,0.3,0.3,0.6,0.3,0.9
	c0,0.4-0.2,0.8-0.5,1.1S82.5,83.8,82.1,83.8z M91,80.1l-2.3-2.3l-2.1,2.1l-1.1-1.1c-0.2-0.2-0.4-0.4-0.7-0.6c0.9-0.4,1.7-1,2.2-1.8
	c0.5-0.8,0.7-1.8,0.6-2.8c-0.1-1-0.5-1.9-1.2-2.6c-0.7-0.7-1.6-1.1-2.5-1.3c-1-0.1-1.9,0.1-2.8,0.5c-0.8,0.5-1.5,1.2-1.9,2.1
	c-0.4,0.9-0.5,1.9-0.2,2.8c0.2,0.9,0.8,1.8,1.6,2.4c-0.7,0.2-1.3,0.6-1.8,1.1c-0.5,0.5-0.9,1.1-1.1,1.8c-0.2,0.7-0.3,1.4-0.3,2.1
	c0.1,0.7,0.3,1.4,0.6,2c0.4,0.6,0.8,1.1,1.4,1.5s1.2,0.7,1.9,0.8c0.7,0.1,1.4,0.1,2.1-0.1c0.7-0.2,1.3-0.5,1.8-1l1.3-1.3l2.1,2.1
	l4.6,0l-4.4-4.4L91,80.1z"/>
</svg>
