<svg version="1.1" id="Calque_1" xmlns="http://www.w3.org/2000/svg" xmlns:xlink="http://www.w3.org/1999/xlink" x="0px" y="0px"
	 viewBox="0 0 234 165" style="enable-background:new 0 0 234 165;" xml:space="preserve">
<style type="text/css">
	.st0{fill:#00B2EE;}
	.st1{fill:#362791;}
	.st2{fill:#1056A9;}
	.st3{fill:#007BC3;}
	.st4{fill:#009FE2;}
	.st5{fill:#213544;}
</style>
<path class="st0" d="M129.9,39v38.9c3.3-5.3,5.3-12.8,5.3-19.4V32.4L129.9,39z"/>
<path class="st1" d="M101.2,93.7c1.8,0,3.5-0.1,5.3-0.4v-6.2L101.2,93.7z"/>
<path class="st2" d="M108.4,92.9c1.8-0.4,3.6-0.9,5.3-1.6V73.4l-5.3,6.6V92.9z"/>
<path class="st3" d="M115.5,90.5c1.8-0.9,3.6-1.9,5.3-3.1V59.8l-5.3,6.6V90.5z"/>
<path class="st4" d="M122.7,86c2-1.6,3.7-3.4,5.3-5.4V46l-5.3,6.6V86z"/>
<path class="st3" d="M81.1,119.9h-0.9v4.6h0.9V119.9z"/>
<path class="st3" d="M85,122.8c0-0.2-0.1-0.3-0.2-0.5c-0.1-0.1-0.2-0.2-0.4-0.3c-0.2-0.1-0.3-0.1-0.5,0c-0.2,0-0.3,0.1-0.4,0.3
	c-0.1,0.1-0.2,0.3-0.2,0.5c0,0.2,0,0.3,0.1,0.5c0.1,0.2,0.2,0.3,0.3,0.4c0.1,0.1,0.3,0.1,0.5,0.1c0.1,0,0.2,0,0.4-0.1
	c0.1,0,0.2-0.1,0.3-0.2c0.1-0.1,0.1-0.2,0.2-0.3C85,123.1,85,122.9,85,122.8z M82.3,122.8c0-0.4,0.1-0.7,0.3-1
	c0.2-0.3,0.5-0.5,0.8-0.7c0.3-0.1,0.7-0.2,1-0.1c0.3,0.1,0.7,0.2,0.9,0.5c0.2,0.2,0.4,0.6,0.5,0.9c0.1,0.3,0,0.7-0.1,1
	c-0.1,0.3-0.4,0.6-0.7,0.8c-0.3,0.2-0.6,0.3-1,0.3c-0.2,0-0.5,0-0.7-0.1c-0.2-0.1-0.4-0.2-0.6-0.4c-0.2-0.2-0.3-0.4-0.4-0.6
	C82.3,123.3,82.3,123,82.3,122.8"/>
<path class="st3" d="M89.2,122.7l-0.5,1.9h-0.9l-1.1-3.4h1l0.6,2.2l0.5-2.2h0.9l0.5,2.2l0.6-2.2h1l-1.1,3.4h-0.9L89.2,122.7z"/>
<path class="st3" d="M102.5,122.8c0-0.2-0.1-0.3-0.2-0.5c-0.1-0.1-0.2-0.2-0.4-0.3s-0.3-0.1-0.5,0c-0.2,0-0.3,0.1-0.4,0.3
	c-0.1,0.1-0.2,0.3-0.2,0.5c0,0.2,0,0.3,0.1,0.5c0.1,0.2,0.2,0.3,0.3,0.4c0.1,0.1,0.3,0.1,0.5,0.1c0.1,0,0.2,0,0.4-0.1
	c0.1,0,0.2-0.1,0.3-0.2c0.1-0.1,0.1-0.2,0.2-0.3C102.4,123.1,102.5,122.9,102.5,122.8z M99.8,122.8c0-0.2,0-0.5,0.1-0.7
	c0.1-0.2,0.2-0.4,0.4-0.6c0.2-0.2,0.4-0.3,0.6-0.4c0.2-0.1,0.5-0.1,0.7-0.1c0.3,0,0.6,0.1,0.9,0.3v-0.2h0.9v3.4h-0.9v-0.2
	c-0.3,0.2-0.6,0.3-0.9,0.3c-0.2,0-0.5,0-0.7-0.1c-0.2-0.1-0.4-0.2-0.6-0.4c-0.2-0.2-0.3-0.4-0.4-0.6C99.8,123.3,99.8,123,99.8,122.8
	"/>
<path class="st3" d="M110.5,122.8c0-0.2-0.1-0.3-0.2-0.5c-0.1-0.1-0.2-0.2-0.4-0.3c-0.2-0.1-0.3-0.1-0.5,0c-0.2,0-0.3,0.1-0.4,0.3
	c-0.1,0.1-0.2,0.3-0.2,0.5c0,0.2,0,0.3,0.1,0.5c0.1,0.2,0.2,0.3,0.3,0.4c0.1,0.1,0.3,0.1,0.5,0.1c0.1,0,0.2,0,0.4-0.1
	c0.1,0,0.2-0.1,0.3-0.2c0.1-0.1,0.1-0.2,0.2-0.3C110.5,123.1,110.5,122.9,110.5,122.8L110.5,122.8z M107.9,119.9h0.9v1.4
	c0.3-0.2,0.6-0.3,0.9-0.3c0.5,0,0.9,0.2,1.2,0.5c0.3,0.3,0.5,0.8,0.5,1.2c0,0.5-0.2,0.9-0.5,1.2c-0.3,0.3-0.8,0.5-1.2,0.5
	c-0.3,0-0.6-0.1-0.9-0.3v0.2h-0.9V119.9z"/>
<path class="st3" d="M115.3,122.8c0-0.2-0.1-0.3-0.2-0.5c-0.1-0.1-0.2-0.2-0.4-0.3c-0.2-0.1-0.3-0.1-0.5,0c-0.2,0-0.3,0.1-0.4,0.3
	c-0.1,0.1-0.2,0.3-0.2,0.5c0,0.2,0,0.3,0.1,0.5c0.1,0.2,0.2,0.3,0.3,0.4c0.1,0.1,0.3,0.1,0.5,0.1c0.1,0,0.2,0,0.4-0.1
	c0.1,0,0.2-0.1,0.3-0.2c0.1-0.1,0.1-0.2,0.2-0.3C115.3,123.1,115.3,122.9,115.3,122.8L115.3,122.8z M112.6,122.8
	c0-0.4,0.1-0.7,0.3-1c0.2-0.3,0.5-0.5,0.8-0.7c0.3-0.1,0.7-0.2,1-0.1c0.3,0.1,0.7,0.2,0.9,0.5c0.2,0.2,0.4,0.6,0.5,0.9
	c0.1,0.3,0,0.7-0.1,1c-0.1,0.3-0.4,0.6-0.7,0.8c-0.3,0.2-0.6,0.3-1,0.3c-0.2,0-0.5,0-0.7-0.1c-0.2-0.1-0.4-0.2-0.6-0.4
	c-0.2-0.2-0.3-0.4-0.4-0.6C112.6,123.3,112.6,123,112.6,122.8"/>
<path class="st3" d="M117.4,121.1h0.9v0.2c0.2-0.2,0.5-0.3,0.8-0.3c0.2,0,0.4,0,0.5,0.1c0.2,0.1,0.3,0.2,0.5,0.3
	c0.1,0.1,0.2,0.3,0.3,0.5c0.1,0.2,0.1,0.4,0.1,0.6v2.1h-0.9v-2.1c0-0.2-0.1-0.3-0.2-0.4c-0.1-0.1-0.3-0.2-0.4-0.2
	c-0.2,0-0.3,0.1-0.4,0.2c-0.1,0.1-0.2,0.3-0.2,0.4v2.1h-0.9L117.4,121.1z"/>
<path class="st3" d="M126.3,123.5c0,0.6-0.5,1-1.2,1c-0.7,0-1.2-0.4-1.2-1.1h0.9c0,0,0,0.1,0,0.1c0,0,0,0.1,0.1,0.1
	c0,0,0.1,0.1,0.1,0.1c0,0,0.1,0,0.1,0c0.2,0,0.3-0.1,0.3-0.3c0-0.6-1.4-0.2-1.4-1.5c0-0.1,0-0.3,0.1-0.4c0.1-0.1,0.1-0.2,0.2-0.3
	c0.1-0.1,0.2-0.2,0.4-0.2c0.1,0,0.3-0.1,0.4-0.1c0.7,0,1.2,0.4,1.2,1.1h-0.9c0,0,0-0.1,0-0.1c0,0,0-0.1-0.1-0.1c0,0-0.1-0.1-0.1-0.1
	c0,0-0.1,0-0.1,0c-0.2,0-0.3,0.1-0.3,0.3C124.8,122.6,126.3,122.3,126.3,123.5"/>
<path class="st3" d="M127.6,119.9h0.9v1.3c0.2-0.2,0.5-0.2,0.8-0.2c0.2,0,0.4,0,0.5,0.1c0.2,0.1,0.3,0.2,0.5,0.3
	c0.1,0.1,0.2,0.3,0.3,0.5c0.1,0.2,0.1,0.4,0.1,0.6v2.1h-0.9v-2.1c0-0.2-0.1-0.3-0.2-0.4c-0.1-0.1-0.3-0.2-0.4-0.2
	c-0.2,0-0.3,0.1-0.4,0.2c-0.1,0.1-0.2,0.3-0.2,0.4v2.1h-0.9L127.6,119.9z"/>
<path class="st3" d="M131.9,124.5h0.9v-3.4h-0.9V124.5z M131.9,120.8h0.9v-0.8h-0.9V120.8z"/>
<path class="st3" d="M135,122.8c0,0.2,0.1,0.3,0.2,0.5c0.1,0.1,0.2,0.2,0.4,0.3c0.2,0.1,0.3,0.1,0.5,0c0.2,0,0.3-0.1,0.4-0.3
	c0.1-0.1,0.2-0.3,0.2-0.5c0-0.2,0-0.3-0.1-0.5c-0.1-0.2-0.2-0.3-0.3-0.4c-0.1-0.1-0.3-0.1-0.5-0.1c-0.1,0-0.2,0-0.4,0.1
	c-0.1,0-0.2,0.1-0.3,0.2c-0.1,0.1-0.1,0.2-0.2,0.3C135,122.6,135,122.7,135,122.8L135,122.8z M135,121.1v0.2
	c0.3-0.2,0.6-0.3,0.9-0.3c0.5,0,0.9,0.2,1.3,0.5c0.3,0.3,0.5,0.8,0.5,1.3s-0.2,0.9-0.5,1.3s-0.8,0.5-1.3,0.5c-0.3,0-0.6-0.1-0.9-0.3
	v1.4h-0.9v-4.6H135z"/>
<path class="st3" d="M139.6,122.8c0,0.2,0.1,0.3,0.2,0.5c0.1,0.1,0.2,0.2,0.4,0.3c0.2,0.1,0.3,0.1,0.5,0c0.2,0,0.3-0.1,0.4-0.3
	c0.1-0.1,0.2-0.3,0.2-0.5c0-0.2,0-0.3-0.1-0.5c-0.1-0.2-0.2-0.3-0.3-0.4c-0.1-0.1-0.3-0.1-0.5-0.1c-0.1,0-0.2,0-0.4,0.1
	c-0.1,0-0.2,0.1-0.3,0.2c-0.1,0.1-0.1,0.2-0.2,0.3C139.6,122.6,139.6,122.7,139.6,122.8L139.6,122.8z M139.6,121.1v0.2
	c0.3-0.2,0.6-0.3,0.9-0.3c0.5,0,0.9,0.2,1.3,0.5c0.3,0.3,0.5,0.8,0.5,1.3s-0.2,0.9-0.5,1.3c-0.3,0.3-0.8,0.5-1.3,0.5
	c-0.3,0-0.6-0.1-0.9-0.3v1.4h-0.9v-4.6H139.6z"/>
<path class="st3" d="M143.4,124.5h0.9v-3.4h-0.9V124.5z M143.4,120.8h0.9v-0.8h-0.9V120.8z"/>
<path class="st3" d="M145.6,121.1h0.9v0.2c0.2-0.2,0.5-0.3,0.8-0.3c0.2,0,0.4,0,0.5,0.1c0.2,0.1,0.3,0.2,0.5,0.3
	c0.1,0.1,0.2,0.3,0.3,0.5c0.1,0.2,0.1,0.4,0.1,0.6v2.1h-0.9v-2.1c0-0.2-0.1-0.3-0.2-0.4c-0.1-0.1-0.3-0.2-0.4-0.2
	c-0.2,0-0.3,0.1-0.4,0.2c-0.1,0.1-0.2,0.3-0.2,0.4v2.1h-0.9L145.6,121.1z"/>
<path class="st3" d="M152.5,122.7c0-0.2,0-0.4-0.1-0.5c-0.1-0.2-0.2-0.3-0.4-0.4c-0.2-0.1-0.3-0.1-0.5-0.1c-0.2,0-0.3,0.1-0.5,0.2
	c-0.1,0.1-0.2,0.3-0.3,0.5c0,0.2,0,0.4,0,0.5c0.1,0.2,0.2,0.3,0.3,0.4c0.1,0.1,0.3,0.2,0.5,0.2c0.1,0,0.2,0,0.3,0
	c0.1,0,0.2-0.1,0.3-0.2c0.1-0.1,0.2-0.2,0.2-0.3C152.5,122.9,152.5,122.8,152.5,122.7L152.5,122.7z M151.6,124.9
	c0.1,0,0.2,0,0.3-0.1c0.1,0,0.2-0.1,0.3-0.2c0.1-0.1,0.1-0.2,0.2-0.3c0-0.1,0.1-0.2,0.1-0.3c-0.3,0.2-0.6,0.3-0.9,0.3
	c-1,0-1.8-0.7-1.8-1.6s0.7-1.6,1.8-1.6c0.3,0,0.6,0.1,0.9,0.3v-0.2h0.9v2.9c0,0.2,0,0.5-0.1,0.7s-0.2,0.4-0.4,0.6
	c-0.2,0.2-0.4,0.3-0.6,0.4c-0.2,0.1-0.5,0.1-0.7,0.1c-0.9,0-1.7-0.6-1.7-1.4h0.9c0,0.2,0.1,0.4,0.3,0.5
	C151.3,124.9,151.5,125,151.6,124.9"/>
<path class="st3" d="M97.6,123.2c-0.1,0.2-0.2,0.3-0.3,0.4c-0.1,0.1-0.3,0.1-0.5,0.1c-0.2,0-0.5-0.1-0.6-0.3
	c-0.2-0.2-0.3-0.4-0.3-0.7c0-0.2,0.1-0.5,0.3-0.7s0.4-0.3,0.6-0.3c0.2,0,0.3,0,0.5,0.1c0.1,0.1,0.3,0.2,0.3,0.4h0.9
	c-0.1-0.4-0.4-0.8-0.7-1c-0.4-0.2-0.8-0.3-1.2-0.3c-0.4,0.1-0.8,0.3-1.1,0.6c-0.3,0.3-0.4,0.7-0.4,1.2c0,0.4,0.2,0.9,0.4,1.2
	c0.3,0.3,0.7,0.5,1.1,0.6c0.4,0.1,0.9,0,1.2-0.3c0.4-0.2,0.6-0.6,0.7-1H97.6z"/>
<path class="st3" d="M106.6,121.1h-1h-0.9v0.9v2.5h0.9V122h1V121.1z"/>
<path class="st5" d="M42.2,97.7v2.9h6.9l-6.9,9.7v2.9h10.6v-2.9H46l6.9-9.7v-2.9H42.2z"/>
<path class="st5" d="M65.6,108.6h-8.8c0.1,0.6,0.5,1.2,1,1.6s1.2,0.6,1.8,0.6c1,0,1.8-0.2,2.3-1h3.3c-0.6,2.3-2.9,3.7-5.6,3.7
	c-3.5,0-6-2.5-6-6c0-3.5,2.5-6,6-6c3.5,0,6,2.5,6,6C65.7,107.9,65.7,108.2,65.6,108.6L65.6,108.6z M56.9,106.1h5.6
	c-0.2-0.6-0.6-1.1-1.1-1.4c-0.5-0.4-1.1-0.5-1.7-0.5c-0.6,0-1.2,0.2-1.7,0.5C57.5,105,57.1,105.5,56.9,106.1z"/>
<path class="st5" d="M69.9,101.7v0.7c0.9-0.6,1.9-1,3-1c3.5,0,6,2.5,6,6c0,3.5-2.5,6-6,6c-1.1,0-2.1-0.3-3-1v4.7h-3v-15.6H69.9z
	 M69.9,107.5c0,2,1.2,3.2,3,3.2c1.8,0,3-1.3,3-3.2s-1.2-3.2-3-3.2S69.9,105.5,69.9,107.5"/>
<path class="st5" d="M80.1,97.7h3v4.5c0.8-0.5,1.7-0.8,2.6-0.8c2.7,0,4.7,2,4.7,4.9v7h-3v-7c0-0.3,0-0.6-0.1-0.8
	c-0.1-0.3-0.3-0.5-0.5-0.7c-0.2-0.2-0.4-0.3-0.7-0.4c-0.3-0.1-0.5-0.1-0.8-0.1c-1.3,0-2.2,0.9-2.2,2.1v7h-3V97.7z"/>
<path class="st5" d="M96.7,117.2h-3.2l1.6-4.1l-4.5-11.5h3.2l2.9,7.6l2.9-7.6h3.2L96.7,117.2z"/>
<path class="st5" d="M138.9,97.7c3,0,5.2,1.6,5.2,3.9c0,0.6-0.1,1.2-0.4,1.7c-0.3,0.5-0.7,1-1.1,1.3c0.6,0.4,1.1,1,1.5,1.7
	s0.5,1.4,0.5,2.2c0,2.8-2.2,4.7-5.2,4.7h-6.8V97.7H138.9z M135.7,100.6v3.2h3.2c1.3,0,2.1-0.6,2.1-1.6c0-1-0.8-1.6-2.1-1.6H135.7z
	 M135.7,106.7v3.7h3.6c1.3,0,2.1-0.6,2.1-1.8c0-1.2-0.8-1.8-2.1-1.8H135.7z"/>
<path class="st5" d="M145.7,107.5c0-3.5,2.5-6,6-6s6,2.5,6,6c0,3.5-2.5,6-6,6C148.2,113.5,145.7,111,145.7,107.5z M154.8,107.5
	c0-2-1.2-3.2-3-3.2s-3,1.3-3,3.2s1.2,3.2,3,3.2S154.8,109.4,154.8,107.5z"/>
<path class="st5" d="M178.2,108.6h-8.8c0.1,0.6,0.5,1.2,1,1.6c0.5,0.4,1.2,0.6,1.8,0.6c1,0,1.8-0.2,2.3-1h3.3
	c-0.6,2.3-2.9,3.7-5.6,3.7c-3.5,0-6-2.5-6-6c0-3.5,2.5-6,6-6c3.5,0,6,2.5,6,6C178.3,107.9,178.2,108.2,178.2,108.6L178.2,108.6z
	 M169.4,106.1h5.6c-0.2-0.6-0.6-1.1-1.1-1.4c-0.5-0.4-1.1-0.5-1.7-0.5c-0.6,0-1.2,0.2-1.7,0.5C170,105,169.6,105.5,169.4,106.1"/>
<path class="st5" d="M191.5,108.6h-8.8c0.1,0.6,0.5,1.2,1,1.6c0.5,0.4,1.2,0.6,1.8,0.6c1,0,1.8-0.2,2.3-1h3.3
	c-0.6,2.3-2.9,3.7-5.6,3.7c-3.5,0-6-2.5-6-6c0-3.5,2.5-6,6-6s6,2.5,6,6C191.6,107.9,191.6,108.2,191.5,108.6L191.5,108.6z
	 M182.8,106.1h5.6c-0.2-0.6-0.6-1.1-1.1-1.4c-0.5-0.4-1.1-0.5-1.7-0.5s-1.2,0.2-1.7,0.5C183.4,105,183,105.5,182.8,106.1"/>
<path class="st5" d="M59.9,97.3l3.5-1.5v3.1l-3.5,1.4"/>
<path class="st5" d="M172.4,97.3l3.5-1.5v3.1l-3.5,1.4"/>
<path class="st5" d="M165.6,101.7v3.1l-3.5,0v8.5h-3v-11.6H165.6z"/>
<path class="st5" d="M110.5,101.7v3.1l-3.5,0v8.5h-3v-11.6H110.5z"/>
<path class="st5" d="M119.9,102.8c-0.2,0-0.4-0.1-0.6-0.2c-0.2-0.1-0.3-0.3-0.4-0.5c-0.1-0.2-0.1-0.4-0.1-0.6c0-0.2,0.1-0.4,0.3-0.6
	c0.2-0.2,0.3-0.3,0.6-0.3c0.2,0,0.4,0,0.6,0.1c0.2,0.1,0.4,0.2,0.5,0.4c0.1,0.2,0.2,0.4,0.2,0.6c0,0.3-0.1,0.6-0.3,0.8
	C120.5,102.6,120.2,102.8,119.9,102.8L119.9,102.8z M118.9,110.6c-0.3,0-0.6-0.1-0.8-0.2c-0.2-0.2-0.4-0.4-0.5-0.7
	c-0.1-0.3-0.1-0.6-0.1-0.9s0.2-0.6,0.4-0.8c0.2-0.2,0.5-0.3,0.8-0.4c0.3-0.1,0.6,0,0.9,0.1c0.3,0.1,0.5,0.3,0.7,0.5
	c0.2,0.2,0.2,0.5,0.2,0.8c0,0.4-0.2,0.8-0.4,1S119.3,110.6,118.9,110.6z M127.2,107.2l-2.1-2.1l-2,2l-1-1c-0.2-0.2-0.4-0.4-0.6-0.6
	c0.8-0.3,1.5-0.9,2-1.7c0.5-0.8,0.7-1.7,0.5-2.6c-0.1-0.9-0.5-1.7-1.1-2.4c-0.6-0.6-1.5-1.1-2.4-1.2c-0.9-0.1-1.8,0-2.6,0.5
	c-0.8,0.4-1.4,1.1-1.8,2c-0.4,0.8-0.4,1.8-0.2,2.6c0.2,0.9,0.7,1.7,1.5,2.2c-0.6,0.2-1.2,0.6-1.7,1c-0.5,0.5-0.8,1-1.1,1.6
	c-0.2,0.6-0.3,1.3-0.3,1.9c0.1,0.7,0.3,1.3,0.6,1.9c0.3,0.6,0.8,1.1,1.3,1.4c0.5,0.4,1.2,0.6,1.8,0.7c0.7,0.1,1.3,0.1,2-0.1
	s1.2-0.5,1.7-0.9l1.2-1.2l2,2l4.3,0l-4.1-4.1L127.2,107.2z"/>
</svg>
