<svg id="Calque_1" data-name="Calque 1" xmlns="http://www.w3.org/2000/svg" viewBox="0 0 841.89 595.28"><defs><style>.cls-1{fill:#fff}</style></defs><path class="cls-1" d="M184.85 210.82v140.37c12-19 19-45.95 19-70.07V187zM81.46 408.27a122.73 122.73 0 0019-1.51v-22.31zM107.31 405.47a121.54 121.54 0 0019-5.79v-64.59l-19 23.82zM133.16 396.74a122 122 0 0019-11.1v-99.91l-19 23.81zM159 380.45a123.36 123.36 0 0019-19.55V236l-19 23.82zM232.3 288.17v10.46h24.85l-24.85 35.14v10.46h38.4v-10.46h-24.85l24.85-35.14v-10.46h-38.4zM316.71 327.49H285a10.21 10.21 0 0010.38 7.95c3.43 0 6.44-.83 8.29-3.76h12c-2.09 8.45-10.63 13.38-20.33 13.38-12.72 0-21.75-8.95-21.75-21.75s9-21.75 21.75-21.75 21.76 9 21.76 21.75a22.87 22.87 0 01-.42 4.18m-31.46-9.2h20.24a10.76 10.76 0 00-20.24 0M332.1 302.39v2.68a17.78 17.78 0 0110.9-3.51c12.72 0 21.76 8.95 21.76 21.75s-9 21.75-21.76 21.75a17.78 17.78 0 01-10.87-3.51v16.9h-10.91v-56.06zm0 20.92c0 7.11 4.26 11.71 10.87 11.71s10.88-4.6 10.88-11.71-4.27-11.71-10.85-11.71-10.87 4.6-10.87 11.71M368.83 288.17h10.87v16.15a16.78 16.78 0 019.46-2.76c9.79 0 16.89 7.28 16.89 17.57v25.1h-10.87v-25.1a7.34 7.34 0 00-7.7-7.53c-4.6 0-7.78 3.09-7.78 7.53v25.1h-10.87zM428.64 358.45h-11.63l5.78-14.64-16.4-41.42h11.71l10.46 27.53 10.54-27.53h11.72l-22.18 56.06zM581 288.17c11 0 18.83 5.69 18.83 14.14a13.57 13.57 0 01-5.52 11 16.08 16.08 0 017.19 13.81c0 10.21-7.87 17.07-18.83 17.07h-24.46v-56.02zm-11.46 10.46v11.46H581c4.6 0 7.53-2 7.53-5.69s-2.93-5.77-7.53-5.77zm0 21.92v13.22h13.13c4.61 0 7.54-2.34 7.54-6.61s-2.93-6.61-7.54-6.61zM605.66 323.31c0-12.72 9-21.75 21.75-21.75s21.75 9 21.75 21.75-9 21.75-21.75 21.75-21.75-8.95-21.75-21.75m32.63 0c0-7.11-4.27-11.71-10.88-11.71s-10.88 4.6-10.88 11.71S620.8 335 627.41 335s10.88-4.6 10.88-11.71M722.69 327.49H691a10.2 10.2 0 0010.37 7.95c3.43 0 6.45-.83 8.29-3.76h12.05c-2.1 8.45-10.63 13.38-20.34 13.38-12.71 0-21.75-8.95-21.75-21.75s9-21.75 21.75-21.75 21.76 9 21.76 21.75a22.87 22.87 0 01-.42 4.18m-31.46-9.2h20.25a10.76 10.76 0 00-20.25 0M770.78 327.49h-31.71a10.21 10.21 0 0010.38 7.95c3.43 0 6.44-.83 8.28-3.76h12c-2.09 8.45-10.62 13.38-20.33 13.38-12.72 0-21.75-8.95-21.75-21.75s9-21.75 21.75-21.75 21.75 9 21.75 21.75a22 22 0 01-.42 4.18m-31.46-9.2h20.25a10.76 10.76 0 00-20.25 0M295.92 286.68l12.55-5.44v11.3l-12.55 5.02M701.91 286.68l12.55-5.44v11.3l-12.55 5.02M677.44 302.39v11.05l-12.55.01v30.78h-10.87v-41.84h23.42zM478.47 302.39v11.05l-12.55.01v30.78h-10.88v-41.84h23.43zM512.58 306.33a3.94 3.94 0 113.94-3.94 3.93 3.93 0 01-3.94 3.94m-3.79 28.34a5.33 5.33 0 115.34-5.33 5.33 5.33 0 01-5.34 5.33m30-12.4l-7.68-7.68-7.11 7.08-3.6-3.6a15.92 15.92 0 00-2.3-1.95 14.83 14.83 0 10-14.6-2.07 16.18 16.18 0 1016 27.44L524 337l7.21 7.2 15.41.05-14.94-14.93zM522.54 358.29h3v15.49h-3zM538.72 368a3 3 0 10-3 3.23 2.93 2.93 0 003-3.23m-9 0a6 6 0 116 6 5.79 5.79 0 01-6-6M553.19 367.49l-1.8 6.29h-3.12l-3.66-11.56h3.24l1.96 7.37 1.81-7.37h3.12l1.78 7.37 1.99-7.37h3.24l-3.66 11.56h-3.12l-1.78-6.29zM597.81 368a3 3 0 10-3 3.23 2.93 2.93 0 003-3.23m-9 0a5.78 5.78 0 016-6 4.91 4.91 0 013 1v-.74h3v11.56h-3V373a5 5 0 01-3 1 5.77 5.77 0 01-6-6M625.08 368a3 3 0 10-3 3.24 2.93 2.93 0 003-3.24m-9-9.71h3V363a4.91 4.91 0 013-1 6 6 0 010 12 5 5 0 01-3-1v.74h-3zM641 368a3 3 0 10-3 3.23 2.93 2.93 0 003-3.23m-9 0a6 6 0 116 6 5.78 5.78 0 01-6-6M648.2 362.22h3v.78a3.84 3.84 0 012.62-1 4.59 4.59 0 014.67 4.85v6.93h-3v-6.93a2.14 2.14 0 00-4.28 0v6.93h-3zM678.34 370.49c0 2.11-1.68 3.52-4 3.52a3.69 3.69 0 01-4-3.7h3a1 1 0 001 1.11.89.89 0 001-.93c0-2-4.82-.69-4.82-5a3.5 3.5 0 013.8-3.49c2.36 0 4 1.48 4 3.67h-3a1 1 0 00-1-1.08c-.62 0-1 .29-1 .9 0 2 5.06.71 5.06 5M682.62 358.29h3v4.46a4.64 4.64 0 012.62-.76 4.59 4.59 0 014.67 4.85v6.94h-3v-6.94a2.14 2.14 0 00-4.28 0v6.94h-3zM697.3 373.78h3v-11.56h-3zm0-12.72h3v-2.77h-3zM707.7 368a3 3 0 103-3.24 2.93 2.93 0 00-3 3.24m0-5.78v.78a4.91 4.91 0 013-1 6 6 0 010 12 5 5 0 01-3-1v4.67h-3v-15.45zM723.32 368a3 3 0 103-3.24 2.93 2.93 0 00-3 3.24m0-5.78v.78a4.9 4.9 0 013-1 6 6 0 110 12 5 5 0 01-3-1v4.67h-3v-15.45zM736.07 373.78h3v-11.56h-3zm0-12.72h3v-2.77h-3zM743.47 362.22h3v.78a3.84 3.84 0 012.62-1 4.59 4.59 0 014.67 4.85v6.93h-3v-6.93a2.14 2.14 0 00-4.28 0v6.93h-3zM766.93 367.53a3 3 0 10-3 2.78 2.71 2.71 0 003-2.78m-3 7.63a2.9 2.9 0 003-3 5 5 0 01-3 .9c-3.51 0-6-2.31-6-5.55s2.5-5.54 6-5.54a5 5 0 013 .9v-.67h3v9.71a5.77 5.77 0 01-6 6c-3.07 0-5.57-1.85-5.83-4.86h3.08a2.51 2.51 0 002.75 2.08M581.56 369.44a2.74 2.74 0 01-2.71 1.79 3.24 3.24 0 010-6.47 2.76 2.76 0 012.68 1.69h3.15a6 6 0 100 3zM611.68 362.2h-6.48v11.57h2.99v-8.57h3.49v-3z"/></svg>