<?xml version="1.0" encoding="utf-8"?>
<!-- Generator: Adobe Illustrator 23.1.1, SVG Export Plug-In . SVG Version: 6.00 Build 0)  -->
<svg version="1.1" id="Calque_1" xmlns="http://www.w3.org/2000/svg" xmlns:xlink="http://www.w3.org/1999/xlink" x="0px" y="0px"
	 viewBox="0 0 90 100" style="enable-background:new 0 0 90 100;" xml:space="preserve">
<style type="text/css">
	.st0{clip-path:url(#SVGID_2_);}
	.st1{fill:#00AFEA;}
</style>
<g>
	<defs>
		<rect id="SVGID_1_" width="90" height="100"/>
	</defs>
	<clipPath id="SVGID_2_">
		<use xlink:href="#SVGID_1_"  style="overflow:visible;"/>
	</clipPath>
	<g class="st0">
		<path class="st1" d="M66.7,60.7l4.1-4.1c0.2-0.2,0.2-0.5,0-0.7l-4-4.9c2.5-3.3,4-7.1,4.7-11.1l6.4-0.6c0.3,0,0.5-0.3,0.5-0.5v-5.8
			c0-0.3-0.2-0.5-0.5-0.5L71.5,32c-0.6-4-2.2-7.8-4.7-11.1l4.1-4.9c0.1-0.2,0.1-0.5,0-0.7l-4.2-4.1c-0.2-0.2-0.5-0.2-0.7,0l-5,4
			c-3.4-2.4-7.2-3.9-11.3-4.6L49,4.4c0-0.3-0.3-0.5-0.5-0.5h-5.9c-0.3,0-0.5,0.2-0.5,0.5l-0.6,6.3c-4.1,0.6-7.9,2.2-11.3,4.6l-5.1-4
			c-0.2-0.1-0.5-0.1-0.7,0l-4.1,4.1c-0.2,0.2-0.2,0.5,0,0.7l4.1,4.9c-2.5,3.3-4,7.1-4.6,11.1l-6.5,0.5c-0.3,0-0.5,0.3-0.5,0.5v5.8
			c0,0.3,0.2,0.5,0.5,0.5l6.4,0.6c0.6,4,2.2,7.8,4.6,11.1l-4,5c-0.1,0.2-0.1,0.5,0,0.7l4.1,4.1c0.2,0.2,0.5,0.2,0.7,0l5-4
			c3.4,2.4,7.2,3.9,11.3,4.6l0.6,6.3c0,0.3,0.3,0.5,0.5,0.5h6c0.3,0,0.5-0.2,0.5-0.5l0.6-6.3c4.1-0.6,7.9-2.2,11.3-4.6l5,4
			C66.2,60.9,66.4,60.9,66.7,60.7z M60.7,55.7c-3.4,2.5-7.4,4.1-11.5,4.7c-0.2,0-0.4,0.2-0.4,0.5L48.1,67h-5l-0.6-6.2
			c0-0.2-0.2-0.4-0.4-0.5c-4.1-0.6-8.2-2.2-11.5-4.7c-0.2-0.1-0.4-0.1-0.6,0L25,59.6l-3.5-3.4l4-4.8c0.1-0.2,0.1-0.4,0-0.6
			c-2.5-3.3-4.2-7.2-4.8-11.3c0-0.2-0.2-0.4-0.5-0.4l-6.3-0.6v-4.9l6.3-0.6c0.2,0,0.4-0.2,0.5-0.4c0.6-4.1,2.2-8,4.8-11.3
			c0.1-0.2,0.1-0.4,0-0.6l-4-4.8l3.5-3.4l4.9,3.9c0.2,0.1,0.4,0.1,0.6,0c3.4-2.5,7.4-4.1,11.5-4.7c0.2,0,0.4-0.2,0.4-0.5l0.6-6.2h5
			l0.6,6.2c0,0.2,0.2,0.4,0.4,0.5c4.1,0.5,8.2,2.2,11.5,4.7c0.2,0.1,0.4,0.1,0.6,0l4.9-3.9l3.5,3.4l-4,4.8c-0.1,0.2-0.1,0.4,0,0.6
			c2.5,3.3,4.2,7.2,4.8,11.3c0,0.2,0.2,0.4,0.5,0.4l6.3,0.6v4.9L71,39c-0.2,0-0.4,0.2-0.5,0.4c-0.6,4.1-2.2,8-4.8,11.3
			c-0.1,0.2-0.1,0.4,0,0.6l4,4.8l-3.5,3.4l-4.9-3.9C61.1,55.5,60.8,55.5,60.7,55.7z"/>
		<path class="st1" d="M28.6,68.5H12.2v-16c0-0.3-0.2-0.5-0.5-0.5c-0.3,0-0.5,0.2-0.5,0.5V69c0,0.3,0.2,0.5,0.5,0.5h16.9
			c0.3,0,0.5-0.2,0.5-0.5S28.9,68.5,28.6,68.5z"/>
		<path class="st1" d="M62.4,3.4h16.4v16c0,0.3,0.2,0.5,0.5,0.5c0.3,0,0.5-0.2,0.5-0.5V2.9c0-0.3-0.2-0.5-0.5-0.5H62.4
			c-0.3,0-0.5,0.2-0.5,0.5S62.2,3.4,62.4,3.4z"/>
		<path class="st1" d="M79.9,69V52.5c0-0.3-0.2-0.5-0.5-0.5c-0.3,0-0.5,0.2-0.5,0.5v16H62.4c-0.3,0-0.5,0.2-0.5,0.5s0.2,0.5,0.5,0.5
			h16.9C79.6,69.6,79.9,69.3,79.9,69z"/>
		<path class="st1" d="M11.2,2.9v16.5c0,0.3,0.2,0.5,0.5,0.5c0.3,0,0.5-0.2,0.5-0.5v-16h16.4c0.3,0,0.5-0.2,0.5-0.5
			s-0.2-0.5-0.5-0.5H11.7C11.5,2.5,11.2,2.7,11.2,2.9z"/>
		<path class="st1" d="M86.6,39.2c-0.3,0-0.5,0.2-0.5,0.5v7.7c0,0.3,0.2,0.5,0.5,0.5c0.3,0,0.5-0.2,0.5-0.5v-7.6
			C87.1,39.5,86.9,39.2,86.6,39.2z"/>
		<path class="st1" d="M86.6,49.5c-0.3,0-0.5,0.2-0.5,0.5v2.5c0,0.3,0.2,0.5,0.5,0.5c0.3,0,0.5-0.2,0.5-0.5V50
			C87.1,49.8,86.9,49.5,86.6,49.5z"/>
		<path class="st1" d="M3.9,24.6c-0.3,0-0.5,0.2-0.5,0.5v7.7c0,0.3,0.2,0.5,0.5,0.5s0.5-0.2,0.5-0.5v-7.7
			C4.4,24.8,4.2,24.6,3.9,24.6z"/>
		<path class="st1" d="M3.9,34.8c-0.3,0-0.5,0.2-0.5,0.5v2.5c0,0.3,0.2,0.5,0.5,0.5s0.5-0.2,0.5-0.5v-2.5C4.4,35,4.2,34.8,3.9,34.8z
			"/>
		<path class="st1" d="M48.2,71.8c-0.2-0.2-0.6-0.2-0.7,0c-0.2,0.2-0.2,0.6,0,0.7l1.2,1.2c0.1,0.1,0.2,0.1,0.4,0.1
			c0.1,0,0.3-0.1,0.4-0.1c0.2-0.2,0.2-0.6,0-0.7L48.2,71.8z"/>
		<path class="st1" d="M52,75.6c-0.2-0.2-0.6-0.2-0.7,0c-0.2,0.2-0.2,0.6,0,0.7l1.2,1.2c0.1,0.1,0.2,0.1,0.4,0.1s0.3-0.1,0.4-0.1
			c0.2-0.2,0.2-0.5,0-0.7L52,75.6z"/>
		<path class="st1" d="M48.7,75.6l-1.2,1.2c-0.2,0.2-0.2,0.6,0,0.7c0.1,0.1,0.2,0.1,0.4,0.1s0.3-0.1,0.4-0.1l1.2-1.2
			c0.2-0.2,0.2-0.5,0-0.7C49.1,75.4,48.9,75.4,48.7,75.6z"/>
		<path class="st1" d="M52.5,71.8l-1.2,1.2c-0.2,0.2-0.2,0.5,0,0.7c0.1,0.1,0.2,0.1,0.4,0.1c0.1,0,0.3-0.1,0.4-0.1l1.2-1.2
			c0.2-0.2,0.2-0.6,0-0.7C53,71.6,52.7,71.6,52.5,71.8z"/>
		<path class="st1" d="M1.8,58.8c-0.2-0.2-0.6-0.2-0.7,0c-0.2,0.2-0.2,0.5,0,0.7l1.2,1.2c0.1,0.1,0.2,0.1,0.4,0.1
			c0.1,0,0.3-0.1,0.4-0.1c0.2-0.2,0.2-0.5,0-0.7L1.8,58.8z"/>
		<path class="st1" d="M5.6,62.5c-0.2-0.2-0.6-0.2-0.7,0c-0.2,0.2-0.2,0.6,0,0.7l1.2,1.2c0.1,0.1,0.2,0.1,0.4,0.1
			c0.1,0,0.3-0.1,0.4-0.1c0.2-0.2,0.2-0.5,0-0.7L5.6,62.5z"/>
		<path class="st1" d="M2.2,62.5l-1.2,1.2c-0.2,0.2-0.2,0.6,0,0.7c0.1,0.1,0.2,0.1,0.4,0.1c0.1,0,0.3-0.1,0.4-0.1L3,63.2
			c0.2-0.2,0.2-0.5,0-0.7C2.7,62.4,2.5,62.3,2.2,62.5z"/>
		<path class="st1" d="M6.1,58.8l-1.2,1.2c-0.2,0.2-0.2,0.5,0,0.7c0.1,0.1,0.2,0.1,0.4,0.1c0.1,0,0.3-0.1,0.4-0.1l1.2-1.2
			c0.2-0.2,0.2-0.6,0-0.7C6.6,58.6,6.3,58.5,6.1,58.8z"/>
		<path class="st1" d="M22.2,74.1c-1.4,0-2.5,1.1-2.5,2.5s1.1,2.5,2.5,2.5c1.4,0,2.5-1.1,2.5-2.5C24.8,75.3,23.6,74.1,22.2,74.1z
			 M22.2,78c-0.8,0-1.5-0.6-1.5-1.4s0.6-1.4,1.5-1.4c0.8,0,1.5,0.6,1.5,1.4S23,78,22.2,78z"/>
		<path class="st1" d="M52.4,0.5c1.4,0,2.5-1.1,2.5-2.5c0-1.4-1.1-2.5-2.5-2.5c-1.4,0-2.5,1.1-2.5,2.5C49.9-0.6,51,0.5,52.4,0.5z
			 M52.4-3.4c0.8,0,1.5,0.6,1.5,1.4s-0.6,1.4-1.5,1.4c-0.8,0-1.5-0.6-1.5-1.4C50.8-2.8,51.5-3.4,52.4-3.4z"/>
		<path class="st1" d="M79.7,75c0-0.3-0.2-0.5-0.5-0.5h-9.5c-0.3,0-0.5,0.2-0.5,0.5s0.2,0.5,0.5,0.5h9.5
			C79.5,75.5,79.7,75.3,79.7,75z"/>
		<path class="st1" d="M85.4,74.5h-3.1c-0.3,0-0.5,0.2-0.5,0.5s0.2,0.5,0.5,0.5h3.1c0.3,0,0.5-0.2,0.5-0.5
			C85.9,74.7,85.6,74.5,85.4,74.5z"/>
		<path class="st1" d="M85.4,77.7h-6.6c-0.3,0-0.5,0.2-0.5,0.5s0.2,0.5,0.5,0.5h6.6c0.3,0,0.5-0.2,0.5-0.5
			C85.9,77.9,85.6,77.7,85.4,77.7z"/>
		<path class="st1" d="M75.9,77.7h-2.1c-0.3,0-0.5,0.2-0.5,0.5s0.2,0.5,0.5,0.5h2.1c0.3,0,0.5-0.2,0.5-0.5S76.2,77.7,75.9,77.7z"/>
		<path class="st1" d="M57.9,29c-0.1-0.1-0.1-0.1-0.1-0.1l-11.9-6.7c-0.1-0.1-0.4-0.1-0.5,0l-11.9,6.7c-0.1,0.1-0.1,0.1-0.1,0.1
			c-0.1,0.1-0.1,0.1-0.1,0.2v13.5c0,0.2,0.1,0.3,0.3,0.4l11.9,6.7c0.1,0.1,0.1,0.1,0.3,0.1c0.1,0,0.2,0,0.3-0.1l11.9-6.7
			c0.1-0.1,0.3-0.3,0.3-0.4V29.3C57.9,29.1,57.9,29.1,57.9,29z M45.6,23.1l10.9,6.1l-10.9,6.1l-10.9-6.1L45.6,23.1z M34.2,30.2
			L45,36.3v12.3l-10.9-6.1L34.2,30.2L34.2,30.2z M46.1,48.5V36.3L57,30.2v12.3L46.1,48.5z"/>
		<path class="st1" d="M45.6,15c-11.8,0-21.4,9.4-21.4,21s9.6,20.9,21.4,20.9S66.9,47.5,66.9,36S57.3,15,45.6,15z M45.6,55.9
			c-11.2,0-20.4-8.9-20.4-19.9S34.3,16,45.6,16S66,24.9,66,35.9S56.7,55.9,45.6,55.9z"/>
	</g>
</g>
</svg>
