<?xml version="1.0" encoding="utf-8"?>
<!-- Generator: Adobe Illustrator 23.1.1, SVG Export Plug-In . SVG Version: 6.00 Build 0)  -->
<svg version="1.1" id="Calque_1" xmlns="http://www.w3.org/2000/svg" xmlns:xlink="http://www.w3.org/1999/xlink" x="0px" y="0px"
	 viewBox="0 0 40 51" style="enable-background:new 0 0 40 51;" xml:space="preserve">
<style type="text/css">
	.st0{fill:#00AFEA;}
</style>
<path class="st0" d="M16.8,6.4c-0.1,0-0.2,0.1-0.3,0.1c-0.1,0.1-0.1,0.2-0.1,0.3v4.1c-1.1,0.3-2.1,0.7-3,1.2l-2.8-2.9
	c0,0-0.1-0.1-0.1-0.1c-0.1,0-0.1,0-0.2,0c-0.1,0-0.1,0-0.2,0C10,9.1,10,9.2,9.9,9.2l-4.6,4.5c0,0-0.1,0.1-0.1,0.1c0,0.1,0,0.1,0,0.2
	c0,0.1,0,0.1,0,0.2c0,0.1,0.1,0.1,0.1,0.1l2.8,2.9c-0.7,1.1-1.2,2.3-1.5,3.6h-4c-0.1,0-0.2,0-0.3,0.1c-0.1,0.1-0.1,0.2-0.1,0.3v6.5
	c0,0.1,0,0.2,0.1,0.3c0.1,0.1,0.2,0.1,0.3,0.1h4c0.3,1.3,0.9,2.5,1.5,3.6l-2.8,2.9c-0.1,0.1-0.1,0.2-0.1,0.3c0,0.1,0,0.2,0.1,0.3
	l4.6,4.5c0,0,0.1,0.1,0.1,0.1c0.1,0,0.1,0,0.2,0c0.1,0,0.1,0,0.2,0s0.1-0.1,0.1-0.1l2.8-2.9c1,0.5,2,1,3,1.2v4.1c0,0.1,0,0.1,0,0.2
	c0,0.1,0.1,0.1,0.1,0.1c0,0,0.1,0.1,0.1,0.1c0.1,0,0.1,0,0.2,0h6.4c0.1,0,0.2,0,0.3-0.1c0.1-0.1,0.1-0.2,0.1-0.3v-4.1
	c1.1-0.3,2.1-0.7,3-1.2l2.8,2.9c0,0,0.1,0.1,0.1,0.1c0.1,0,0.1,0,0.2,0c0.1,0,0.1,0,0.2,0c0.1,0,0.1-0.1,0.1-0.1l4.6-4.5
	c0.1-0.1,0.1-0.2,0.1-0.3c0-0.1,0-0.2-0.1-0.3l-2.8-2.9c0.6-1.1,1.2-2.3,1.5-3.6h4c0.1,0,0.1,0,0.2,0c0.1,0,0.1-0.1,0.1-0.1
	c0,0,0.1-0.1,0.1-0.1c0-0.1,0-0.1,0-0.2v-6.5c0-0.1,0-0.1,0-0.2c0-0.1-0.1-0.1-0.1-0.1c0,0-0.1-0.1-0.1-0.1c-0.1,0-0.1,0-0.2,0h-4
	c-0.3-1.3-0.8-2.5-1.5-3.6l2.8-2.9c0,0,0.1-0.1,0.1-0.1c0-0.1,0-0.1,0-0.2c0-0.1,0-0.1,0-0.2c0-0.1-0.1-0.1-0.1-0.1l-4.6-4.5
	c0,0-0.1-0.1-0.1-0.1s-0.1,0-0.2,0c-0.1,0-0.1,0-0.2,0c-0.1,0-0.1,0.1-0.1,0.1l-2.8,2.9c-1-0.5-2-1-3-1.2V6.8c0-0.1,0-0.2-0.1-0.3
	c-0.1-0.1-0.2-0.1-0.3-0.1L16.8,6.4C16.8,6.4,16.8,6.4,16.8,6.4L16.8,6.4z M17.2,7.3h5.5v3.9c0,0.1,0,0.2,0.1,0.3
	c0.1,0.1,0.1,0.1,0.2,0.2c1.2,0.3,2.4,0.8,3.4,1.4c0.1,0.1,0.2,0.1,0.3,0.1c0.1,0,0.2-0.1,0.3-0.1l2.7-2.8l3.9,3.9L31,16.9
	c-0.1,0.1-0.1,0.2-0.1,0.3s0,0.2,0.1,0.3c0.8,1.2,1.3,2.5,1.7,3.9c0,0.1,0.1,0.2,0.2,0.3c0.1,0.1,0.2,0.1,0.3,0.1h3.8v5.6h-3.8
	c-0.1,0-0.2,0-0.3,0.1c-0.1,0.1-0.1,0.2-0.2,0.2c-0.3,1.4-0.9,2.7-1.7,3.9c-0.1,0.1-0.1,0.2-0.1,0.3c0,0.1,0.1,0.2,0.1,0.3l2.7,2.8
	l-4,3.9L27.1,36c-0.1-0.1-0.2-0.1-0.3-0.1c-0.1,0-0.2,0-0.3,0.1c-1.1,0.6-2.2,1.1-3.4,1.4c-0.1,0-0.2,0.1-0.2,0.2
	c-0.1,0.1-0.1,0.2-0.1,0.3v3.9h-5.5v-3.9c0-0.1,0-0.2-0.1-0.3c-0.1-0.1-0.1-0.1-0.2-0.2c-1.2-0.3-2.4-0.8-3.5-1.4
	c-0.1-0.1-0.2-0.1-0.3-0.1c-0.1,0-0.2,0.1-0.3,0.1l-2.7,2.8l-4-3.9L9,32.1C9,32.1,9.1,32,9.1,31.9c0-0.1,0-0.2-0.1-0.3
	c-0.8-1.2-1.3-2.5-1.6-3.9c0-0.1-0.1-0.2-0.2-0.2c-0.1-0.1-0.2-0.1-0.3-0.1H3.1v-5.6h3.9c0.1,0,0.2,0,0.3-0.1
	c0.1-0.1,0.1-0.1,0.2-0.2c0.3-1.4,0.9-2.7,1.6-3.9c0.1-0.1,0.1-0.2,0.1-0.3C9.1,17,9,16.9,9,16.9L6.3,14l4-3.9l2.7,2.8
	c0.1,0.1,0.2,0.1,0.3,0.1c0.1,0,0.2,0,0.3-0.1c1.1-0.6,2.2-1.1,3.5-1.4c0.1,0,0.2-0.1,0.2-0.2c0.1-0.1,0.1-0.2,0.1-0.3L17.2,7.3
	L17.2,7.3z M20,15.6c-4.8,0-8.7,4-8.7,8.9c0,4.9,3.9,8.9,8.7,8.9c4.8,0,8.7-4,8.7-8.9C28.7,19.6,24.8,15.6,20,15.6L20,15.6z
	 M19.6,16.5c0.1,0,0.3,0,0.4,0c4.3,0,7.8,3.6,7.8,8c0,4.4-3.5,8-7.8,8c-4.3,0-7.9-3.6-7.9-8C12.1,20.2,15.4,16.7,19.6,16.5
	L19.6,16.5z"/>
</svg>
