<?xml version="1.0" encoding="utf-8"?>
<!-- Generator: Adobe Illustrator 23.1.1, SVG Export Plug-In . SVG Version: 6.00 Build 0)  -->
<svg version="1.1" id="Calque_1" xmlns="http://www.w3.org/2000/svg" xmlns:xlink="http://www.w3.org/1999/xlink" x="0px" y="0px"
	 viewBox="0 0 35 35" style="enable-background:new 0 0 35 35;" xml:space="preserve">
<style type="text/css">
	.st0{fill:#00AFEA;}
</style>
<path class="st0" d="M17.5,26.8c-5.2,0-9.3-4.2-9.3-9.3s4.2-9.3,9.3-9.3s9.3,4.2,9.3,9.3S22.7,26.8,17.5,26.8z M17.5,9
	C12.8,9,9,12.8,9,17.5s3.8,8.5,8.5,8.5s8.5-3.8,8.5-8.5S22.2,9,17.5,9z"/>
<path class="st0" d="M21.2,35h-7.4c-0.2,0-0.4-0.2-0.4-0.4v-3.9c0,0-0.1,0-0.1,0l0,0c-0.1,0-0.2-0.1-0.3-0.1l-0.1,0
	c-0.1,0-0.2-0.1-0.2-0.1c0,0-0.1,0-0.1,0c-0.1,0-0.1,0-0.2-0.1c0,0-0.1,0-0.1-0.1c0,0-0.1,0-0.1-0.1c-0.1,0-0.1-0.1-0.2-0.1l-0.1,0
	c-0.1,0-0.1-0.1-0.2-0.1l-0.1,0c-0.1,0-0.2-0.1-0.3-0.1l0,0c0,0,0,0-0.1,0l-2.8,2.8c-0.2,0.2-0.5,0.2-0.6,0l-5.2-5.2
	c-0.1-0.1-0.1-0.2-0.1-0.3s0-0.2,0.1-0.3l2.8-2.8c0,0,0,0,0-0.1l0,0c0-0.1-0.1-0.2-0.1-0.3l0-0.1c0-0.1-0.1-0.1-0.1-0.2l0-0.1
	c0-0.1-0.1-0.1-0.1-0.2c0,0,0-0.1-0.1-0.1c0,0,0-0.1-0.1-0.1c0-0.1,0-0.1-0.1-0.2c0,0,0-0.1,0-0.1c0-0.1-0.1-0.2-0.1-0.2l0-0.1
	c0-0.1-0.1-0.2-0.1-0.3l0,0c0,0,0-0.1,0-0.1H0.4c-0.2,0-0.4-0.2-0.4-0.4v-7.4c0-0.2,0.2-0.4,0.4-0.4h3.9c0,0,0-0.1,0-0.1l0,0
	c0-0.1,0.1-0.2,0.1-0.3l0-0.1c0-0.1,0.1-0.2,0.1-0.2c0,0,0-0.1,0-0.1c0-0.1,0-0.1,0.1-0.2c0,0,0-0.1,0.1-0.1c0,0,0-0.1,0.1-0.1
	c0-0.1,0.1-0.1,0.1-0.2l0-0.1C5,11.7,5,11.6,5,11.6l0-0.1c0-0.1,0.1-0.2,0.1-0.3l0,0c0,0,0,0,0-0.1L2.5,8.4C2.4,8.3,2.4,8.2,2.4,8.1
	c0-0.1,0-0.2,0.1-0.3l5.2-5.2c0.1-0.1,0.2-0.1,0.3-0.1c0.1,0,0.2,0,0.3,0.1l2.8,2.8c0,0,0,0,0.1,0l0,0c0.1,0,0.2-0.1,0.3-0.1l0.1,0
	c0.1,0,0.1-0.1,0.2-0.1l0.1,0c0.1,0,0.1-0.1,0.2-0.1c0,0,0.1,0,0.1-0.1c0,0,0.1,0,0.1-0.1c0.1,0,0.1,0,0.2-0.1c0,0,0.1,0,0.1,0
	c0.1,0,0.2-0.1,0.2-0.1l0.1,0c0.1,0,0.2-0.1,0.3-0.1l0,0c0,0,0.1,0,0.1,0V0.4c0-0.2,0.2-0.4,0.4-0.4h7.4c0.2,0,0.4,0.2,0.4,0.4v3.9
	c0,0,0.1,0,0.1,0l0,0c0.1,0,0.2,0.1,0.3,0.1l0.1,0c0.1,0,0.2,0.1,0.2,0.1c0,0,0.1,0,0.1,0c0.1,0,0.1,0,0.2,0.1c0,0,0.1,0,0.1,0.1
	c0,0,0.1,0,0.1,0.1c0.1,0,0.1,0.1,0.2,0.1c0,0,0.1,0,0.1,0C23.3,5,23.4,5,23.4,5l0.1,0c0.1,0,0.2,0.1,0.3,0.1l0,0c0,0,0,0,0.1,0
	l2.8-2.8c0.2-0.2,0.5-0.2,0.6,0l5.2,5.2c0.1,0.1,0.1,0.2,0.1,0.3c0,0.1,0,0.2-0.1,0.3l-2.8,2.8c0,0,0,0,0,0.1l0,0
	c0,0.1,0.1,0.2,0.1,0.3l0,0.1c0,0.1,0.1,0.1,0.1,0.2c0,0,0,0.1,0,0.1l0,0c0,0.1,0.1,0.1,0.1,0.2c0,0,0,0.1,0.1,0.1
	c0,0.1,0,0.1,0.1,0.1c0,0.1,0,0.1,0.1,0.2l0,0c0,0,0,0.1,0,0.1c0,0.1,0.1,0.2,0.1,0.2l0,0.1c0,0.1,0.1,0.2,0.1,0.3l0,0
	c0,0,0,0.1,0,0.1h3.9c0.2,0,0.4,0.2,0.4,0.4v7.4c0,0.2-0.2,0.4-0.4,0.4h-3.9c0,0,0,0.1,0,0.1l0,0c0,0.1-0.1,0.2-0.1,0.3l0,0.1
	c0,0.1-0.1,0.2-0.1,0.2c0,0,0,0.1,0,0.1l0,0c0,0.1,0,0.1-0.1,0.2c0,0,0,0.1-0.1,0.1l0,0c0,0.1,0,0.1-0.1,0.1c0,0.1-0.1,0.1-0.1,0.2
	l0,0c0,0,0,0.1,0,0.1c0,0.1-0.1,0.1-0.1,0.2l0,0.1c0,0.1-0.1,0.2-0.1,0.3l0,0c0,0,0,0,0,0.1l2.8,2.8c0.2,0.2,0.2,0.5,0,0.6l-5.2,5.2
	c-0.1,0.1-0.2,0.1-0.3,0.1c-0.1,0-0.2,0-0.3-0.1l-2.8-2.8c0,0,0,0-0.1,0l0,0c-0.1,0-0.2,0.1-0.3,0.1l-0.1,0c-0.1,0-0.1,0.1-0.2,0.1
	l-0.1,0c-0.1,0-0.1,0.1-0.2,0.1c0,0-0.1,0-0.1,0.1l0,0c0,0-0.1,0-0.1,0.1c-0.1,0-0.1,0-0.2,0.1c0,0-0.1,0-0.1,0
	c-0.1,0-0.2,0.1-0.2,0.1l-0.1,0c-0.1,0-0.2,0.1-0.3,0.1l0,0c0,0-0.1,0-0.1,0v3.9C21.7,34.8,21.5,35,21.2,35z M14.2,34.1h6.5v-3.8
	c0-0.2,0.1-0.4,0.3-0.4l0.1,0c0.1,0,0.2-0.1,0.3-0.1l0,0c0.1,0,0.2-0.1,0.2-0.1l0.1,0c0.1,0,0.1-0.1,0.2-0.1c0,0,0.1,0,0.1,0
	c0.1,0,0.1,0,0.2-0.1c0,0,0.1,0,0.1-0.1l0,0c0,0,0.1,0,0.1-0.1c0.1,0,0.1-0.1,0.2-0.1l0.1,0c0.1,0,0.1-0.1,0.2-0.1l0.1,0
	c0.1,0,0.2-0.1,0.2-0.1c0,0,0,0,0,0l0,0c0.1,0,0.2-0.1,0.3-0.1c0,0,0,0,0,0l0.1,0c0.2-0.1,0.4-0.1,0.5,0.1l2.7,2.7l4.6-4.6l-2.7-2.7
	c-0.1-0.1-0.2-0.4-0.1-0.5l0-0.1c0,0,0,0,0,0c0-0.1,0.1-0.2,0.1-0.3l0,0c0-0.1,0.1-0.2,0.1-0.2l0-0.1c0-0.1,0.1-0.1,0.1-0.2
	c0,0,0-0.1,0-0.1l0,0c0-0.1,0.1-0.1,0.1-0.2c0,0,0-0.1,0.1-0.1l0,0c0,0,0-0.1,0-0.1c0-0.1,0-0.1,0.1-0.2l0,0c0,0,0-0.1,0-0.1
	c0-0.1,0.1-0.1,0.1-0.2l0-0.1c0-0.1,0.1-0.2,0.1-0.2l0,0c0-0.1,0.1-0.2,0.1-0.3c0,0,0,0,0,0l0-0.1c0.1-0.2,0.2-0.3,0.4-0.3h3.8v-6.5
	h-3.8c-0.2,0-0.4-0.1-0.4-0.3l0-0.1c0,0,0,0,0,0c0-0.1-0.1-0.2-0.1-0.3l0,0c0-0.1-0.1-0.2-0.1-0.2l0-0.1c0-0.1-0.1-0.1-0.1-0.2
	c0,0,0-0.1,0-0.1l0,0c0-0.1,0-0.1-0.1-0.2c0,0,0-0.1-0.1-0.1c0,0,0-0.1-0.1-0.1c0-0.1-0.1-0.1-0.1-0.2l0,0c0,0,0-0.1,0-0.1
	c0-0.1-0.1-0.1-0.1-0.2l0-0.1c0-0.1-0.1-0.2-0.1-0.2l0,0c0-0.1-0.1-0.2-0.1-0.3l0-0.1c-0.1-0.2-0.1-0.4,0.1-0.5l2.7-2.7l-4.6-4.6
	l-2.7,2.7c-0.1,0.1-0.4,0.2-0.5,0.1l-0.1,0c-0.1,0-0.2-0.1-0.3-0.1l0,0c-0.1,0-0.2-0.1-0.2-0.1l-0.1,0c-0.1,0-0.1-0.1-0.2-0.1
	c0,0-0.1,0-0.1,0c-0.1,0-0.1-0.1-0.2-0.1c0,0-0.1,0-0.1-0.1c0,0-0.1,0-0.1-0.1c-0.1,0-0.1,0-0.2-0.1c0,0-0.1,0-0.1,0
	c-0.1,0-0.1-0.1-0.2-0.1l-0.1,0c-0.1,0-0.2-0.1-0.2-0.1l0,0c-0.1,0-0.2-0.1-0.3-0.1l0.1-0.4l-0.1,0.4l-0.1,0
	c-0.2-0.1-0.3-0.2-0.3-0.4V0.9h-6.5v3.8c0,0.2-0.1,0.4-0.3,0.4l-0.1,0c0,0,0,0,0,0c-0.1,0-0.2,0.1-0.3,0.1l0,0
	c-0.1,0-0.2,0.1-0.3,0.1l-0.1,0c-0.1,0-0.1,0.1-0.2,0.1c0,0-0.1,0-0.1,0c-0.1,0-0.1,0-0.2,0.1c0,0-0.1,0-0.1,0.1c0,0-0.1,0-0.1,0.1
	c-0.1,0-0.1,0.1-0.2,0.1l-0.1,0c-0.1,0-0.1,0.1-0.2,0.1l-0.1,0c-0.1,0-0.2,0.1-0.2,0.1l0,0c-0.1,0-0.2,0.1-0.3,0.1c0,0,0,0,0,0
	l-0.1,0c-0.2,0.1-0.4,0.1-0.5-0.1L8.1,3.4L3.4,8.1l2.7,2.7c0.1,0.1,0.2,0.4,0.1,0.5l0,0.1c0,0,0,0,0,0c0,0.1-0.1,0.2-0.1,0.3l0,0
	c0,0.1-0.1,0.2-0.1,0.2l0,0.1c0,0.1-0.1,0.1-0.1,0.2l0,0.1c0,0.1-0.1,0.1-0.1,0.2c0,0,0,0.1-0.1,0.1c0,0,0,0.1-0.1,0.1
	c0,0.1,0,0.1-0.1,0.2c0,0,0,0.1,0,0.1c0,0.1-0.1,0.1-0.1,0.2l0,0.1c0,0.1-0.1,0.2-0.1,0.2l0,0c0,0.1-0.1,0.2-0.1,0.3c0,0,0,0,0,0
	l0,0.1c-0.1,0.2-0.2,0.3-0.4,0.3H0.9v6.5h3.8c0.2,0,0.4,0.1,0.4,0.3l0,0.1c0,0,0,0,0,0c0,0.1,0.1,0.2,0.1,0.3l0,0
	c0,0.1,0.1,0.2,0.1,0.2l0,0.1c0,0.1,0.1,0.1,0.1,0.2c0,0,0,0.1,0,0.1c0,0.1,0,0.1,0.1,0.2c0,0,0,0.1,0.1,0.1c0,0,0,0.1,0.1,0.1
	c0,0.1,0.1,0.1,0.1,0.2l0,0.1c0,0.1,0.1,0.1,0.1,0.2l0,0.1c0,0.1,0.1,0.2,0.1,0.2l0,0c0,0.1,0.1,0.2,0.1,0.3l0,0.1
	c0.1,0.2,0.1,0.4-0.1,0.5l-2.7,2.7l4.6,4.6l2.7-2.7c0.1-0.1,0.4-0.2,0.5-0.1l0.1,0c0.1,0,0.2,0.1,0.3,0.1l0,0c0.1,0,0.2,0.1,0.2,0.1
	l0.1,0c0.1,0,0.1,0.1,0.2,0.1l0.1,0c0.1,0,0.1,0.1,0.2,0.1c0,0,0.1,0,0.1,0.1c0,0,0.1,0,0.1,0.1c0.1,0,0.1,0,0.2,0.1
	c0,0,0.1,0,0.1,0c0.1,0,0.1,0.1,0.2,0.1l0.1,0c0.1,0,0.2,0.1,0.2,0.1l0,0c0.1,0,0.2,0.1,0.3,0.1l0.1,0c0.2,0.1,0.3,0.2,0.3,0.4V34.1
	L14.2,34.1z"/>
<path class="st0" d="M17.5,23.1c-0.2,0-0.4-0.2-0.4-0.4v-5.9c0-0.2,0.2-0.4,0.4-0.4c0.2,0,0.4,0.2,0.4,0.4v5.9
	C17.9,22.9,17.7,23.1,17.5,23.1z"/>
<path class="st0" d="M15.8,18.7c-0.8,0-1.6-0.4-2-1.1c-0.4-0.7-0.5-2.6-0.6-2.8c0-0.1,0-0.3,0.1-0.3c0.1-0.1,0.2-0.1,0.3-0.1
	c0.2,0,2.1,0.2,2.8,0.6c0.6,0.3,1,0.9,1.1,1.6c0.1,0.7-0.1,1.3-0.5,1.7C16.8,18.5,16.3,18.7,15.8,18.7z M14.2,15.2
	c0.1,0.7,0.2,1.6,0.4,1.9c0.3,0.5,0.8,0.7,1.2,0.7c0.3,0,0.6-0.1,0.7-0.2c0.2-0.2,0.3-0.6,0.2-1c-0.1-0.4-0.3-0.8-0.6-1
	C15.8,15.4,14.9,15.3,14.2,15.2z"/>
<path class="st0" d="M19.1,18.7C19.1,18.7,19.1,18.7,19.1,18.7c-0.5,0-1-0.2-1.4-0.5c-0.4-0.4-0.6-1-0.5-1.7
	c0.1-0.7,0.5-1.3,1.1-1.6c0.7-0.4,2.6-0.5,2.8-0.6c0.1,0,0.3,0,0.3,0.1c0.1,0.1,0.1,0.2,0.1,0.3c0,0.2-0.2,2.1-0.6,2.8
	C20.7,18.3,20,18.7,19.1,18.7z M20.7,15.2c-0.7,0.1-1.6,0.2-1.9,0.4c-0.3,0.2-0.6,0.6-0.6,1c-0.1,0.4,0,0.8,0.2,0.9
	c0.2,0.2,0.4,0.2,0.7,0.2h0c0.4,0,0.9-0.2,1.2-0.7C20.5,16.8,20.6,15.9,20.7,15.2z"/>
<path class="st0" d="M13.8,19.7h-1.5v1.5h1.5V19.7z"/>
<path class="st0" d="M22.7,19.7h-1.5v1.5h1.5V19.7z"/>
</svg>
