<?xml version="1.0" encoding="utf-8"?>
<!-- Generator: Adobe Illustrator 23.1.1, SVG Export Plug-In . SVG Version: 6.00 Build 0)  -->
<svg version="1.1" id="Calque_1" xmlns="http://www.w3.org/2000/svg" xmlns:xlink="http://www.w3.org/1999/xlink" x="0px" y="0px"
	 viewBox="0 0 85 95" style="enable-background:new 0 0 85 95;" xml:space="preserve">
<style type="text/css">
	.st0{fill:#00AFEA;}
</style>
<path class="st0" d="M48.6,47.7l15.1-20.3c1.2,1.4,2.9,2.3,4.8,2.6c1.9,0.3,3.9-0.1,5.5-1c1.6-1,2.8-2.4,3.2-4.1s0.1-3.5-0.8-5
	c-1-1.5-2.6-2.6-4.4-3.1c-1.9-0.5-3.9-0.3-5.6,0.4c-1.7,0.8-3.1,2.1-3.8,3.8c-0.7,1.6-0.6,3.4,0.1,5L47.5,46.5
	c-1.2-0.9-2.6-1.4-4.1-1.5V17.8c1.9-0.2,3.7-1,5-2.4c1.3-1.3,1.9-3.1,1.8-4.8c-0.1-1.7-1-3.4-2.4-4.6c-1.4-1.2-3.3-1.9-5.3-1.9
	S38.7,4.8,37.3,6c-1.4,1.2-2.3,2.8-2.4,4.6c-0.1,1.7,0.5,3.5,1.8,4.8c1.3,1.3,3,2.2,5,2.4V45c-1.5,0.1-2.9,0.7-4.1,1.5L22.3,25.8
	c0.8-1.6,0.8-3.4,0.1-5c-0.7-1.6-2-3-3.8-3.8c-1.7-0.8-3.8-0.9-5.6-0.4s-3.4,1.6-4.4,3.1c-1,1.5-1.3,3.3-0.8,5s1.6,3.2,3.2,4.1
	c1.6,1,3.6,1.3,5.5,1c1.9-0.3,3.6-1.2,4.8-2.6l15,20.3c-0.5,0.6-0.9,1.3-1.2,2.1l-8.8-3.5V46c0-1.7-0.7-3.4-2.1-4.7
	c-1.3-1.3-3.1-2-5.1-2.2s-3.9,0.4-5.4,1.5s-2.5,2.7-2.7,4.4c-0.3,1.7,0.2,3.5,1.4,4.9c1.1,1.4,2.8,2.4,4.7,2.7
	c1.9,0.3,3.9,0,5.5-0.9c1.6-0.9,2.8-2.4,3.3-4l8.8,3.5c0,0.3,0,0.5,0,0.8c0,1.1,0.3,2.2,0.7,3.2c0.5,1,1.2,1.9,2.1,2.6
	c-2.5,0.8-4.7,2.4-6.2,4.3c-1.5,2-2.4,4.3-2.3,6.8v3h26.5v-3c0-2.4-0.8-4.8-2.3-6.8s-3.7-3.5-6.2-4.3c1.7-1.3,2.7-3.1,2.9-5.1
	l8.8-4.9c0.6,1.7,1.8,3.1,3.5,3.9c1.7,0.9,3.7,1.1,5.5,0.7c1.9-0.4,3.5-1.4,4.6-2.8s1.5-3.2,1.2-4.9c-0.3-1.7-1.3-3.3-2.9-4.3
	c-1.5-1.1-3.4-1.6-5.4-1.4c-1.9,0.2-3.7,1-5,2.2c-1.3,1.3-2,3-2,4.7c0,0.1,0,0.2,0,0.2l-8.5,4.8C49.9,49.7,49.4,48.6,48.6,47.7
	L48.6,47.7z M69.7,17.9c1.2,0,2.3,0.3,3.3,0.9c1,0.6,1.7,1.4,2.2,2.4c0.5,1,0.6,2,0.3,3.1c-0.2,1-0.8,2-1.6,2.7
	c-0.8,0.7-1.9,1.3-3,1.5c-1.2,0.2-2.4,0.1-3.4-0.3c-1.1-0.4-2-1.1-2.7-2c-0.7-0.9-1-1.9-1-3c0-1.4,0.6-2.8,1.7-3.8
	C66.6,18.4,68.1,17.9,69.7,17.9z M15.3,28.5c-1.2,0-2.3-0.3-3.3-0.9c-1-0.6-1.7-1.4-2.2-2.4c-0.5-1-0.6-2-0.3-3.1
	c0.2-1,0.8-2,1.6-2.7c0.8-0.7,1.9-1.3,3-1.5c1.2-0.2,2.4-0.1,3.4,0.3c1.1,0.4,2,1.1,2.7,2c0.7,0.9,1,1.9,1,3c0,1.4-0.7,2.7-1.8,3.7
	C18.4,27.9,16.9,28.4,15.3,28.5L15.3,28.5z M18.7,51.3c-1.2,0-2.3-0.3-3.3-0.9c-1-0.6-1.7-1.4-2.2-2.4c-0.5-1-0.6-2-0.3-3.1
	c0.2-1,0.8-2,1.6-2.7c0.8-0.7,1.9-1.3,3-1.5c1.2-0.2,2.4-0.1,3.4,0.3c1.1,0.4,2,1.1,2.7,2c0.7,0.9,1,1.9,1,3c0,1.4-0.7,2.7-1.8,3.7
	C21.8,50.7,20.3,51.2,18.7,51.3L18.7,51.3z M66.3,40.7c1.2,0,2.3,0.3,3.3,0.9c1,0.6,1.7,1.4,2.2,2.4c0.5,1,0.6,2,0.3,3.1
	c-0.2,1-0.8,2-1.6,2.7c-0.8,0.7-1.9,1.3-3,1.5s-2.4,0.1-3.4-0.3c-1.1-0.4-2-1.1-2.7-2c-0.7-0.9-1-1.9-1-3c0-1.4,0.6-2.8,1.7-3.8
	C63.2,41.2,64.7,40.7,66.3,40.7L66.3,40.7z M36.5,11c0-1.1,0.3-2.1,1-3s1.6-1.6,2.7-2c1.1-0.4,2.3-0.5,3.4-0.3
	c1.2,0.2,2.2,0.7,3,1.5C47.5,8,48.1,9,48.3,10c0.2,1,0.1,2.1-0.3,3.1c-0.5,1-1.2,1.8-2.2,2.4c-1,0.6-2.1,0.9-3.3,0.9
	c-0.8,0-1.6-0.1-2.3-0.4c-0.7-0.3-1.4-0.7-1.9-1.2c-0.6-0.5-1-1.1-1.3-1.8C36.7,12.3,36.5,11.6,36.5,11L36.5,11z M54.1,68.9v1.5
	H30.9v-1.5c0-2.3,0.8-4.6,2.4-6.4c1.6-1.8,3.8-3.1,6.3-3.7c0.9,0.3,1.8,0.5,2.8,0.5c1,0,1.9-0.2,2.8-0.5c2.5,0.6,4.7,1.9,6.3,3.7
	C53.2,64.3,54,66.6,54.1,68.9L54.1,68.9z M42.5,57.8c-3.3,0-6-2.7-6-5.9c0-1.4,0.6-2.8,1.7-3.8c1.1-1,2.6-1.6,4.2-1.6
	c1.6,0,3.1,0.6,4.2,1.6c1.1,1,1.7,2.4,1.7,3.8C48.5,55.2,45.8,57.8,42.5,57.8z"/>
</svg>
