<?xml version="1.0" encoding="utf-8"?>
<!-- Generator: Adobe Illustrator 23.1.1, SVG Export Plug-In . SVG Version: 6.00 Build 0)  -->
<svg version="1.1" id="Calque_1" xmlns="http://www.w3.org/2000/svg" xmlns:xlink="http://www.w3.org/1999/xlink" x="0px" y="0px"
	 viewBox="0 0 48 48" style="enable-background:new 0 0 48 48;" xml:space="preserve">
<style type="text/css">
	.st0{fill:#24B0E6;}
	.st1{fill:#372F88;}
	.st2{fill:#1C57A4;}
	.st3{fill:#107BC0;}
	.st4{fill:#1A9ED9;}
</style>
<g>
	<path class="st0" d="M31.62,8.32v25.35c2.17-3.43,3.43-8.31,3.43-12.65v-17L31.62,8.32z"/>
	<path class="st1" d="M12.95,43.98c1.15,0,2.3-0.09,3.43-0.27v-4.03L12.95,43.98z"/>
	<path class="st2" d="M17.62,43.47c1.17-0.25,2.32-0.61,3.43-1.05V30.76l-3.43,4.3V43.47z"/>
	<path class="st3" d="M22.29,41.9c1.2-0.56,2.35-1.24,3.43-2V21.85l-3.43,4.3V41.9z"/>
	<path class="st4" d="M26.95,38.96c1.27-1.05,2.42-2.23,3.43-3.53V12.87l-3.43,4.3V38.96z"/>
</g>
</svg>
